<svg xmlns="http://www.w3.org/2000/svg" xmlns:xlink="http://www.w3.org/1999/xlink" width="1680" height="897" version="1.1">
<style type="text/css">
.l0{
  fill: #000000;
  stroke: #000000;
  stroke-linecap:round;
  stroke-linejoin:round;
  stroke-width: 1.134;
}
.l1{
  fill: #00ccee;
  stroke: #00ccee;
  stroke-linecap:round;
  stroke-linejoin:round;
  stroke-width: 1.134;
}
.l2{
  fill: #4f4f4f; fill-opacity: 0.2;
  stroke: #4f4f4f;
  stroke-linecap:round;
  stroke-linejoin:round;
  stroke-width: 1.134;
}
.l3{
  fill: #cccccc; fill-opacity: 0.5;
  stroke: #cccccc;
  stroke-linecap:round;
  stroke-linejoin:round;
  stroke-width: 1.134;
}
.l4{
  fill: #88dd00;
  stroke: #88dd00;
  stroke-linecap:round;
  stroke-linejoin:round;
  stroke-width: 1.134;
}
.l5{
  fill: #bb2200;
  stroke: #bb2200;
  stroke-linecap:round;
  stroke-linejoin:round;
  stroke-width: 1.134;
}
.l6{
  fill: #00ccee; fill-opacity: 0.5;
  stroke: #00ccee;
  stroke-linecap:round;
  stroke-linejoin:round;
  stroke-width: 1.134;
}
.l7{
  fill: #ff0000; fill-opacity: 0.5;
  stroke: #ff0000;
  stroke-linecap:round;
  stroke-linejoin:round;
  stroke-width: 1.134;
}
.l8{
  fill: #ffff00; fill-opacity: 0.5;
  stroke: #ffff00;
  stroke-linecap:round;
  stroke-linejoin:round;
  stroke-width: 1.134;
}
.l9{
  fill: #ffffff; fill-opacity: 0.5;
  stroke: #ffffff;
  stroke-linecap:round;
  stroke-linejoin:round;
  stroke-width: 1.134;
}
.l10{
  fill: #ff00ff;
  stroke: #ff00ff;
  stroke-linecap:round;
  stroke-linejoin:round;
  stroke-width: 1.134;
}
.l11{
  fill: #00ff00; fill-opacity: 0.5;
  stroke: #00ff00;
  stroke-linecap:round;
  stroke-linejoin:round;
  stroke-width: 1.134;
}
.l12{
  fill: #0044ff; fill-opacity: 0.5;
  stroke: #0044ff;
  stroke-linecap:round;
  stroke-linejoin:round;
  stroke-width: 1.134;
}
.l13{
  fill: #aaaa00; fill-opacity: 0.5;
  stroke: #aaaa00;
  stroke-linecap:round;
  stroke-linejoin:round;
  stroke-width: 1.134;
}
.l14{
  fill: #aaccaa; fill-opacity: 0.2;
  stroke: #aaccaa;
  stroke-linecap:round;
  stroke-linejoin:round;
  stroke-width: 1.134;
}
.l15{
  fill: #ff7777; fill-opacity: 0.5;
  stroke: #ff7777;
  stroke-linecap:round;
  stroke-linejoin:round;
  stroke-width: 1.134;
}
.l16{
  fill: #bfff81; fill-opacity: 0.5;
  stroke: #bfff81;
  stroke-linecap:round;
  stroke-linejoin:round;
  stroke-width: 1.134;
}
.l17{
  fill: #00ffcc; fill-opacity: 0.2;
  stroke: #00ffcc;
  stroke-linecap:round;
  stroke-linejoin:round;
  stroke-width: 1.134;
}
.l18{
  fill: #ce0097; fill-opacity: 0.5;
  stroke: #ce0097;
  stroke-linecap:round;
  stroke-linejoin:round;
  stroke-width: 1.134;
}
.l19{
  fill: #d2d46b; fill-opacity: 0.2;
  stroke: #d2d46b;
  stroke-linecap:round;
  stroke-linejoin:round;
  stroke-width: 1.134;
}
.l20{
  fill: #ef6158; fill-opacity: 0.2;
  stroke: #ef6158;
  stroke-linecap:round;
  stroke-linejoin:round;
  stroke-width: 1.134;
}
.l21{
  fill: #fdb200; fill-opacity: 0.2;
  stroke: #fdb200;
  stroke-linecap:round;
  stroke-linejoin:round;
  stroke-width: 1.134;
}
text {font-family: Sans-Serif;}
</style>
<rect class="l0" x="0" y="0" width="1680" height="897"/>
<path class="l4" style="fill:none;" d="M1638.33 61.5708L1638.33 263.171L1134.33 263.171L1134.33 61.5708L1638.33 61.5708L1638.33 61.5708"/>
<path class="l4" style="fill:none;" d="M1638.33 321.971L1638.33 523.571L1134.33 523.571L1134.33 321.971L1638.33 321.971L1638.33 321.971"/>
<path class="l4" style="fill:none;" d="M1638.33 582.371L1638.33 783.971L1134.33 783.971L1134.33 582.371L1638.33 582.371L1638.33 582.371"/>
<path class="l4" style="fill:none;" d="M546.333 61.5708L546.333 313.571L42.3333 313.571L42.3333 61.5708L546.333 61.5708L546.333 61.5708"/>
<path class="l4" style="fill:none;" d="M546.333 363.971L546.333 615.971L42.3333 615.971L42.3333 363.971L546.333 363.971L546.333 363.971"/>
<path class="l4" style="fill:none;" d="M1092.33 61.5708L1092.33 313.571L588.333 313.571L588.333 61.5708L1092.33 61.5708L1092.33 61.5708"/>
<path class="l4" style="fill:none;" d="M756.333 422.771L756.333 582.371L621.933 582.371L621.933 422.771L756.333 422.771L756.333 422.771"/>
<path class="l4" style="fill:none;" d="M1092.33 363.971L1092.33 615.971L588.333 615.971L588.333 363.971L1092.33 363.971L1092.33 363.971"/>
<path class="l4" style="fill:none;" d="M907.533 422.771L907.533 582.371L773.133 582.371L773.133 422.771L907.533 422.771L907.533 422.771"/>
<path class="l4" style="fill:none;" d="M1058.73 422.771L1058.73 464.771L924.333 464.771L924.333 422.771L1058.73 422.771L1058.73 422.771"/>
<path class="l4" style="fill:none;" d="M1058.73 506.771L1058.73 582.371L924.333 582.371L924.333 506.771L1058.73 506.771L1058.73 523.571"/>
<path class="l4" d="M210.333 170.771L227.133 170.771"/>
<path class="l4" d="M210.333 204.371L227.133 204.371"/>
<path class="l4" d="M319.533 111.971L319.533 128.771"/>
<path class="l4" d="M344.733 187.571L361.533 187.571"/>
<path class="l4" d="M252.333 204.371L269.133 204.371"/>
<path class="l4" d="M260.733 162.371L260.733 179.171"/>
<path class="l4" d="M252.333 170.771L269.133 170.771"/>
<path class="l4" d="M336.333 187.571L344.733 187.571"/>
<path class="l4" d="M227.133 170.771L243.933 170.771"/>
<path class="l4" d="M227.133 204.371L243.933 204.371"/>
<path class="l4" style="fill:none;" d="M243.933 137.171L243.933 237.971L336.333 187.571L243.933 137.171"/>
<path class="l4" style="fill:none;" d="M227.133 128.771L344.733 128.771L344.733 246.371L227.133 246.371L227.133 128.771"/>
<path class="l4" d="M210.333 473.171L227.133 473.171"/>
<path class="l4" d="M210.333 506.771L227.133 506.771"/>
<path class="l4" d="M319.533 414.371L319.533 431.171"/>
<path class="l4" d="M353.133 473.171L369.933 473.171"/>
<path class="l4" d="M252.333 506.771L269.133 506.771"/>
<path class="l4" d="M260.733 464.771L260.733 481.571"/>
<path class="l4" d="M252.333 473.171L269.133 473.171"/>
<path class="l4" d="M311.133 473.171L353.133 473.171"/>
<path class="l4" d="M227.133 473.171L243.933 473.171"/>
<path class="l4" d="M227.133 506.771L243.933 506.771"/>
<path class="l4" d="M353.133 506.771L369.933 506.771"/>
<path class="l4" d="M311.133 506.771L353.133 506.771"/>
<path class="l4" d="M285.933 498.371L285.933 515.171"/>
<path class="l4" d="M277.533 473.171L294.333 473.171"/>
<path class="l4" d="M277.533 506.771L294.333 506.771"/>
<path class="l4" style="fill:none;" d="M243.933 439.571L243.933 540.371L344.733 489.971L243.933 439.571"/>
<path class="l4" style="fill:none;" d="M227.133 431.171L353.133 431.171L353.133 548.771L227.133 548.771L227.133 431.171"/>
<path class="l4" d="M1302.33 137.171L1319.13 137.171"/>
<path class="l4" d="M1302.33 153.971L1319.13 153.971"/>
<path class="l4" d="M1302.33 170.771L1319.13 170.771"/>
<path class="l4" d="M1302.33 187.571L1319.13 187.571"/>
<path class="l4" d="M1365.33 158.171L1390.53 158.171"/>
<path class="l4" d="M1365.33 166.571L1390.53 166.571"/>
<path class="l4" d="M1365.33 174.971L1390.53 149.771"/>
<path class="l4" d="M1386.33 149.771L1390.53 149.771"/>
<path class="l4" d="M1390.53 149.771L1390.53 153.971"/>
<path class="l4" d="M1377.93 120.371L1377.93 158.171"/>
<path class="l4" d="M1377.93 166.571L1377.93 204.371"/>
<path class="l4" d="M1377.93 103.571L1377.93 120.371"/>
<path class="l4" d="M1377.93 204.371L1377.93 221.171"/>
<path class="l4" d="M1436.73 179.171L1453.53 179.171"/>
<path class="l4" d="M1436.73 195.971L1453.53 195.971"/>
<path class="l4" d="M1436.73 137.171L1453.53 137.171"/>
<path class="l4" style="fill:none;" d="M1436.73 120.371L1319.13 120.371L1319.13 204.371L1436.73 204.371L1436.73 120.371"/>
<path class="l4" d="M1386.33 439.571L1392.63 437.471"/>
<path class="l4" d="M1380.03 433.271L1392.63 437.471"/>
<path class="l4" d="M1380.03 433.271L1392.63 429.071"/>
<path class="l4" d="M1380.03 424.871L1392.63 429.071"/>
<path class="l4" d="M1380.03 424.871L1392.63 420.671"/>
<path class="l4" d="M1380.03 416.471L1392.63 420.671"/>
<path class="l4" d="M1380.03 416.471L1392.63 412.271"/>
<path class="l4" d="M1380.03 408.071L1392.63 412.271"/>
<path class="l4" d="M1380.03 408.071L1386.33 405.971"/>
<path class="l4" d="M1310.73 397.571L1327.53 397.571"/>
<path class="l4" d="M1310.73 414.371L1327.53 414.371"/>
<path class="l4" d="M1310.73 431.171L1327.53 431.171"/>
<path class="l4" d="M1310.73 447.971L1327.53 447.971"/>
<path class="l4" d="M1386.33 363.971L1386.33 380.771"/>
<path class="l4" d="M1386.33 464.771L1386.33 481.571"/>
<path class="l4" d="M1445.13 439.571L1461.93 439.571"/>
<path class="l4" d="M1445.13 456.371L1461.93 456.371"/>
<path class="l4" d="M1386.33 380.771L1386.33 405.971"/>
<path class="l4" d="M1445.13 422.771L1461.93 422.771"/>
<path class="l4" d="M1445.13 397.571L1461.93 397.571"/>
<path class="l4" d="M1394.73 422.771L1398.93 418.571"/>
<path class="l4" d="M1394.73 422.771L1398.93 426.971"/>
<path class="l4" d="M1386.33 439.571L1386.33 447.971"/>
<path class="l4" d="M1386.33 456.371L1386.33 464.771"/>
<path class="l4" d="M1407.33 422.771L1407.33 456.371"/>
<path class="l4" d="M1386.33 456.371L1407.33 456.371"/>
<path class="l4" d="M1394.73 422.771L1407.33 422.771"/>
<path class="l4" style="fill:none;" d="M1445.13 380.771L1327.53 380.771L1327.53 464.771L1445.13 464.771L1445.13 380.771"/>
<path class="l4" d="M1386.33 699.971L1392.63 697.871"/>
<path class="l4" d="M1380.03 693.671L1392.63 697.871"/>
<path class="l4" d="M1380.03 693.671L1392.63 689.471"/>
<path class="l4" d="M1380.03 685.271L1392.63 689.471"/>
<path class="l4" d="M1380.03 685.271L1392.63 681.071"/>
<path class="l4" d="M1380.03 676.871L1392.63 681.071"/>
<path class="l4" d="M1380.03 676.871L1392.63 672.671"/>
<path class="l4" d="M1380.03 668.471L1392.63 672.671"/>
<path class="l4" d="M1380.03 668.471L1386.33 666.371"/>
<path class="l4" d="M1310.73 657.971L1327.53 657.971"/>
<path class="l4" d="M1310.73 674.771L1327.53 674.771"/>
<path class="l4" d="M1310.73 691.571L1327.53 691.571"/>
<path class="l4" d="M1310.73 708.371L1327.53 708.371"/>
<path class="l4" d="M1386.33 624.371L1386.33 641.171"/>
<path class="l4" d="M1386.33 725.171L1386.33 741.971"/>
<path class="l4" d="M1445.13 699.971L1461.93 699.971"/>
<path class="l4" d="M1445.13 716.771L1461.93 716.771"/>
<path class="l4" d="M1386.33 641.171L1386.33 666.371"/>
<path class="l4" d="M1445.13 683.171L1461.93 683.171"/>
<path class="l4" d="M1445.13 657.971L1461.93 657.971"/>
<path class="l4" d="M1394.73 683.171L1398.93 678.971"/>
<path class="l4" d="M1394.73 683.171L1398.93 687.371"/>
<path class="l4" d="M1386.33 699.971L1386.33 708.371"/>
<path class="l4" d="M1386.33 716.771L1386.33 725.171"/>
<path class="l4" d="M1407.33 683.171L1407.33 716.771"/>
<path class="l4" d="M1386.33 716.771L1407.33 716.771"/>
<path class="l4" d="M1394.73 683.171L1407.33 683.171"/>
<path class="l4" style="fill:none;" d="M1445.13 641.171L1327.53 641.171L1327.53 725.171L1445.13 725.171L1445.13 641.171"/>
<path class="l4" d="M689.133 153.971L705.933 153.971"/>
<path class="l4" d="M689.133 170.771L705.933 170.771"/>
<path class="l4" d="M689.133 187.571L705.933 187.571"/>
<path class="l4" d="M689.133 204.371L705.933 204.371"/>
<path class="l4" d="M924.333 221.171L941.133 221.171"/>
<path class="l4" style="fill:none;" d="M924.333 145.571L705.933 145.571L705.933 229.571L924.333 229.571L924.333 145.571"/>
<path class="l5" d="M208.233 168.671L212.433 168.671L212.433 172.871L208.233 172.871L208.233 168.671z"/>
<path class="l5" d="M208.233 202.271L212.433 202.271L212.433 206.471L208.233 206.471L208.233 202.271z"/>
<path class="l5" d="M317.433 109.871L321.633 109.871L321.633 114.071L317.433 114.071L317.433 109.871z"/>
<path class="l5" d="M359.433 185.471L363.633 185.471L363.633 189.671L359.433 189.671L359.433 185.471z"/>
<path class="l5" d="M283.833 109.871L288.033 109.871L288.033 114.071L283.833 114.071L283.833 109.871z"/>
<path class="l5" d="M283.833 261.071L288.033 261.071L288.033 265.271L283.833 265.271L283.833 261.071z"/>
<path class="l5" d="M208.233 471.071L212.433 471.071L212.433 475.271L208.233 475.271L208.233 471.071z"/>
<path class="l5" d="M208.233 504.671L212.433 504.671L212.433 508.871L208.233 508.871L208.233 504.671z"/>
<path class="l5" d="M317.433 412.271L321.633 412.271L321.633 416.471L317.433 416.471L317.433 412.271z"/>
<path class="l5" d="M367.833 504.671L372.033 504.671L372.033 508.871L367.833 508.871L367.833 504.671z"/>
<path class="l5" d="M283.833 412.271L288.033 412.271L288.033 416.471L283.833 416.471L283.833 412.271z"/>
<path class="l5" d="M283.833 563.471L288.033 563.471L288.033 567.671L283.833 567.671L283.833 563.471z"/>
<path class="l5" d="M367.833 471.071L372.033 471.071L372.033 475.271L367.833 475.271L367.833 471.071z"/>
<path class="l5" d="M1451.43 177.071L1455.63 177.071L1455.63 181.271L1451.43 181.271L1451.43 177.071z"/>
<path class="l5" d="M1451.43 193.871L1455.63 193.871L1455.63 198.071L1451.43 198.071L1451.43 193.871z"/>
<path class="l5" d="M1375.83 101.471L1380.03 101.471L1380.03 105.671L1375.83 105.671L1375.83 101.471z"/>
<path class="l5" d="M1375.83 219.071L1380.03 219.071L1380.03 223.271L1375.83 223.271L1375.83 219.071z"/>
<path class="l5" d="M1300.23 135.071L1304.43 135.071L1304.43 139.271L1300.23 139.271L1300.23 135.071z"/>
<path class="l5" d="M1300.23 151.871L1304.43 151.871L1304.43 156.071L1300.23 156.071L1300.23 151.871z"/>
<path class="l5" d="M1300.23 168.671L1304.43 168.671L1304.43 172.871L1300.23 172.871L1300.23 168.671z"/>
<path class="l5" d="M1300.23 185.471L1304.43 185.471L1304.43 189.671L1300.23 189.671L1300.23 185.471z"/>
<path class="l5" d="M1451.43 135.071L1455.63 135.071L1455.63 139.271L1451.43 139.271L1451.43 135.071z"/>
<path class="l5" d="M1384.23 361.871L1388.43 361.871L1388.43 366.071L1384.23 366.071L1384.23 361.871z"/>
<path class="l5" d="M1384.23 479.471L1388.43 479.471L1388.43 483.671L1384.23 483.671L1384.23 479.471z"/>
<path class="l5" d="M1459.83 420.671L1464.03 420.671L1464.03 424.871L1459.83 424.871L1459.83 420.671z"/>
<path class="l5" d="M1459.83 437.471L1464.03 437.471L1464.03 441.671L1459.83 441.671L1459.83 437.471z"/>
<path class="l5" d="M1459.83 454.271L1464.03 454.271L1464.03 458.471L1459.83 458.471L1459.83 454.271z"/>
<path class="l5" d="M1308.63 395.471L1312.83 395.471L1312.83 399.671L1308.63 399.671L1308.63 395.471z"/>
<path class="l5" d="M1308.63 412.271L1312.83 412.271L1312.83 416.471L1308.63 416.471L1308.63 412.271z"/>
<path class="l5" d="M1308.63 429.071L1312.83 429.071L1312.83 433.271L1308.63 433.271L1308.63 429.071z"/>
<path class="l5" d="M1308.63 445.871L1312.83 445.871L1312.83 450.071L1308.63 450.071L1308.63 445.871z"/>
<path class="l5" d="M1459.83 395.471L1464.03 395.471L1464.03 399.671L1459.83 399.671L1459.83 395.471z"/>
<path class="l5" d="M1384.23 622.271L1388.43 622.271L1388.43 626.471L1384.23 626.471L1384.23 622.271z"/>
<path class="l5" d="M1384.23 739.871L1388.43 739.871L1388.43 744.071L1384.23 744.071L1384.23 739.871z"/>
<path class="l5" d="M1459.83 681.071L1464.03 681.071L1464.03 685.271L1459.83 685.271L1459.83 681.071z"/>
<path class="l5" d="M1459.83 697.871L1464.03 697.871L1464.03 702.071L1459.83 702.071L1459.83 697.871z"/>
<path class="l5" d="M1459.83 714.671L1464.03 714.671L1464.03 718.871L1459.83 718.871L1459.83 714.671z"/>
<path class="l5" d="M1308.63 655.871L1312.83 655.871L1312.83 660.071L1308.63 660.071L1308.63 655.871z"/>
<path class="l5" d="M1308.63 672.671L1312.83 672.671L1312.83 676.871L1308.63 676.871L1308.63 672.671z"/>
<path class="l5" d="M1308.63 689.471L1312.83 689.471L1312.83 693.671L1308.63 693.671L1308.63 689.471z"/>
<path class="l5" d="M1308.63 706.271L1312.83 706.271L1312.83 710.471L1308.63 710.471L1308.63 706.271z"/>
<path class="l5" d="M1459.83 655.871L1464.03 655.871L1464.03 660.071L1459.83 660.071L1459.83 655.871z"/>
<path class="l5" d="M939.033 151.871L943.233 151.871L943.233 156.071L939.033 156.071L939.033 151.871z"/>
<path class="l5" d="M939.033 168.671L943.233 168.671L943.233 172.871L939.033 172.871L939.033 168.671z"/>
<path class="l5" d="M939.033 185.471L943.233 185.471L943.233 189.671L939.033 189.671L939.033 185.471z"/>
<path class="l5" d="M939.033 202.271L943.233 202.271L943.233 206.471L939.033 206.471L939.033 202.271z"/>
<path class="l5" d="M687.033 151.871L691.233 151.871L691.233 156.071L687.033 156.071L687.033 151.871z"/>
<path class="l5" d="M687.033 168.671L691.233 168.671L691.233 172.871L687.033 172.871L687.033 168.671z"/>
<path class="l5" d="M687.033 185.471L691.233 185.471L691.233 189.671L687.033 189.671L687.033 185.471z"/>
<path class="l5" d="M687.033 202.271L691.233 202.271L691.233 206.471L687.033 206.471L687.033 202.271z"/>
<path class="l5" d="M939.033 219.071L943.233 219.071L943.233 223.271L939.033 223.271L939.033 219.071z"/>
<path class="l5" d="M671.283 186.521L673.383 186.521L673.383 188.621L671.283 188.621L671.283 186.521z"/>
<path class="l5" d="M671.283 169.721L673.383 169.721L673.383 171.821L671.283 171.821L671.283 169.721z"/>
<path class="l5" d="M671.283 152.921L673.383 152.921L673.383 155.021L671.283 155.021L671.283 152.921z"/>
<path class="l5" d="M671.283 203.321L673.383 203.321L673.383 205.421L671.283 205.421L671.283 203.321z"/>
<path class="l5" d="M956.883 169.721L958.983 169.721L958.983 171.821L956.883 171.821L956.883 169.721z"/>
<path class="l5" d="M956.883 152.921L958.983 152.921L958.983 155.021L956.883 155.021L956.883 152.921z"/>
<path class="l5" d="M956.883 186.521L958.983 186.521L958.983 188.621L956.883 188.621L956.883 186.521z"/>
<path class="l5" d="M956.883 203.321L958.983 203.321L958.983 205.421L956.883 205.421L956.883 203.321z"/>
<path class="l5" d="M377.283 186.521L379.383 186.521L379.383 188.621L377.283 188.621L377.283 186.521z"/>
<path class="l5" d="M209.283 203.321L211.383 203.321L211.383 205.421L209.283 205.421L209.283 203.321z"/>
<path class="l5" d="M209.283 169.721L211.383 169.721L211.383 171.821L209.283 171.821L209.283 169.721z"/>
<path class="l5" d="M385.683 505.721L387.783 505.721L387.783 507.821L385.683 507.821L385.683 505.721z"/>
<path class="l5" d="M385.683 472.121L387.783 472.121L387.783 474.221L385.683 474.221L385.683 472.121z"/>
<path class="l5" d="M192.483 505.721L194.583 505.721L194.583 507.821L192.483 507.821L192.483 505.721z"/>
<path class="l5" d="M192.483 472.121L194.583 472.121L194.583 474.221L192.483 474.221L192.483 472.121z"/>
<path class="l5" d="M1376.88 102.521L1378.98 102.521L1378.98 104.621L1376.88 104.621L1376.88 102.521z"/>
<path class="l5" d="M1376.88 220.121L1378.98 220.121L1378.98 222.221L1376.88 222.221L1376.88 220.121z"/>
<path class="l5" d="M956.883 220.121L958.983 220.121L958.983 222.221L956.883 222.221L956.883 220.121z"/>
<path class="l5" d="M1284.48 169.721L1286.58 169.721L1286.58 171.821L1284.48 171.821L1284.48 169.721z"/>
<path class="l5" d="M1284.48 152.921L1286.58 152.921L1286.58 155.021L1284.48 155.021L1284.48 152.921z"/>
<path class="l5" d="M1284.48 186.521L1286.58 186.521L1286.58 188.621L1284.48 188.621L1284.48 186.521z"/>
<path class="l5" d="M1469.28 194.921L1471.38 194.921L1471.38 197.021L1469.28 197.021L1469.28 194.921z"/>
<path class="l5" d="M1469.28 178.121L1471.38 178.121L1471.38 180.221L1469.28 180.221L1469.28 178.121z"/>
<path class="l5" d="M1469.28 136.121L1471.38 136.121L1471.38 138.221L1469.28 138.221L1469.28 136.121z"/>
<path class="l5" d="M1284.48 136.121L1286.58 136.121L1286.58 138.221L1284.48 138.221L1284.48 136.121z"/>
<path class="l5" d="M1385.28 362.921L1387.38 362.921L1387.38 365.021L1385.28 365.021L1385.28 362.921z"/>
<path class="l5" d="M1385.28 480.521L1387.38 480.521L1387.38 482.621L1385.28 482.621L1385.28 480.521z"/>
<path class="l5" d="M1385.28 623.321L1387.38 623.321L1387.38 625.421L1385.28 625.421L1385.28 623.321z"/>
<path class="l5" d="M1385.28 740.921L1387.38 740.921L1387.38 743.021L1385.28 743.021L1385.28 740.921z"/>
<path class="l5" d="M1292.88 430.121L1294.98 430.121L1294.98 432.221L1292.88 432.221L1292.88 430.121z"/>
<path class="l5" d="M1292.88 413.321L1294.98 413.321L1294.98 415.421L1292.88 415.421L1292.88 413.321z"/>
<path class="l5" d="M1292.88 446.921L1294.98 446.921L1294.98 449.021L1292.88 449.021L1292.88 446.921z"/>
<path class="l5" d="M1292.88 690.521L1294.98 690.521L1294.98 692.621L1292.88 692.621L1292.88 690.521z"/>
<path class="l5" d="M1292.88 673.721L1294.98 673.721L1294.98 675.821L1292.88 675.821L1292.88 673.721z"/>
<path class="l5" d="M1292.88 707.321L1294.98 707.321L1294.98 709.421L1292.88 709.421L1292.88 707.321z"/>
<path class="l5" d="M1292.88 396.521L1294.98 396.521L1294.98 398.621L1292.88 398.621L1292.88 396.521z"/>
<path class="l5" d="M1477.68 455.321L1479.78 455.321L1479.78 457.421L1477.68 457.421L1477.68 455.321z"/>
<path class="l5" d="M1477.68 438.521L1479.78 438.521L1479.78 440.621L1477.68 440.621L1477.68 438.521z"/>
<path class="l5" d="M1477.68 715.721L1479.78 715.721L1479.78 717.821L1477.68 717.821L1477.68 715.721z"/>
<path class="l5" d="M1477.68 698.921L1479.78 698.921L1479.78 701.021L1477.68 701.021L1477.68 698.921z"/>
<path class="l5" d="M1477.68 396.521L1479.78 396.521L1479.78 398.621L1477.68 398.621L1477.68 396.521z"/>
<path class="l5" d="M1292.88 656.921L1294.98 656.921L1294.98 659.021L1292.88 659.021L1292.88 656.921z"/>
<path class="l5" d="M1477.68 421.721L1479.78 421.721L1479.78 423.821L1477.68 423.821L1477.68 421.721z"/>
<path class="l5" d="M1477.68 682.121L1479.78 682.121L1479.78 684.221L1477.68 684.221L1477.68 682.121z"/>
<path class="l5" d="M284.883 278.921L286.983 278.921L286.983 281.021L284.883 281.021L284.883 278.921z"/>
<path class="l5" d="M284.883 94.1208L286.983 94.1208L286.983 96.2208L284.883 96.2208L284.883 94.1208z"/>
<path class="l5" d="M318.483 94.1208L320.583 94.1208L320.583 96.2208L318.483 96.2208L318.483 94.1208z"/>
<path class="l5" d="M318.483 396.521L320.583 396.521L320.583 398.621L318.483 398.621L318.483 396.521z"/>
<path class="l5" d="M284.883 396.521L286.983 396.521L286.983 398.621L284.883 398.621L284.883 396.521z"/>
<path class="l5" d="M284.883 581.321L286.983 581.321L286.983 583.421L284.883 583.421L284.883 581.321z"/>
<path class="l5" d="M134.733 813.371L134.471 813.633L134.208 813.896L133.946 814.158L133.683 814.421L133.421 814.683L133.158 814.946L132.896 815.208L132.633 815.471L132.371 815.733L132.108 815.996L131.846 816.258L131.583 816.521L131.321 816.783L131.058 817.046L130.796 817.308L130.533 817.571L130.271 817.833L130.008 818.096L129.746 818.358L129.483 818.621L129.221 818.883L128.958 819.146L128.696 819.408L128.433 819.671L128.171 819.933L127.908 820.196L127.646 820.458L127.383 820.721L127.121 820.983L126.858 821.246L126.596 821.508L126.333 821.771L126.333 821.771L126.079 822.033L125.841 822.296L125.62 822.558L125.415 822.821L125.226 823.083L125.054 823.346L124.898 823.608L124.758 823.871L124.635 824.133L124.529 824.396L124.438 824.658L124.365 824.921L124.307 825.183L124.266 825.446L124.242 825.708L124.233 825.971L124.242 826.233L124.266 826.496L124.307 826.758L124.365 827.021L124.438 827.283L124.529 827.546L124.635 827.808L124.758 828.071L124.898 828.333L125.054 828.596L125.226 828.858L125.415 829.121L125.62 829.383L125.841 829.646L126.079 829.908L126.333 830.171L126.333 830.171L126.597 830.434L126.862 830.7L127.13 830.968L127.4 831.237L127.671 831.509L127.945 831.783L128.221 832.059L128.499 832.336L128.779 832.616L129.061 832.898L129.345 833.182L129.631 833.468L129.919 833.757L130.209 834.047L130.502 834.339L130.796 834.633L131.092 834.93L131.391 835.228L131.691 835.528L131.993 835.831L132.298 836.136L132.605 836.442L132.913 836.751L133.224 837.061L133.537 837.374L133.851 837.689L134.168 838.006L134.487 838.325L134.808 838.646L135.131 838.969L135.456 839.294L135.783 839.621L135.783 839.621L136.109 839.947L136.431 840.269L136.749 840.587L137.063 840.901L137.373 841.21L137.678 841.516L137.98 841.817L138.277 842.115L138.57 842.408L138.86 842.697L139.145 842.982L139.426 843.263L139.702 843.54L139.975 843.813L140.244 844.081L140.508 844.346L140.769 844.606L141.025 844.863L141.277 845.115L141.526 845.363L141.77 845.607L142.01 845.847L142.245 846.083L142.477 846.315L142.705 846.542L142.928 846.766L143.148 846.985L143.363 847.201L143.574 847.412L143.781 847.619L143.984 847.822L144.183 848.021L144.183 848.021L144.374 848.215L144.552 848.402L144.719 848.584L144.872 848.759L145.014 848.928L145.143 849.091L145.26 849.248L145.365 849.399L145.457 849.544L145.537 849.682L145.605 849.814L145.66 849.94L145.703 850.06L145.734 850.174L145.752 850.282L145.758 850.383L145.752 850.479L145.734 850.568L145.703 850.651L145.66 850.728L145.605 850.799L145.537 850.863L145.457 850.922L145.365 850.974L145.26 851.02L145.143 851.06L145.014 851.094L144.872 851.122L144.719 851.143L144.552 851.159L144.374 851.168L144.183 851.171L144.183 851.171L143.986 851.171L143.79 851.171L143.593 851.171L143.396 851.171L143.199 851.171L143.002 851.171L142.805 851.171L142.608 851.171L142.411 851.171L142.215 851.171L142.018 851.171L141.821 851.171L141.624 851.171L141.427 851.171L141.23 851.171L141.033 851.171L140.836 851.171L140.64 851.171L140.443 851.171L140.246 851.171L140.049 851.171L139.852 851.171L139.655 851.171L139.458 851.171L139.261 851.171L139.065 851.171L138.868 851.171L138.671 851.171L138.474 851.171L138.277 851.171L138.08 851.171L137.883 851.171L137.883 851.171L137.687 851.171L137.494 851.171L137.302 851.171L137.112 851.171L136.925 851.171L136.739 851.171L136.555 851.171L136.374 851.171L136.195 851.171L136.017 851.171L135.842 851.171L135.668 851.171L135.497 851.171L135.328 851.171L135.161 851.171L134.996 851.171L134.833 851.171L134.672 851.171L134.513 851.171L134.356 851.171L134.201 851.171L134.048 851.171L133.898 851.171L133.749 851.171L133.602 851.171L133.458 851.171L133.315 851.171L133.175 851.171L133.036 851.171L132.9 851.171L132.766 851.171L132.633 851.171L132.633 851.171L132.502 851.169L132.371 851.163L132.24 851.152L132.108 851.138L131.977 851.12L131.846 851.097L131.715 851.07L131.583 851.04L131.452 851.005L131.321 850.966L131.19 850.923L131.058 850.876L130.927 850.824L130.796 850.769L130.665 850.709L130.533 850.646L130.402 850.578L130.271 850.506L130.14 850.431L130.008 850.351L129.877 850.266L129.746 850.178L129.615 850.086L129.483 849.99L129.352 849.889L129.221 849.785L129.09 849.676L128.958 849.563L128.827 849.446L128.696 849.325L128.565 849.2L128.433 849.071L128.433 849.071L128.302 848.94L128.171 848.808L128.04 848.677L127.908 848.546L127.777 848.415L127.646 848.283L127.515 848.152L127.383 848.021L127.252 847.89L127.121 847.758L126.99 847.627L126.858 847.496L126.727 847.365L126.596 847.233L126.465 847.102L126.333 846.971L126.202 846.84L126.071 846.708L125.94 846.577L125.808 846.446L125.677 846.315L125.546 846.183L125.415 846.052L125.283 845.921L125.152 845.79L125.021 845.658L124.89 845.527L124.758 845.396L124.627 845.265L124.496 845.133L124.365 845.002L124.233 844.871L124.233 844.871L124.1 844.738L123.963 844.6L123.821 844.459L123.676 844.313L123.526 844.163L123.372 844.01L123.214 843.852L123.052 843.69L122.886 843.523L122.716 843.353L122.541 843.179L122.363 843.001L122.181 842.818L121.994 842.631L121.803 842.441L121.608 842.246L121.409 842.047L121.206 841.844L120.999 841.637L120.788 841.426L120.573 841.21L120.353 840.991L120.13 840.767L119.902 840.54L119.67 840.308L119.435 840.072L119.195 839.832L118.951 839.588L118.702 839.34L118.45 839.088L118.194 838.831L117.933 838.571L117.933 838.571L117.671 838.317L117.408 838.079L117.146 837.857L116.883 837.652L116.621 837.463L116.358 837.291L116.096 837.135L115.833 836.996L115.571 836.873L115.308 836.766L115.046 836.676L114.783 836.602L114.521 836.545L114.258 836.504L113.996 836.479L113.733 836.471L113.471 836.479L113.208 836.504L112.946 836.545L112.683 836.602L112.421 836.676L112.158 836.766L111.896 836.873L111.633 836.996L111.371 837.135L111.108 837.291L110.846 837.463L110.583 837.652L110.321 837.857L110.058 838.079L109.796 838.317L109.533 838.571L109.533 838.571L109.273 838.831L109.017 839.088L108.764 839.34L108.516 839.588L108.272 839.832L108.032 840.072L107.796 840.308L107.565 840.54L107.337 840.767L107.113 840.991L106.894 841.21L106.679 841.426L106.467 841.637L106.26 841.844L106.057 842.047L105.858 842.246L105.664 842.441L105.473 842.631L105.286 842.818L105.104 843.001L104.925 843.179L104.751 843.353L104.581 843.523L104.415 843.69L104.253 843.852L104.095 844.01L103.941 844.163L103.791 844.313L103.646 844.459L103.504 844.6L103.367 844.738L103.233 844.871L103.233 844.871L103.102 845.002L102.971 845.133L102.84 845.265L102.708 845.396L102.577 845.527L102.446 845.658L102.315 845.79L102.183 845.921L102.052 846.052L101.921 846.183L101.79 846.315L101.658 846.446L101.527 846.577L101.396 846.708L101.265 846.84L101.133 846.971L101.002 847.102L100.871 847.233L100.74 847.365L100.608 847.496L100.477 847.627L100.346 847.758L100.215 847.89L100.083 848.021L99.9521 848.152L99.8208 848.283L99.6896 848.415L99.5583 848.546L99.4271 848.677L99.2958 848.808L99.1646 848.94L99.0333 849.071L99.0333 849.071L98.9021 849.2L98.7708 849.325L98.6396 849.446L98.5083 849.563L98.3771 849.676L98.2458 849.785L98.1146 849.889L97.9833 849.99L97.8521 850.086L97.7208 850.178L97.5896 850.266L97.4583 850.351L97.3271 850.431L97.1958 850.506L97.0646 850.578L96.9333 850.646L96.8021 850.709L96.6708 850.769L96.5396 850.824L96.4083 850.876L96.2771 850.923L96.1458 850.966L96.0146 851.005L95.8833 851.04L95.7521 851.07L95.6208 851.097L95.4896 851.12L95.3583 851.138L95.2271 851.152L95.0958 851.163L94.9646 851.169L94.8333 851.171L94.8333 851.171L94.7011 851.171L94.5667 851.171L94.4304 851.171L94.2919 851.171L94.1514 851.171L94.0089 851.171L93.8643 851.171L93.7177 851.171L93.569 851.171L93.4183 851.171L93.2655 851.171L93.1107 851.171L92.9538 851.171L92.7949 851.171L92.6339 851.171L92.4708 851.171L92.3057 851.171L92.1386 851.171L91.9694 851.171L91.7982 851.171L91.6249 851.171L91.4495 851.171L91.2722 851.171L91.0927 851.171L90.9112 851.171L90.7277 851.171L90.5421 851.171L90.3544 851.171L90.1647 851.171L89.973 851.171L89.7792 851.171L89.5833 851.171L89.5833 851.171L89.3865 851.171L89.1896 851.171L88.9927 851.171L88.7958 851.171L88.599 851.171L88.4021 851.171L88.2052 851.171L88.0083 851.171L87.8115 851.171L87.6146 851.171L87.4177 851.171L87.2208 851.171L87.024 851.171L86.8271 851.171L86.6302 851.171L86.4333 851.171L86.2365 851.171L86.0396 851.171L85.8427 851.171L85.6458 851.171L85.449 851.171L85.2521 851.171L85.0552 851.171L84.8583 851.171L84.6615 851.171L84.4646 851.171L84.2677 851.171L84.0708 851.171L83.874 851.171L83.6771 851.171L83.4802 851.171L83.2833 851.171L83.2833 851.171L83.0926 851.168L82.9142 851.159L82.7481 851.143L82.5943 851.122L82.4528 851.094L82.3236 851.06L82.2067 851.02L82.1021 850.974L82.0098 850.922L81.9298 850.863L81.8621 850.799L81.8068 850.728L81.7637 850.651L81.7329 850.568L81.7145 850.479L81.7083 850.383L81.7145 850.282L81.7329 850.174L81.7637 850.06L81.8068 849.94L81.8621 849.814L81.9298 849.682L82.0098 849.544L82.1021 849.399L82.2067 849.248L82.3236 849.091L82.4528 848.928L82.5943 848.759L82.7481 848.584L82.9142 848.402L83.0926 848.215L83.2833 848.021L83.2833 848.021L83.4823 847.822L83.6853 847.619L83.8924 847.412L84.1036 847.201L84.319 846.985L84.5384 846.766L84.7619 846.542L84.9896 846.315L85.2213 846.083L85.4572 845.847L85.6971 845.607L85.9411 845.363L86.1893 845.115L86.4415 844.863L86.6979 844.606L86.9583 844.346L87.2229 844.081L87.4915 843.813L87.7643 843.54L88.0411 843.263L88.3221 842.982L88.6072 842.697L88.8963 842.408L89.1896 842.115L89.4869 841.817L89.7884 841.516L90.094 841.21L90.4036 840.901L90.7174 840.587L91.0353 840.269L91.3573 839.947L91.6833 839.621L91.6833 839.621L92.0104 839.294L92.3355 838.969L92.6585 838.646L92.9794 838.325L93.2983 838.006L93.6152 837.689L93.93 837.374L94.2427 837.061L94.5534 836.751L94.862 836.442L95.1686 836.136L95.4732 835.831L95.7757 835.528L96.0761 835.228L96.3745 834.93L96.6708 834.633L96.9651 834.339L97.2574 834.047L97.5475 833.757L97.8357 833.468L98.1218 833.182L98.4058 832.898L98.6878 832.616L98.9677 832.336L99.2456 832.059L99.5214 831.783L99.7952 831.509L100.067 831.237L100.337 830.968L100.604 830.7L100.87 830.434L101.133 830.171L101.133 830.171L101.388 829.908L101.626 829.646L101.847 829.383L102.052 829.121L102.241 828.858L102.413 828.596L102.569 828.333L102.708 828.071L102.831 827.808L102.938 827.546L103.028 827.283L103.102 827.021L103.16 826.758L103.201 826.496L103.225 826.233L103.233 825.971L103.225 825.708L103.201 825.446L103.16 825.183L103.102 824.921L103.028 824.658L102.938 824.396L102.831 824.133L102.708 823.871L102.569 823.608L102.413 823.346L102.241 823.083L102.052 822.821L101.847 822.558L101.626 822.296L101.388 822.033L101.133 821.771L101.133 821.771L100.87 821.507L100.604 821.242L100.337 820.974L100.067 820.704L99.7952 820.433L99.5214 820.159L99.2456 819.883L98.9677 819.605L98.6878 819.325L98.4058 819.043L98.1218 818.759L97.8357 818.473L97.5475 818.185L97.2574 817.895L96.9651 817.603L96.6708 817.308L96.3745 817.012L96.0761 816.714L95.7757 816.413L95.4732 816.111L95.1686 815.806L94.862 815.5L94.5534 815.191L94.2427 814.88L93.93 814.567L93.6152 814.253L93.2983 813.936L92.9794 813.617L92.6585 813.296L92.3355 812.973L92.0104 812.648L91.6833 812.321L91.6833 812.321L91.3573 811.995L91.0353 811.673L90.7174 811.355L90.4036 811.041L90.094 810.731L89.7884 810.426L89.4869 810.124L89.1896 809.827L88.8963 809.534L88.6072 809.245L88.3221 808.96L88.0411 808.679L87.7643 808.402L87.4915 808.129L87.2229 807.86L86.9583 807.596L86.6979 807.335L86.4415 807.079L86.1893 806.827L85.9411 806.579L85.6971 806.335L85.4572 806.095L85.2213 805.859L84.9896 805.627L84.7619 805.399L84.5384 805.176L84.319 804.956L84.1036 804.741L83.8924 804.53L83.6853 804.323L83.4823 804.12L83.2833 803.921L83.2833 803.921L83.0926 803.727L82.9142 803.539L82.7481 803.358L82.5943 803.183L82.4528 803.013L82.3236 802.85L82.2067 802.693L82.1021 802.543L82.0098 802.398L81.9298 802.26L81.8621 802.127L81.8068 802.001L81.7637 801.881L81.7329 801.768L81.7145 801.66L81.7083 801.558L81.7145 801.463L81.7329 801.374L81.7637 801.291L81.8068 801.214L81.8621 801.143L81.9298 801.078L82.0098 801.02L82.1021 800.968L82.2067 800.922L82.3236 800.882L82.4528 800.848L82.5943 800.82L82.7481 800.799L82.9142 800.783L83.0926 800.774L83.2833 800.771L83.2833 800.771L83.4802 800.771L83.6771 800.771L83.874 800.771L84.0708 800.771L84.2677 800.771L84.4646 800.771L84.6615 800.771L84.8583 800.771L85.0552 800.771L85.2521 800.771L85.449 800.771L85.6458 800.771L85.8427 800.771L86.0396 800.771L86.2365 800.771L86.4333 800.771L86.6302 800.771L86.8271 800.771L87.024 800.771L87.2208 800.771L87.4177 800.771L87.6146 800.771L87.8115 800.771L88.0083 800.771L88.2052 800.771L88.4021 800.771L88.599 800.771L88.7958 800.771L88.9927 800.771L89.1896 800.771L89.3865 800.771L89.5833 800.771L89.5833 800.771L89.7792 800.771L89.973 800.771L90.1647 800.771L90.3544 800.771L90.5421 800.771L90.7277 800.771L90.9112 800.771L91.0927 800.771L91.2722 800.771L91.4495 800.771L91.6249 800.771L91.7982 800.771L91.9694 800.771L92.1386 800.771L92.3057 800.771L92.4708 800.771L92.6339 800.771L92.7949 800.771L92.9538 800.771L93.1107 800.771L93.2655 800.771L93.4183 800.771L93.569 800.771L93.7177 800.771L93.8643 800.771L94.0089 800.771L94.1514 800.771L94.2919 800.771L94.4304 800.771L94.5667 800.771L94.7011 800.771L94.8333 800.771L94.8333 800.771L94.9646 800.773L95.0958 800.779L95.2271 800.789L95.3583 800.804L95.4896 800.822L95.6208 800.845L95.7521 800.871L95.8833 800.902L96.0146 800.937L96.1458 800.976L96.2771 801.019L96.4083 801.066L96.5396 801.117L96.6708 801.173L96.8021 801.232L96.9333 801.296L97.0646 801.364L97.1958 801.435L97.3271 801.511L97.4583 801.591L97.5896 801.675L97.7208 801.763L97.8521 801.856L97.9833 801.952L98.1146 802.053L98.2458 802.157L98.3771 802.266L98.5083 802.379L98.6396 802.496L98.7708 802.617L98.9021 802.742L99.0333 802.871L99.0333 802.871L99.1646 803.002L99.2958 803.133L99.4271 803.265L99.5583 803.396L99.6896 803.527L99.8208 803.658L99.9521 803.79L100.083 803.921L100.215 804.052L100.346 804.183L100.477 804.315L100.608 804.446L100.74 804.577L100.871 804.708L101.002 804.84L101.133 804.971L101.265 805.102L101.396 805.233L101.527 805.365L101.658 805.496L101.79 805.627L101.921 805.758L102.052 805.89L102.183 806.021L102.315 806.152L102.446 806.283L102.577 806.415L102.708 806.546L102.84 806.677L102.971 806.808L103.102 806.94L103.233 807.071L103.233 807.071L103.367 807.204L103.504 807.342L103.646 807.483L103.791 807.629L103.941 807.778L104.095 807.932L104.253 808.09L104.415 808.252L104.581 808.418L104.751 808.588L104.925 808.763L105.104 808.941L105.286 809.124L105.473 809.31L105.664 809.501L105.858 809.696L106.057 809.895L106.26 810.098L106.467 810.305L106.679 810.516L106.894 810.731L107.113 810.951L107.337 811.174L107.565 811.402L107.796 811.634L108.032 811.87L108.272 812.11L108.516 812.354L108.764 812.602L109.017 812.854L109.273 813.11L109.533 813.371L109.533 813.371L109.796 813.625L110.058 813.863L110.321 814.085L110.583 814.29L110.846 814.478L111.108 814.651L111.371 814.806L111.633 814.946L111.896 815.069L112.158 815.176L112.421 815.266L112.683 815.34L112.946 815.397L113.208 815.438L113.471 815.463L113.733 815.471L113.996 815.463L114.258 815.438L114.521 815.397L114.783 815.34L115.046 815.266L115.308 815.176L115.571 815.069L115.833 814.946L116.096 814.806L116.358 814.651L116.621 814.478L116.883 814.29L117.146 814.085L117.408 813.863L117.671 813.625L117.933 813.371L117.933 813.371L118.194 813.11L118.45 812.854L118.702 812.602L118.951 812.354L119.195 812.11L119.435 811.87L119.67 811.634L119.902 811.402L120.13 811.174L120.353 810.951L120.573 810.731L120.788 810.516L120.999 810.305L121.206 810.098L121.409 809.895L121.608 809.696L121.803 809.501L121.994 809.31L122.181 809.124L122.363 808.941L122.541 808.763L122.716 808.588L122.886 808.418L123.052 808.252L123.214 808.09L123.372 807.932L123.526 807.778L123.676 807.629L123.821 807.483L123.963 807.342L124.1 807.204L124.233 807.071L124.233 807.071L124.365 806.94L124.496 806.808L124.627 806.677L124.758 806.546L124.89 806.415L125.021 806.283L125.152 806.152L125.283 806.021L125.415 805.89L125.546 805.758L125.677 805.627L125.808 805.496L125.94 805.365L126.071 805.233L126.202 805.102L126.333 804.971L126.465 804.84L126.596 804.708L126.727 804.577L126.858 804.446L126.99 804.315L127.121 804.183L127.252 804.052L127.383 803.921L127.515 803.79L127.646 803.658L127.777 803.527L127.908 803.396L128.04 803.265L128.171 803.133L128.302 803.002L128.433 802.871L128.433 802.871L128.565 802.742L128.696 802.617L128.827 802.496L128.958 802.379L129.09 802.266L129.221 802.157L129.352 802.053L129.483 801.952L129.615 801.856L129.746 801.763L129.877 801.675L130.008 801.591L130.14 801.511L130.271 801.435L130.402 801.364L130.533 801.296L130.665 801.232L130.796 801.173L130.927 801.117L131.058 801.066L131.19 801.019L131.321 800.976L131.452 800.937L131.583 800.902L131.715 800.871L131.846 800.845L131.977 800.822L132.108 800.804L132.24 800.789L132.371 800.779L132.502 800.773L132.633 800.771L132.633 800.771L132.766 800.771L132.9 800.771L133.036 800.771L133.175 800.771L133.315 800.771L133.458 800.771L133.602 800.771L133.749 800.771L133.898 800.771L134.048 800.771L134.201 800.771L134.356 800.771L134.513 800.771L134.672 800.771L134.833 800.771L134.996 800.771L135.161 800.771L135.328 800.771L135.497 800.771L135.668 800.771L135.842 800.771L136.017 800.771L136.195 800.771L136.374 800.771L136.555 800.771L136.739 800.771L136.925 800.771L137.112 800.771L137.302 800.771L137.494 800.771L137.687 800.771L137.883 800.771L137.883 800.771L138.08 800.771L138.277 800.771L138.474 800.771L138.671 800.771L138.868 800.771L139.065 800.771L139.261 800.771L139.458 800.771L139.655 800.771L139.852 800.771L140.049 800.771L140.246 800.771L140.443 800.771L140.64 800.771L140.836 800.771L141.033 800.771L141.23 800.771L141.427 800.771L141.624 800.771L141.821 800.771L142.018 800.771L142.215 800.771L142.411 800.771L142.608 800.771L142.805 800.771L143.002 800.771L143.199 800.771L143.396 800.771L143.593 800.771L143.79 800.771L143.986 800.771L144.183 800.771L144.183 800.771L144.374 800.774L144.552 800.783L144.719 800.799L144.872 800.82L145.014 800.848L145.143 800.882L145.26 800.922L145.365 800.968L145.457 801.02L145.537 801.078L145.605 801.143L145.66 801.214L145.703 801.291L145.734 801.374L145.752 801.463L145.758 801.558L145.752 801.66L145.734 801.768L145.703 801.881L145.66 802.001L145.605 802.127L145.537 802.26L145.457 802.398L145.365 802.543L145.26 802.693L145.143 802.85L145.014 803.013L144.872 803.183L144.719 803.358L144.552 803.539L144.374 803.727L144.183 803.921L144.183 803.921L143.983 804.121L143.777 804.327L143.565 804.539L143.347 804.758L143.122 804.982L142.891 805.213L142.654 805.45L142.411 805.693L142.162 805.942L141.907 806.197L141.645 806.459L141.378 806.726L141.104 807L140.824 807.28L140.538 807.566L140.246 807.858L139.947 808.157L139.643 808.461L139.332 808.772L139.015 809.089L138.692 809.412L138.363 809.741L138.028 810.076L137.686 810.418L137.339 810.765L136.985 811.119L136.625 811.479L136.259 811.845L135.887 812.217L135.509 812.596L135.124 812.98L134.733 813.371"/>
<path class="l5" d="M655.533 473.171L658.158 473.171"/>
<path class="l5" d="M667.083 477.371L670.233 473.171L667.083 468.971L661.308 468.971L658.158 473.171L661.308 477.371L667.083 477.371"/>
<path class="l5" d="M654.483 472.121L656.583 472.121L656.583 474.221L654.483 474.221L654.483 472.121z"/>
<path class="l5" d="M655.533 489.971L658.158 489.971"/>
<path class="l5" d="M667.083 494.171L670.233 489.971L667.083 485.771L661.308 485.771L658.158 489.971L661.308 494.171L667.083 494.171"/>
<path class="l5" d="M654.483 488.921L656.583 488.921L656.583 491.021L654.483 491.021L654.483 488.921z"/>
<path class="l5" d="M655.533 506.771L658.158 506.771"/>
<path class="l5" d="M667.083 510.971L670.233 506.771L667.083 502.571L661.308 502.571L658.158 506.771L661.308 510.971L667.083 510.971"/>
<path class="l5" d="M654.483 505.721L656.583 505.721L656.583 507.821L654.483 507.821L654.483 505.721z"/>
<path class="l5" d="M655.533 523.571L658.158 523.571"/>
<path class="l5" d="M667.083 527.771L670.233 523.571L667.083 519.371L661.308 519.371L658.158 523.571L661.308 527.771L667.083 527.771"/>
<path class="l5" d="M654.483 522.521L656.583 522.521L656.583 524.621L654.483 524.621L654.483 522.521z"/>
<path class="l5" d="M869.733 473.171L873.933 473.171"/>
<path class="l5" d="M869.733 473.171L866.583 468.971L859.233 468.971L862.383 473.171L859.233 477.371L866.583 477.371L869.733 473.171"/>
<path class="l5" d="M872.883 472.121L874.983 472.121L874.983 474.221L872.883 474.221L872.883 472.121z"/>
<path class="l5" d="M869.733 489.971L873.933 489.971"/>
<path class="l5" d="M869.733 489.971L866.583 485.771L859.233 485.771L862.383 489.971L859.233 494.171L866.583 494.171L869.733 489.971"/>
<path class="l5" d="M872.883 488.921L874.983 488.921L874.983 491.021L872.883 491.021L872.883 488.921z"/>
<path class="l5" d="M869.733 506.771L873.933 506.771"/>
<path class="l5" d="M869.733 506.771L866.583 502.571L859.233 502.571L862.383 506.771L859.233 510.971L866.583 510.971L869.733 506.771"/>
<path class="l5" d="M872.883 505.721L874.983 505.721L874.983 507.821L872.883 507.821L872.883 505.721z"/>
<path class="l5" d="M869.733 523.571L873.933 523.571"/>
<path class="l5" d="M869.733 523.571L866.583 519.371L859.233 519.371L862.383 523.571L859.233 527.771L866.583 527.771L869.733 523.571"/>
<path class="l5" d="M872.883 522.521L874.983 522.521L874.983 524.621L872.883 524.621L872.883 522.521z"/>
<path class="l5" d="M941.133 447.971L943.758 447.971"/>
<path class="l5" d="M952.683 452.171L955.833 447.971L952.683 443.771L946.908 443.771L943.758 447.971L946.908 452.171L952.683 452.171"/>
<path class="l5" d="M940.083 446.921L942.183 446.921L942.183 449.021L940.083 449.021L940.083 446.921z"/>
<path class="l5" d="M941.133 531.971L943.758 531.971"/>
<path class="l5" d="M952.683 536.171L955.833 531.971L952.683 527.771L946.908 527.771L943.758 531.971L946.908 536.171L952.683 536.171"/>
<path class="l5" d="M940.083 530.921L942.183 530.921L942.183 533.021L940.083 533.021L940.083 530.921z"/>
<path class="l5" d="M941.133 557.171L943.758 557.171"/>
<path class="l5" d="M952.683 561.371L955.833 557.171L952.683 552.971L946.908 552.971L943.758 557.171L946.908 561.371L952.683 561.371"/>
<path class="l5" d="M940.083 556.121L942.183 556.121L942.183 558.221L940.083 558.221L940.083 556.121z"/>
<path class="l6" d="M332.133 825.971L999.933 825.971"/>
<path class="l6" d="M8.73333 825.971L63.3333 825.971"/>
<path class="l7" d="M285.933 246.371L285.933 263.171"/>
<path class="l7" d="M285.933 111.971L285.933 128.771"/>
<path class="l7" d="M285.933 548.771L285.933 565.571"/>
<path class="l7" d="M285.933 414.371L285.933 431.171"/>
<path class="l7" d="M924.333 153.971L941.133 153.971"/>
<path class="l7" d="M924.333 170.771L941.133 170.771"/>
<path class="l7" d="M924.333 187.571L941.133 187.571"/>
<path class="l7" d="M924.333 204.371L941.133 204.371"/>
<text fill="#cccccc"  xml:space="preserve" font-size="13.104" transform="translate(294.333, 261.629)" >single_ended_ota</text>
<text fill="#cccccc"  xml:space="preserve" font-size="8.736" transform="translate(222.933, 118.223)" >se_ota[1:3]</text>
<text fill="#cccccc"  xml:space="preserve" font-size="8.736" transform="translate(231.333, 166.943)" >IP</text>
<text fill="#cccccc"  xml:space="preserve" font-size="8.736" transform="translate(231.333, 200.543)" >IN</text>
<text fill="#cccccc"  xml:space="preserve" font-size="8.736" transform="translate(304.733, 192.143)" >OUT</text>
<text fill="#cccccc"  xml:space="preserve" font-size="8.736" transform="translate(270.133, 141.743)" >VDD</text>
<text fill="#cccccc"  xml:space="preserve" font-size="8.736" transform="translate(273.333, 239.243)" >VSS</text>
<text fill="#cccccc"  xml:space="preserve" font-size="8.736" transform="translate(305.133, 141.743)" >VBIAS</text>
<text fill="#cccccc"  xml:space="preserve" font-size="13.104" transform="translate(294.333, 564.029)" >differential_ota</text>
<text fill="#cccccc"  xml:space="preserve" font-size="8.736" transform="translate(222.933, 420.623)" >do_ota[1:3]</text>
<text fill="#cccccc"  xml:space="preserve" font-size="8.736" transform="translate(231.333, 469.343)" >IP</text>
<text fill="#cccccc"  xml:space="preserve" font-size="8.736" transform="translate(231.333, 502.943)" >IN</text>
<text fill="#cccccc"  xml:space="preserve" font-size="8.736" transform="translate(309.133, 515.543)" >OUTP</text>
<text fill="#cccccc"  xml:space="preserve" font-size="8.736" transform="translate(270.133, 444.143)" >VDD</text>
<text fill="#cccccc"  xml:space="preserve" font-size="8.736" transform="translate(273.333, 541.643)" >VSS</text>
<text fill="#cccccc"  xml:space="preserve" font-size="8.736" transform="translate(305.133, 444.143)" >VBIAS</text>
<text fill="#cccccc"  xml:space="preserve" font-size="8.736" transform="translate(307.133, 469.343)" >OUTN</text>
<text fill="#cccccc"  xml:space="preserve" font-size="13.104" transform="translate(1381.71, 219.629)" >array_cap_10x1p</text>
<text fill="#cccccc"  xml:space="preserve" font-size="8.736" transform="translate(1440.93, 118.223)" >c_10x1p[1:6]</text>
<text fill="#cccccc"  xml:space="preserve" font-size="8.736" transform="translate(1406.53, 183.743)" >VDDd</text>
<text fill="#cccccc"  xml:space="preserve" font-size="8.736" transform="translate(1408.53, 200.543)" >VSSd</text>
<text fill="#cccccc"  xml:space="preserve" font-size="8.736" transform="translate(1361.73, 133.343)" >CA</text>
<text fill="#cccccc"  xml:space="preserve" font-size="8.736" transform="translate(1361.73, 196.343)" >CB</text>
<text fill="#cccccc"  xml:space="preserve" font-size="8.736" transform="translate(1323.33, 141.743)" >D_in</text>
<text fill="#cccccc"  xml:space="preserve" font-size="8.736" transform="translate(1323.33, 158.543)" >PHI_1</text>
<text fill="#cccccc"  xml:space="preserve" font-size="8.736" transform="translate(1323.33, 175.343)" >PHI_2</text>
<text fill="#cccccc"  xml:space="preserve" font-size="8.736" transform="translate(1323.33, 192.143)" >enable</text>
<text fill="#cccccc"  xml:space="preserve" font-size="8.736" transform="translate(1406.53, 141.743)" >D_out</text>
<text fill="#cccccc"  xml:space="preserve" font-size="8.736" transform="translate(1370.13, 393.743)" >RA</text>
<text fill="#cccccc"  xml:space="preserve" font-size="8.736" transform="translate(1370.13, 456.743)" >RB</text>
<text fill="#cccccc"  xml:space="preserve" font-size="8.736" transform="translate(1422.93, 427.343)" >VSS</text>
<text fill="#cccccc"  xml:space="preserve" font-size="13.104" transform="translate(1390.11, 480.029)" >array_res_10x1k</text>
<text fill="#cccccc"  xml:space="preserve" font-size="8.736" transform="translate(1449.33, 378.623)" >r_10x1k[1:6]</text>
<text fill="#cccccc"  xml:space="preserve" font-size="8.736" transform="translate(1414.93, 444.143)" >VDDd</text>
<text fill="#cccccc"  xml:space="preserve" font-size="8.736" transform="translate(1416.93, 460.943)" >VSSd</text>
<text fill="#cccccc"  xml:space="preserve" font-size="8.736" transform="translate(1331.73, 402.143)" >D_in</text>
<text fill="#cccccc"  xml:space="preserve" font-size="8.736" transform="translate(1331.73, 418.943)" >PHI_1</text>
<text fill="#cccccc"  xml:space="preserve" font-size="8.736" transform="translate(1331.73, 435.743)" >PHI_2</text>
<text fill="#cccccc"  xml:space="preserve" font-size="8.736" transform="translate(1331.73, 452.543)" >enable</text>
<text fill="#cccccc"  xml:space="preserve" font-size="8.736" transform="translate(1414.93, 402.143)" >D_out</text>
<text fill="#cccccc"  xml:space="preserve" font-size="8.736" transform="translate(1370.13, 654.143)" >RA</text>
<text fill="#cccccc"  xml:space="preserve" font-size="8.736" transform="translate(1370.13, 717.143)" >RB</text>
<text fill="#cccccc"  xml:space="preserve" font-size="8.736" transform="translate(1422.93, 687.743)" >VSS</text>
<text fill="#cccccc"  xml:space="preserve" font-size="13.104" transform="translate(1390.11, 740.429)" >array_res_10x10k</text>
<text fill="#cccccc"  xml:space="preserve" font-size="8.736" transform="translate(1449.33, 639.023)" >r_10x10k[1:6]</text>
<text fill="#cccccc"  xml:space="preserve" font-size="8.736" transform="translate(1414.93, 704.543)" >VDDd</text>
<text fill="#cccccc"  xml:space="preserve" font-size="8.736" transform="translate(1416.93, 721.343)" >VSSd</text>
<text fill="#cccccc"  xml:space="preserve" font-size="8.736" transform="translate(1331.73, 662.543)" >D_in</text>
<text fill="#cccccc"  xml:space="preserve" font-size="8.736" transform="translate(1331.73, 679.343)" >PHI_1</text>
<text fill="#cccccc"  xml:space="preserve" font-size="8.736" transform="translate(1331.73, 696.143)" >PHI_2</text>
<text fill="#cccccc"  xml:space="preserve" font-size="8.736" transform="translate(1331.73, 712.943)" >enable</text>
<text fill="#cccccc"  xml:space="preserve" font-size="8.736" transform="translate(1414.93, 662.543)" >D_out</text>
<text fill="#cccccc"  xml:space="preserve" font-size="13.104" transform="translate(747.093, 194.429)" >swmatrix_10x57</text>
<text fill="#cccccc"  xml:space="preserve" font-size="8.736" transform="translate(928.533, 143.423)" >swmatrix</text>
<text fill="#cccccc"  xml:space="preserve" font-size="8.736" transform="translate(894.133, 158.543)" >VDDd</text>
<text fill="#cccccc"  xml:space="preserve" font-size="8.736" transform="translate(896.133, 175.343)" >VSSd</text>
<text fill="#cccccc"  xml:space="preserve" font-size="8.736" transform="translate(875.133, 192.143)" >BUS[1:10]</text>
<text fill="#cccccc"  xml:space="preserve" font-size="8.736" transform="translate(878.133, 208.943)" >PIN[1:57]</text>
<text fill="#cccccc"  xml:space="preserve" font-size="8.736" transform="translate(710.133, 158.543)" >D_in</text>
<text fill="#cccccc"  xml:space="preserve" font-size="8.736" transform="translate(710.133, 175.343)" >PHI_1</text>
<text fill="#cccccc"  xml:space="preserve" font-size="8.736" transform="translate(710.133, 192.143)" >PHI_2</text>
<text fill="#cccccc"  xml:space="preserve" font-size="8.736" transform="translate(710.133, 208.943)" >enable</text>
<text fill="#cccccc"  xml:space="preserve" font-size="8.736" transform="translate(894.133, 225.743)" >D_out</text>
<text fill="#00ccee"  xml:space="preserve" font-size="14.4144" transform="translate(626.033, 193.834)" >PHI_2</text>
<text fill="#00ccee"  xml:space="preserve" font-size="14.4144" transform="translate(626.033, 177.034)" >PHI_1</text>
<text fill="#00ccee"  xml:space="preserve" font-size="14.4144" transform="translate(635.033, 160.234)" >D_in</text>
<text fill="#00ccee"  xml:space="preserve" font-size="14.4144" transform="translate(617.033, 210.634)" >enable</text>
<text fill="#00ccee"  xml:space="preserve" font-size="14.4144" transform="translate(964.233, 177.034)" >VSSd</text>
<text fill="#00ccee"  xml:space="preserve" font-size="14.4144" transform="translate(964.233, 160.234)" >VDDd</text>
<text fill="#00ccee"  xml:space="preserve" font-size="14.4144" transform="translate(964.233, 193.834)" >GPIO_A[9:0]</text>
<text fill="#00ccee"  xml:space="preserve" font-size="14.4144" transform="translate(964.233, 210.634)" >int_pin[1:57]</text>
<text fill="#00ccee"  xml:space="preserve" font-size="14.4144" transform="translate(384.633, 193.834)" >int_pin[1:7:3]</text>
<text fill="#00ccee"  xml:space="preserve" font-size="14.4144" transform="translate(107.033, 210.634)" >int_pin[2:8:3]</text>
<text fill="#00ccee"  xml:space="preserve" font-size="14.4144" transform="translate(107.033, 177.034)" >int_pin[3:9:3]</text>
<text fill="#00ccee"  xml:space="preserve" font-size="14.4144" transform="translate(393.033, 513.034)" >int_pin[11:19:4]</text>
<text fill="#00ccee"  xml:space="preserve" font-size="14.4144" transform="translate(393.033, 479.434)" >int_pin[10:18:4]</text>
<text fill="#00ccee"  xml:space="preserve" font-size="14.4144" transform="translate(72.2333, 513.034)" >int_pin[12:20:4]</text>
<text fill="#00ccee"  xml:space="preserve" font-size="14.4144" transform="translate(72.2333, 479.434)" >int_pin[13:21:4]</text>
<text fill="#00ccee"  xml:space="preserve" font-size="14.4144" transform="translate(1256.63, 109.834)" >int_pin[22:32:2]</text>
<text fill="#00ccee"  xml:space="preserve" font-size="14.4144" transform="translate(1256.63, 227.434)" >int_pin[23:33:2]</text>
<text fill="#00ccee"  xml:space="preserve" font-size="14.4144" transform="translate(964.233, 227.434)" >D_out_swmatrix</text>
<text fill="#00ccee"  xml:space="preserve" font-size="14.4144" transform="translate(1239.23, 177.034)" >PHI_2</text>
<text fill="#00ccee"  xml:space="preserve" font-size="14.4144" transform="translate(1239.23, 160.234)" >PHI_1</text>
<text fill="#00ccee"  xml:space="preserve" font-size="14.4144" transform="translate(1230.23, 193.834)" >enable</text>
<text fill="#00ccee"  xml:space="preserve" font-size="14.4144" transform="translate(1476.63, 202.234)" >VSSd</text>
<text fill="#00ccee"  xml:space="preserve" font-size="14.4144" transform="translate(1476.63, 185.434)" >VDDd</text>
<text fill="#00ccee"  xml:space="preserve" font-size="14.4144" transform="translate(1476.63, 143.434)" >D_out_caparray</text>
<text fill="#00ccee"  xml:space="preserve" font-size="14.4144" transform="translate(1162.23, 143.434)" >D_out_swmatrix</text>
<text fill="#00ccee"  xml:space="preserve" font-size="14.4144" transform="translate(1265.03, 370.234)" >int_pin[34:44:2]</text>
<text fill="#00ccee"  xml:space="preserve" font-size="14.4144" transform="translate(1265.03, 487.834)" >int_pin[35:45:2]</text>
<text fill="#00ccee"  xml:space="preserve" font-size="14.4144" transform="translate(1265.03, 630.634)" >int_pin[46:56:2]</text>
<text fill="#00ccee"  xml:space="preserve" font-size="14.4144" transform="translate(1265.03, 748.234)" >int_pin[47:57:2]</text>
<text fill="#00ccee"  xml:space="preserve" font-size="14.4144" transform="translate(1247.63, 437.434)" >PHI_2</text>
<text fill="#00ccee"  xml:space="preserve" font-size="14.4144" transform="translate(1247.63, 420.634)" >PHI_1</text>
<text fill="#00ccee"  xml:space="preserve" font-size="14.4144" transform="translate(1238.63, 454.234)" >enable</text>
<text fill="#00ccee"  xml:space="preserve" font-size="14.4144" transform="translate(1247.63, 697.834)" >PHI_2</text>
<text fill="#00ccee"  xml:space="preserve" font-size="14.4144" transform="translate(1247.63, 681.034)" >PHI_1</text>
<text fill="#00ccee"  xml:space="preserve" font-size="14.4144" transform="translate(1238.63, 714.634)" >enable</text>
<text fill="#00ccee"  xml:space="preserve" font-size="14.4144" transform="translate(1173.63, 403.834)" >D_out_caparray</text>
<text fill="#00ccee"  xml:space="preserve" font-size="14.4144" transform="translate(1485.03, 462.634)" >VSSd</text>
<text fill="#00ccee"  xml:space="preserve" font-size="14.4144" transform="translate(1485.03, 445.834)" >VDDd</text>
<text fill="#00ccee"  xml:space="preserve" font-size="14.4144" transform="translate(1485.03, 723.034)" >VSSd</text>
<text fill="#00ccee"  xml:space="preserve" font-size="14.4144" transform="translate(1485.03, 706.234)" >VDDd</text>
<text fill="#00ccee"  xml:space="preserve" font-size="14.4144" transform="translate(1485.03, 403.834)" >D_out_resarray</text>
<text fill="#00ccee"  xml:space="preserve" font-size="14.4144" transform="translate(1176.63, 664.234)" >D_out_resarray</text>
<text fill="#00ccee"  xml:space="preserve" font-size="14.4144" transform="translate(1485.03, 429.034)" >VSS</text>
<text fill="#00ccee"  xml:space="preserve" font-size="14.4144" transform="translate(1485.03, 689.434)" >VSS</text>
<text fill="#00ccee"  xml:space="preserve" font-size="14.4144" transform="translate(251.633, 286.234)" >VSS</text>
<text fill="#00ccee"  xml:space="preserve" font-size="14.4144" transform="translate(247.633, 101.434)" >VDD</text>
<text fill="#00ccee"  xml:space="preserve" font-size="14.4144" transform="translate(325.833, 101.434)" >I_BIAS_1</text>
<text fill="#00ccee"  xml:space="preserve" font-size="14.4144" transform="translate(325.833, 403.834)" >I_BIAS_2</text>
<text fill="#00ccee"  xml:space="preserve" font-size="14.4144" transform="translate(247.633, 403.834)" >VDD</text>
<text fill="#00ccee"  xml:space="preserve" font-size="14.4144" transform="translate(251.633, 588.634)" >VSS</text>
<text fill="#cccccc"  xml:space="preserve" font-size="17.472" transform="translate(340.533, 846.035)" >         libs/core_filter_block/filter_block_6_ota/filter_block_6_ota.sch</text>
<text fill="#cccccc"  xml:space="preserve" font-size="17.472" transform="translate(340.533, 820.835)" >CreActive</text>
<text fill="#cccccc"  xml:space="preserve" font-size="17.472" transform="translate(809.933, 820.835)" >2025-08-18  17:05:24</text>
<text fill="#cccccc"  xml:space="preserve" font-size="43.68" transform="translate(147.333, 844.632)" >SCHEM</text>
<text fill="#00ccee"  xml:space="preserve" font-size="14.4144" transform="translate(672.202, 478.384)" >VDDd</text>
<text fill="#00ccee"  xml:space="preserve" font-size="14.4144" transform="translate(672.202, 495.184)" >VSSd</text>
<text fill="#00ccee"  xml:space="preserve" font-size="14.4144" transform="translate(672.202, 511.984)" >VDD</text>
<text fill="#00ccee"  xml:space="preserve" font-size="14.4144" transform="translate(672.202, 528.784)" >VSS</text>
<text fill="#00ccee"  xml:space="preserve" font-size="14.4144" transform="translate(827.183, 478.909)" >D_in</text>
<text fill="#00ccee"  xml:space="preserve" font-size="14.4144" transform="translate(818.183, 495.709)" >PHI_1</text>
<text fill="#00ccee"  xml:space="preserve" font-size="14.4144" transform="translate(818.183, 512.509)" >PHI_2</text>
<text fill="#00ccee"  xml:space="preserve" font-size="14.4144" transform="translate(809.183, 529.309)" >enable</text>
<text fill="#00ccee"  xml:space="preserve" font-size="14.4144" transform="translate(957.802, 453.184)" >GPIO_A[9:0]</text>
<text fill="#00ccee"  xml:space="preserve" font-size="14.4144" transform="translate(957.802, 537.184)" >I_BIAS_1</text>
<text fill="#00ccee"  xml:space="preserve" font-size="14.4144" transform="translate(957.802, 562.384)" >I_BIAS_2</text>
<path class="l1" d="M672.333 187.571L689.133 187.571"/>
<path class="l1" d="M672.333 170.771L689.133 170.771"/>
<path class="l1" d="M672.333 153.971L689.133 153.971"/>
<path class="l1" d="M672.333 204.371L689.133 204.371"/>
<path class="l1" d="M941.133 153.971L957.933 153.971"/>
<path class="l1" d="M941.133 170.771L957.933 170.771"/>
<path class="l1" d="M941.133 187.571L957.933 187.571"/>
<path class="l1" d="M941.133 204.371L957.933 204.371"/>
<path class="l1" d="M361.533 187.571L378.333 187.571"/>
<path class="l1" d="M369.933 506.771L386.733 506.771"/>
<path class="l1" d="M369.933 473.171L386.733 473.171"/>
<path class="l1" d="M193.533 506.771L210.333 506.771"/>
<path class="l1" d="M193.533 473.171L210.333 473.171"/>
<path class="l1" d="M941.133 221.171L957.933 221.171"/>
<path class="l1" d="M1285.53 170.771L1302.33 170.771"/>
<path class="l1" d="M1285.53 153.971L1302.33 153.971"/>
<path class="l1" d="M1285.53 137.171L1302.33 137.171"/>
<path class="l1" d="M1285.53 187.571L1302.33 187.571"/>
<path class="l1" d="M1453.53 137.171L1470.33 137.171"/>
<path class="l1" d="M1453.53 179.171L1470.33 179.171"/>
<path class="l1" d="M1453.53 195.971L1470.33 195.971"/>
<path class="l1" d="M1293.93 431.171L1310.73 431.171"/>
<path class="l1" d="M1293.93 414.371L1310.73 414.371"/>
<path class="l1" d="M1293.93 397.571L1310.73 397.571"/>
<path class="l1" d="M1293.93 447.971L1310.73 447.971"/>
<path class="l1" d="M1293.93 691.571L1310.73 691.571"/>
<path class="l1" d="M1293.93 674.771L1310.73 674.771"/>
<path class="l1" d="M1293.93 657.971L1310.73 657.971"/>
<path class="l1" d="M1293.93 708.371L1310.73 708.371"/>
<path class="l1" d="M1461.93 439.571L1478.73 439.571"/>
<path class="l1" d="M1461.93 456.371L1478.73 456.371"/>
<path class="l1" d="M1461.93 699.971L1478.73 699.971"/>
<path class="l1" d="M1461.93 716.771L1478.73 716.771"/>
<path class="l1" d="M1461.93 397.571L1478.73 397.571"/>
<path class="l1" d="M1461.93 422.771L1478.73 422.771"/>
<path class="l1" d="M1461.93 683.171L1478.73 683.171"/>
<path class="l1" d="M285.933 263.171L285.933 279.971"/>
<path class="l1" d="M285.933 95.1708L285.933 111.971"/>
<path class="l1" d="M319.533 95.1708L319.533 111.971"/>
<path class="l1" d="M319.533 397.571L319.533 414.371"/>
<path class="l1" d="M285.933 397.571L285.933 414.371"/>
<path class="l1" d="M285.933 565.571L285.933 582.371"/>
<text fill="#cccccc"  xml:space="preserve" font-size="17.472" transform="translate(1134.33, 52.2354)" >6 Blocks of 10 x 1pF Capacitor Array</text>
<text fill="#cccccc"  xml:space="preserve" font-size="17.472" transform="translate(1134.33, 312.635)" >6 Blocks of 10 x 1k Ohm Resistor Array</text>
<text fill="#cccccc"  xml:space="preserve" font-size="17.472" transform="translate(1134.33, 573.035)" >6 Blocks of 10 x 10k Ohm Resistor Array</text>
<text fill="#cccccc"  xml:space="preserve" font-size="17.472" transform="translate(42.3333, 52.2354)" >3 Blocks of Single Ended OTA</text>
<text fill="#cccccc"  xml:space="preserve" font-size="17.472" transform="translate(42.3333, 354.635)" >3 Blocks of Differential Output OTA</text>
<text fill="#cccccc"  xml:space="preserve" font-size="17.472" transform="translate(588.333, 52.2354)" >10 Bus, 57 Pins, 10x57 Switch Matrix</text>
<text fill="#cccccc"  xml:space="preserve" font-size="17.472" transform="translate(588.333, 354.635)" >Pinouts</text>
<text fill="#cccccc"  xml:space="preserve" font-size="17.472" transform="translate(621.933, 413.435)" >Power</text>
<text fill="#cccccc"  xml:space="preserve" font-size="17.472" transform="translate(773.133, 413.435)" >Digital Input</text>
<text fill="#cccccc"  xml:space="preserve" font-size="17.472" transform="translate(924.333, 413.435)" >Analog GPIO</text>
<text fill="#cccccc"  xml:space="preserve" font-size="17.472" transform="translate(924.333, 497.435)" >Current Bias</text>
</svg>
