<svg xmlns="http://www.w3.org/2000/svg" xmlns:xlink="http://www.w3.org/1999/xlink" width="1680" height="897" version="1.1">
<style type="text/css">
.l0{
  fill: #000000;
  stroke: #000000;
  stroke-linecap:round;
  stroke-linejoin:round;
  stroke-width: 0.906025;
}
.l1{
  fill: #00ccee;
  stroke: #00ccee;
  stroke-linecap:round;
  stroke-linejoin:round;
  stroke-width: 0.906025;
}
.l2{
  fill: #4f4f4f; fill-opacity: 0.2;
  stroke: #4f4f4f;
  stroke-linecap:round;
  stroke-linejoin:round;
  stroke-width: 0.906025;
}
.l3{
  fill: #cccccc; fill-opacity: 0.5;
  stroke: #cccccc;
  stroke-linecap:round;
  stroke-linejoin:round;
  stroke-width: 0.906025;
}
.l4{
  fill: #88dd00;
  stroke: #88dd00;
  stroke-linecap:round;
  stroke-linejoin:round;
  stroke-width: 0.906025;
}
.l5{
  fill: #bb2200;
  stroke: #bb2200;
  stroke-linecap:round;
  stroke-linejoin:round;
  stroke-width: 0.906025;
}
.l6{
  fill: #00ccee; fill-opacity: 0.5;
  stroke: #00ccee;
  stroke-linecap:round;
  stroke-linejoin:round;
  stroke-width: 0.906025;
}
.l7{
  fill: #ff0000; fill-opacity: 0.5;
  stroke: #ff0000;
  stroke-linecap:round;
  stroke-linejoin:round;
  stroke-width: 0.906025;
}
.l8{
  fill: #ffff00; fill-opacity: 0.5;
  stroke: #ffff00;
  stroke-linecap:round;
  stroke-linejoin:round;
  stroke-width: 0.906025;
}
.l9{
  fill: #ffffff; fill-opacity: 0.5;
  stroke: #ffffff;
  stroke-linecap:round;
  stroke-linejoin:round;
  stroke-width: 0.906025;
}
.l10{
  fill: #ff00ff;
  stroke: #ff00ff;
  stroke-linecap:round;
  stroke-linejoin:round;
  stroke-width: 0.906025;
}
.l11{
  fill: #00ff00; fill-opacity: 0.5;
  stroke: #00ff00;
  stroke-linecap:round;
  stroke-linejoin:round;
  stroke-width: 0.906025;
}
.l12{
  fill: #0044ff; fill-opacity: 0.5;
  stroke: #0044ff;
  stroke-linecap:round;
  stroke-linejoin:round;
  stroke-width: 0.906025;
}
.l13{
  fill: #aaaa00; fill-opacity: 0.5;
  stroke: #aaaa00;
  stroke-linecap:round;
  stroke-linejoin:round;
  stroke-width: 0.906025;
}
.l14{
  fill: #aaccaa; fill-opacity: 0.2;
  stroke: #aaccaa;
  stroke-linecap:round;
  stroke-linejoin:round;
  stroke-width: 0.906025;
}
.l15{
  fill: #ff7777; fill-opacity: 0.5;
  stroke: #ff7777;
  stroke-linecap:round;
  stroke-linejoin:round;
  stroke-width: 0.906025;
}
.l16{
  fill: #bfff81; fill-opacity: 0.5;
  stroke: #bfff81;
  stroke-linecap:round;
  stroke-linejoin:round;
  stroke-width: 0.906025;
}
.l17{
  fill: #00ffcc; fill-opacity: 0.2;
  stroke: #00ffcc;
  stroke-linecap:round;
  stroke-linejoin:round;
  stroke-width: 0.906025;
}
.l18{
  fill: #ce0097; fill-opacity: 0.5;
  stroke: #ce0097;
  stroke-linecap:round;
  stroke-linejoin:round;
  stroke-width: 0.906025;
}
.l19{
  fill: #d2d46b; fill-opacity: 0.2;
  stroke: #d2d46b;
  stroke-linecap:round;
  stroke-linejoin:round;
  stroke-width: 0.906025;
}
.l20{
  fill: #ef6158; fill-opacity: 0.2;
  stroke: #ef6158;
  stroke-linecap:round;
  stroke-linejoin:round;
  stroke-width: 0.906025;
}
.l21{
  fill: #fdb200; fill-opacity: 0.2;
  stroke: #fdb200;
  stroke-linecap:round;
  stroke-linejoin:round;
  stroke-width: 0.906025;
}
text {font-family: Sans-Serif;}
</style>
<rect class="l0" x="0" y="0" width="1680" height="897"/>
<path class="l4" stroke-dasharray="9.39582,9.39582" d="M1125.42 370.956L1125.42 438.069"/>
<path class="l4" stroke-dasharray="9.39582,9.39582" d="M1299.91 357.533L1420.71 357.533"/>
<path class="l4" stroke-dasharray="9.39582,9.39582" d="M1125.42 370.956L1179.11 370.956"/>
<path class="l4" stroke-dasharray="9.39582,9.39582" d="M1078.44 344.11L1179.11 344.11"/>
<path class="l4" stroke-dasharray="9.39582,9.39582" d="M944.212 109.215L977.769 109.215"/>
<path class="l4" stroke-dasharray="9.39582,9.39582" d="M816.698 109.215L850.254 109.215"/>
<path class="l4" stroke-dasharray="9.39582,9.39582" d="M1420.71 357.533L1541.52 357.533"/>
<path class="l4" stroke-dasharray="9.39582,9.39582" d="M1481.12 357.533L1481.12 485.048"/>
<path class="l4" stroke-dasharray="9.39582,9.39582" d="M1125.42 438.069L1125.42 485.048"/>
<path class="l4" stroke-dasharray="9.39582,9.39582" d="M1125.42 485.048L1481.12 485.048"/>
<path class="l4" stroke-dasharray="9.39582,9.39582" d="M675.76 344.11L1078.44 344.11"/>
<path class="l4" stroke-dasharray="9.39582,9.39582" d="M320.061 344.11L514.689 344.11"/>
<path class="l4" stroke-dasharray="9.39582,9.39582" d="M924.078 344.11L924.078 404.512"/>
<path class="l4" stroke-dasharray="9.39582,9.39582" d="M924.078 565.583L924.078 625.985"/>
<path class="l4" stroke-dasharray="9.39582,9.39582" d="M514.689 344.11L548.246 344.11"/>
<path class="l4" stroke-dasharray="9.39582,9.39582" d="M642.204 344.11L675.76 344.11"/>
<path class="l4" stroke-dasharray="9.39582,9.39582" d="M414.02 109.215L816.698 109.215"/>
<path class="l4" stroke-dasharray="9.39582,9.39582" d="M977.769 109.215L1481.12 109.215"/>
<path class="l4" stroke-dasharray="9.39582,9.39582" d="M414.02 109.215L414.02 344.11"/>
<path class="l4" stroke-dasharray="9.39582,9.39582" d="M1481.12 109.215L1481.12 357.533"/>
<path class="l4" stroke-dasharray="9.39582,9.39582" d="M38.187 344.11L158.99 344.11"/>
<path class="l4" stroke-dasharray="9.39582,9.39582" d="M924.078 532.027L924.078 565.583"/>
<path class="l4" stroke-dasharray="9.39582,9.39582" d="M924.078 404.512L924.078 438.069"/>
<path class="l4" stroke-dasharray="9.39582,9.39582" d="M158.99 344.11L192.547 344.11"/>
<path class="l4" stroke-dasharray="9.39582,9.39582" d="M286.505 344.11L320.061 344.11"/>
<path class="l4" d="M1122.06 434.713L1128.77 434.713L1128.77 441.424L1122.06 441.424L1122.06 434.713z"/>
<path class="l4" d="M1417.36 354.177L1424.07 354.177L1424.07 360.889L1417.36 360.889L1417.36 354.177z"/>
<path class="l4" d="M1075.08 340.755L1081.79 340.755L1081.79 347.466L1075.08 347.466L1075.08 340.755z"/>
<path class="l4" d="M974.413 105.859L981.124 105.859L981.124 112.571L974.413 112.571L974.413 105.859z"/>
<path class="l4" d="M920.723 401.157L927.434 401.157L927.434 407.868L920.723 407.868L920.723 401.157z"/>
<path class="l4" d="M920.723 562.228L927.434 562.228L927.434 568.939L920.723 568.939L920.723 562.228z"/>
<path class="l4" d="M511.333 340.755L518.045 340.755L518.045 347.466L511.333 347.466L511.333 340.755z"/>
<path class="l4" d="M672.405 340.755L679.116 340.755L679.116 347.466L672.405 347.466L672.405 340.755z"/>
<path class="l4" d="M813.342 105.859L820.053 105.859L820.053 112.571L813.342 112.571L813.342 105.859z"/>
<path class="l4" d="M155.635 340.755L162.346 340.755L162.346 347.466L155.635 347.466L155.635 340.755z"/>
<path class="l4" d="M316.706 340.755L323.417 340.755L323.417 347.466L316.706 347.466L316.706 340.755z"/>
<path class="l4" style="fill:none;" d="M1078.44 230.018L1078.44 438.069L1420.71 438.069L1420.71 230.018L1078.44 230.018"/>
<path class="l4" style="fill:none;" d="M1038.17 404.512L702.605 404.512L702.605 565.583L1038.17 565.583L1038.17 404.512"/>
<path class="l4" style="fill:none;" d="M816.698 -4.87702L816.698 330.688L977.769 330.688L977.769 -4.87702L816.698 -4.87702"/>
<path class="l4" style="fill:none;" d="M514.689 525.316L675.76 525.316L675.76 216.596L514.689 216.596L514.689 525.316"/>
<path class="l4" style="fill:none;" d="M179.124 659.541L179.124 1122.62L434.154 1122.62L434.154 659.541L179.124 659.541"/>
<path class="l4" style="fill:none;" d="M447.576 659.541L447.576 1122.62L702.605 1122.62L702.605 659.541L447.576 659.541"/>
<path class="l4" style="fill:none;" d="M716.028 659.541L716.028 1122.62L971.057 1122.62L971.057 659.541L716.028 659.541"/>
<path class="l4" style="fill:none;" d="M984.48 659.541L984.48 1122.62L1239.51 1122.62L1239.51 659.541L984.48 659.541"/>
<path class="l4" style="fill:none;" d="M1252.93 659.541L1252.93 1122.62L1507.96 1122.62L1507.96 659.541L1252.93 659.541"/>
<path class="l4" style="fill:none;" d="M158.99 525.316L320.061 525.316L320.061 216.596L158.99 216.596L158.99 525.316"/>
<path class="l4" d="M1179.11 344.11L1192.53 344.11"/>
<path class="l4" d="M1179.11 370.956L1192.53 370.956"/>
<path class="l4" d="M1266.35 297.131L1266.35 310.554"/>
<path class="l4" d="M1286.49 357.533L1299.91 357.533"/>
<path class="l4" d="M1212.66 370.956L1226.09 370.956"/>
<path class="l4" d="M1219.38 337.399L1219.38 350.822"/>
<path class="l4" d="M1212.66 344.11L1226.09 344.11"/>
<path class="l4" d="M1279.78 357.533L1286.49 357.533"/>
<path class="l4" d="M1192.53 344.11L1205.95 344.11"/>
<path class="l4" d="M1192.53 370.956L1205.95 370.956"/>
<path class="l4" style="fill:none;" d="M1205.95 317.265L1205.95 397.801L1279.78 357.533L1205.95 317.265"/>
<path class="l4" style="fill:none;" d="M1192.53 310.554L1286.49 310.554L1286.49 404.512L1192.53 404.512L1192.53 310.554"/>
<path class="l4" d="M232.815 706.521L246.237 706.521"/>
<path class="l4" d="M232.815 719.943L246.237 719.943"/>
<path class="l4" style="fill:none;" d="M340.195 699.809L246.237 699.809L246.237 753.5L340.195 753.5L340.195 699.809"/>
<path class="l4" d="M1266.35 256.864L1266.35 266.931"/>
<path class="l4" d="M1266.35 287.064L1266.35 297.131"/>
<path class="l4" d="M1268.03 261.897L1271.39 261.897"/>
<path class="l4" d="M1269.71 260.219L1269.71 263.575"/>
<path class="l4" d="M1266.35 271.964L1266.35 278.675L1268.03 278.675L1266.35 283.709L1264.68 278.675L1266.35 278.675L1266.35 271.964"/>
<circle class="l4" cx="1266.35" cy="276.997" r="10.0669" style="fill:none;" />
<path class="l4" d="M890.522 156.194L890.522 169.617"/>
<path class="l4" d="M903.944 156.194L903.944 169.617"/>
<path class="l4" d="M908.978 104.182L910.656 109.215"/>
<path class="l4" d="M905.622 114.249L908.978 104.182"/>
<path class="l4" d="M902.267 104.182L905.622 114.249"/>
<path class="l4" d="M898.911 114.249L902.267 104.182"/>
<path class="l4" d="M895.555 104.182L898.911 114.249"/>
<path class="l4" d="M892.2 114.249L895.555 104.182"/>
<path class="l4" d="M888.844 104.182L892.2 114.249"/>
<path class="l4" d="M885.488 114.249L888.844 104.182"/>
<path class="l4" d="M883.811 109.215L885.488 114.249"/>
<path class="l4" d="M850.254 109.215L863.677 109.215"/>
<path class="l4" d="M930.79 109.215L944.212 109.215"/>
<path class="l4" d="M910.656 48.8134L910.656 62.236"/>
<path class="l4" d="M924.078 48.8134L924.078 62.236"/>
<path class="l4" d="M863.677 109.215L883.811 109.215"/>
<path class="l4" d="M897.233 48.8134L897.233 62.236"/>
<path class="l4" d="M893.877 99.1481L897.233 102.504"/>
<path class="l4" d="M897.233 102.504L900.589 99.1481"/>
<path class="l4" d="M910.656 109.215L917.367 109.215"/>
<path class="l4" d="M924.078 109.215L930.79 109.215"/>
<path class="l4" d="M897.233 92.4368L924.078 92.4368"/>
<path class="l4" d="M924.078 92.4368L924.078 109.215"/>
<path class="l4" d="M897.233 92.4368L897.233 102.504"/>
<path class="l4" style="fill:none;" d="M863.677 62.236L863.677 156.194L930.79 156.194L930.79 62.236L863.677 62.236"/>
<path class="l4" d="M588.513 391.09L588.513 404.512"/>
<path class="l4" d="M601.936 391.09L601.936 404.512"/>
<path class="l4" d="M591.869 334.044L591.869 354.177"/>
<path class="l4" d="M598.58 334.044L598.58 354.177"/>
<path class="l4" d="M585.158 334.044L605.292 354.177"/>
<path class="l4" d="M585.158 334.044L585.158 337.399"/>
<path class="l4" d="M585.158 334.044L588.513 334.044"/>
<path class="l4" d="M561.668 344.11L591.869 344.11"/>
<path class="l4" d="M598.58 344.11L628.781 344.11"/>
<path class="l4" d="M548.246 344.11L561.668 344.11"/>
<path class="l4" d="M628.781 344.11L642.204 344.11"/>
<path class="l4" d="M608.647 283.709L608.647 297.131"/>
<path class="l4" d="M622.07 283.709L622.07 297.131"/>
<path class="l4" style="fill:none;" d="M561.668 297.131L561.668 391.09L628.781 391.09L628.781 297.131L561.668 297.131"/>
<path class="l4" d="M501.267 706.521L514.689 706.521"/>
<path class="l4" d="M501.267 719.943L514.689 719.943"/>
<path class="l4" style="fill:none;" d="M608.647 699.809L514.689 699.809L514.689 753.5L608.647 753.5L608.647 699.809"/>
<path class="l4" d="M769.718 706.521L783.141 706.521"/>
<path class="l4" d="M769.718 719.943L783.141 719.943"/>
<path class="l4" style="fill:none;" d="M877.099 699.809L783.141 699.809L783.141 753.5L877.099 753.5L877.099 699.809"/>
<path class="l4" d="M1038.17 706.521L1051.59 706.521"/>
<path class="l4" d="M1038.17 719.943L1051.59 719.943"/>
<path class="l4" style="fill:none;" d="M1145.55 699.809L1051.59 699.809L1051.59 753.5L1145.55 753.5L1145.55 699.809"/>
<path class="l4" d="M1306.62 706.521L1320.04 706.521"/>
<path class="l4" d="M1306.62 719.943L1320.04 719.943"/>
<path class="l4" style="fill:none;" d="M1414 699.809L1320.04 699.809L1320.04 753.5L1414 753.5L1414 699.809"/>
<path class="l4" d="M501.267 773.634L514.689 773.634"/>
<path class="l4" d="M501.267 787.056L514.689 787.056"/>
<path class="l4" style="fill:none;" d="M608.647 766.922L514.689 766.922L514.689 820.613L608.647 820.613L608.647 766.922"/>
<path class="l4" d="M501.267 840.747L514.689 840.747"/>
<path class="l4" d="M501.267 854.169L514.689 854.169"/>
<path class="l4" style="fill:none;" d="M608.647 834.035L514.689 834.035L514.689 887.726L608.647 887.726L608.647 834.035"/>
<path class="l4" d="M1038.17 773.634L1051.59 773.634"/>
<path class="l4" d="M1038.17 787.056L1051.59 787.056"/>
<path class="l4" style="fill:none;" d="M1145.55 766.922L1051.59 766.922L1051.59 820.613L1145.55 820.613L1145.55 766.922"/>
<path class="l4" d="M1038.17 840.747L1051.59 840.747"/>
<path class="l4" d="M1038.17 854.169L1051.59 854.169"/>
<path class="l4" style="fill:none;" d="M1145.55 834.035L1051.59 834.035L1051.59 887.726L1145.55 887.726L1145.55 834.035"/>
<path class="l4" d="M1306.62 773.634L1320.04 773.634"/>
<path class="l4" d="M1306.62 787.056L1320.04 787.056"/>
<path class="l4" style="fill:none;" d="M1414 766.922L1320.04 766.922L1320.04 820.613L1414 820.613L1414 766.922"/>
<path class="l4" d="M863.677 478.336L877.099 478.336"/>
<path class="l4" d="M863.677 491.759L877.099 491.759"/>
<path class="l4" d="M924.078 498.47L929.112 496.793"/>
<path class="l4" d="M919.045 493.437L929.112 496.793"/>
<path class="l4" d="M919.045 493.437L929.112 490.081"/>
<path class="l4" d="M919.045 486.726L929.112 490.081"/>
<path class="l4" d="M919.045 486.726L929.112 483.37"/>
<path class="l4" d="M919.045 480.014L929.112 483.37"/>
<path class="l4" d="M919.045 480.014L929.112 476.659"/>
<path class="l4" d="M919.045 473.303L929.112 476.659"/>
<path class="l4" d="M919.045 473.303L924.078 471.625"/>
<path class="l4" d="M924.078 438.069L924.078 451.491"/>
<path class="l4" d="M924.078 518.604L924.078 532.027"/>
<path class="l4" d="M971.057 498.47L984.48 498.47"/>
<path class="l4" d="M971.057 511.893L984.48 511.893"/>
<path class="l4" d="M924.078 451.491L924.078 471.625"/>
<path class="l4" d="M971.057 485.048L984.48 485.048"/>
<path class="l4" d="M930.79 485.048L934.145 481.692"/>
<path class="l4" d="M930.79 485.048L934.145 488.403"/>
<path class="l4" d="M924.078 498.47L924.078 505.182"/>
<path class="l4" d="M924.078 511.893L924.078 518.604"/>
<path class="l4" d="M940.857 485.048L940.857 511.893"/>
<path class="l4" d="M924.078 511.893L940.857 511.893"/>
<path class="l4" d="M930.79 485.048L940.857 485.048"/>
<path class="l4" style="fill:none;" d="M971.057 451.491L877.099 451.491L877.099 518.604L971.057 518.604L971.057 451.491"/>
<path class="l4" d="M1306.62 840.747L1320.04 840.747"/>
<path class="l4" d="M1306.62 854.169L1320.04 854.169"/>
<path class="l4" style="fill:none;" d="M1414 834.035L1320.04 834.035L1320.04 887.726L1414 887.726L1414 834.035"/>
<path class="l4" d="M232.815 391.09L232.815 404.512"/>
<path class="l4" d="M246.237 391.09L246.237 404.512"/>
<path class="l4" d="M236.17 334.044L236.17 354.177"/>
<path class="l4" d="M242.882 334.044L242.882 354.177"/>
<path class="l4" d="M229.459 334.044L249.593 354.177"/>
<path class="l4" d="M229.459 334.044L229.459 337.399"/>
<path class="l4" d="M229.459 334.044L232.815 334.044"/>
<path class="l4" d="M205.969 344.11L236.17 344.11"/>
<path class="l4" d="M242.882 344.11L273.082 344.11"/>
<path class="l4" d="M192.547 344.11L205.969 344.11"/>
<path class="l4" d="M273.082 344.11L286.505 344.11"/>
<path class="l4" d="M252.948 283.709L252.948 297.131"/>
<path class="l4" d="M266.371 283.709L266.371 297.131"/>
<path class="l4" style="fill:none;" d="M205.969 297.131L205.969 391.09L273.082 391.09L273.082 297.131L205.969 297.131"/>
<path class="l4" d="M1348.57 282.031L1348.57 312.232"/>
<path class="l4" d="M1340.18 276.997L1340.18 285.387"/>
<path class="l4" d="M1340.18 308.876L1340.18 323.977"/>
<path class="l4" d="M1351.92 287.064L1351.92 307.198"/>
<path class="l4" d="M1340.18 285.387L1348.57 285.387"/>
<path class="l4" d="M1343.53 308.876L1348.57 308.876"/>
<path class="l4" d="M1351.92 297.131L1365.35 297.131"/>
<path class="l4" d="M1340.18 323.977L1340.18 337.399"/>
<path class="l4" d="M1340.18 243.441L1340.18 263.575"/>
<path class="l4" style="fill:none;" d="M1377.09 256.864L1326.76 256.864L1326.76 323.977L1377.09 323.977L1377.09 256.864"/>
<path class="l4" d="M1343.53 307.198L1340.18 308.876L1343.53 310.554L1343.53 307.198"/>
<path class="l4" style="fill:none;" d="M1367.02 297.131"/>
<path class="l4" style="fill:none;" d="M1365.35 297.131L1365.35 270.286L1340.18 270.286L1340.18 276.997"/>
<path class="l4" style="fill:none;" d="M1340.18 263.575L1340.18 270.286"/>
<path class="l5" d="M1177.43 342.433L1180.79 342.433L1180.79 345.788L1177.43 345.788L1177.43 342.433z"/>
<path class="l5" d="M1177.43 369.278L1180.79 369.278L1180.79 372.633L1177.43 372.633L1177.43 369.278z"/>
<path class="l5" d="M1264.68 295.454L1268.03 295.454L1268.03 298.809L1264.68 298.809L1264.68 295.454z"/>
<path class="l5" d="M1298.23 355.855L1301.59 355.855L1301.59 359.211L1298.23 359.211L1298.23 355.855z"/>
<path class="l5" d="M1237.83 295.454L1241.19 295.454L1241.19 298.809L1237.83 298.809L1237.83 295.454z"/>
<path class="l5" d="M1237.83 416.257L1241.19 416.257L1241.19 419.613L1237.83 419.613L1237.83 416.257z"/>
<path class="l5" d="M351.94 704.843L355.296 704.843L355.296 708.198L351.94 708.198L351.94 704.843z"/>
<path class="l5" d="M231.137 704.843L234.492 704.843L234.492 708.198L231.137 708.198L231.137 704.843z"/>
<path class="l5" d="M231.137 718.265L234.492 718.265L234.492 721.621L231.137 721.621L231.137 718.265z"/>
<path class="l5" d="M351.94 718.265L355.296 718.265L355.296 721.621L351.94 721.621L351.94 718.265z"/>
<path class="l5" d="M351.94 731.688L355.296 731.688L355.296 735.044L351.94 735.044L351.94 731.688z"/>
<path class="l5" d="M351.94 745.111L355.296 745.111L355.296 748.466L351.94 748.466L351.94 745.111z"/>
<path class="l5" d="M1299.07 356.694L1300.75 356.694L1300.75 358.372L1299.07 358.372L1299.07 356.694z"/>
<path class="l5" d="M1178.27 370.117L1179.95 370.117L1179.95 371.795L1178.27 371.795L1178.27 370.117z"/>
<path class="l5" d="M1238.67 417.096L1240.35 417.096L1240.35 418.774L1238.67 418.774L1238.67 417.096z"/>
<path class="l5" d="M1238.67 296.292L1240.35 296.292L1240.35 297.97L1238.67 297.97L1238.67 296.292z"/>
<path class="l5" d="M231.976 705.682L233.654 705.682L233.654 707.359L231.976 707.359L231.976 705.682z"/>
<path class="l5" d="M231.976 719.104L233.654 719.104L233.654 720.782L231.976 720.782L231.976 719.104z"/>
<path class="l5" d="M352.779 705.682L354.457 705.682L354.457 707.359L352.779 707.359L352.779 705.682z"/>
<path class="l7" d="M352.779 719.104L354.457 719.104L354.457 720.782L352.779 720.782L352.779 719.104z"/>
<path class="l5" d="M352.779 745.949L354.457 745.949L354.457 747.627L352.779 747.627L352.779 745.949z"/>
<path class="l5" d="M352.779 732.527L354.457 732.527L354.457 734.205L352.779 734.205L352.779 732.527z"/>
<path class="l5" d="M1264.68 255.186L1268.03 255.186L1268.03 258.541L1264.68 258.541L1264.68 255.186z"/>
<path class="l5" d="M1264.68 295.454L1268.03 295.454L1268.03 298.809L1264.68 298.809L1264.68 295.454z"/>
<path class="l5" d="M1265.52 256.025L1267.19 256.025L1267.19 257.703L1265.52 257.703L1265.52 256.025z"/>
<path class="l5" d="M1178.27 343.272L1179.95 343.272L1179.95 344.949L1178.27 344.949L1178.27 343.272z"/>
<path class="l5" d="M888.844 167.939L892.2 167.939L892.2 171.295L888.844 171.295L888.844 167.939z"/>
<path class="l5" d="M902.267 167.939L905.622 167.939L905.622 171.295L902.267 171.295L902.267 167.939z"/>
<path class="l5" d="M848.576 107.537L851.932 107.537L851.932 110.893L848.576 110.893L848.576 107.537z"/>
<path class="l5" d="M942.534 107.537L945.89 107.537L945.89 110.893L942.534 110.893L942.534 107.537z"/>
<path class="l5" d="M895.555 47.1355L898.911 47.1355L898.911 50.4912L895.555 50.4912L895.555 47.1355z"/>
<path class="l5" d="M908.978 47.1355L912.334 47.1355L912.334 50.4912L908.978 50.4912L908.978 47.1355z"/>
<path class="l5" d="M922.4 47.1355L925.756 47.1355L925.756 50.4912L922.4 50.4912L922.4 47.1355z"/>
<path class="l5" d="M849.415 108.376L851.093 108.376L851.093 110.054L849.415 110.054L849.415 108.376z"/>
<path class="l5" d="M943.373 108.376L945.051 108.376L945.051 110.054L943.373 110.054L943.373 108.376z"/>
<path class="l5" d="M896.394 47.9744L898.072 47.9744L898.072 49.6523L896.394 49.6523L896.394 47.9744z"/>
<path class="l5" d="M909.817 47.9744L911.495 47.9744L911.495 49.6523L909.817 49.6523L909.817 47.9744z"/>
<path class="l5" d="M923.239 47.9744L924.917 47.9744L924.917 49.6523L923.239 49.6523L923.239 47.9744z"/>
<path class="l5" d="M586.836 402.834L590.191 402.834L590.191 406.19L586.836 406.19L586.836 402.834z"/>
<path class="l5" d="M600.258 402.834L603.614 402.834L603.614 406.19L600.258 406.19L600.258 402.834z"/>
<path class="l5" d="M606.969 282.031L610.325 282.031L610.325 285.387L606.969 285.387L606.969 282.031z"/>
<path class="l5" d="M620.392 282.031L623.748 282.031L623.748 285.387L620.392 285.387L620.392 282.031z"/>
<path class="l5" d="M546.568 342.433L549.923 342.433L549.923 345.788L546.568 345.788L546.568 342.433z"/>
<path class="l5" d="M640.526 342.433L643.882 342.433L643.882 345.788L640.526 345.788L640.526 342.433z"/>
<path class="l5" d="M547.407 343.272L549.085 343.272L549.085 344.949L547.407 344.949L547.407 343.272z"/>
<path class="l5" d="M641.365 343.272L643.043 343.272L643.043 344.949L641.365 344.949L641.365 343.272z"/>
<path class="l5" d="M607.808 282.87L609.486 282.87L609.486 284.548L607.808 284.548L607.808 282.87z"/>
<path class="l5" d="M621.231 282.87L622.909 282.87L622.909 284.548L621.231 284.548L621.231 282.87z"/>
<path class="l5" d="M587.674 403.673L589.352 403.673L589.352 405.351L587.674 405.351L587.674 403.673z"/>
<path class="l5" d="M601.097 403.673L602.775 403.673L602.775 405.351L601.097 405.351L601.097 403.673z"/>
<path class="l5" d="M620.392 704.843L623.748 704.843L623.748 708.198L620.392 708.198L620.392 704.843z"/>
<path class="l5" d="M499.589 704.843L502.944 704.843L502.944 708.198L499.589 708.198L499.589 704.843z"/>
<path class="l5" d="M499.589 718.265L502.944 718.265L502.944 721.621L499.589 721.621L499.589 718.265z"/>
<path class="l5" d="M620.392 718.265L623.748 718.265L623.748 721.621L620.392 721.621L620.392 718.265z"/>
<path class="l5" d="M620.392 731.688L623.748 731.688L623.748 735.044L620.392 735.044L620.392 731.688z"/>
<path class="l5" d="M620.392 745.111L623.748 745.111L623.748 748.466L620.392 748.466L620.392 745.111z"/>
<path class="l5" d="M500.428 705.682L502.105 705.682L502.105 707.359L500.428 707.359L500.428 705.682z"/>
<path class="l5" d="M500.428 719.104L502.105 719.104L502.105 720.782L500.428 720.782L500.428 719.104z"/>
<path class="l5" d="M621.231 705.682L622.909 705.682L622.909 707.359L621.231 707.359L621.231 705.682z"/>
<path class="l5" d="M621.231 719.104L622.909 719.104L622.909 720.782L621.231 720.782L621.231 719.104z"/>
<path class="l5" d="M621.231 745.949L622.909 745.949L622.909 747.627L621.231 747.627L621.231 745.949z"/>
<path class="l5" d="M621.231 732.527L622.909 732.527L622.909 734.205L621.231 734.205L621.231 732.527z"/>
<path class="l5" d="M888.844 704.843L892.2 704.843L892.2 708.198L888.844 708.198L888.844 704.843z"/>
<path class="l5" d="M768.041 704.843L771.396 704.843L771.396 708.198L768.041 708.198L768.041 704.843z"/>
<path class="l5" d="M768.041 718.265L771.396 718.265L771.396 721.621L768.041 721.621L768.041 718.265z"/>
<path class="l5" d="M888.844 718.265L892.2 718.265L892.2 721.621L888.844 721.621L888.844 718.265z"/>
<path class="l5" d="M888.844 731.688L892.2 731.688L892.2 735.044L888.844 735.044L888.844 731.688z"/>
<path class="l5" d="M888.844 745.111L892.2 745.111L892.2 748.466L888.844 748.466L888.844 745.111z"/>
<path class="l5" d="M768.88 705.682L770.557 705.682L770.557 707.359L768.88 707.359L768.88 705.682z"/>
<path class="l5" d="M768.88 719.104L770.557 719.104L770.557 720.782L768.88 720.782L768.88 719.104z"/>
<path class="l5" d="M889.683 705.682L891.361 705.682L891.361 707.359L889.683 707.359L889.683 705.682z"/>
<path class="l8" d="M889.683 719.104L891.361 719.104L891.361 720.782L889.683 720.782L889.683 719.104z"/>
<path class="l5" d="M889.683 745.949L891.361 745.949L891.361 747.627L889.683 747.627L889.683 745.949z"/>
<path class="l5" d="M889.683 732.527L891.361 732.527L891.361 734.205L889.683 734.205L889.683 732.527z"/>
<path class="l5" d="M1157.3 704.843L1160.65 704.843L1160.65 708.198L1157.3 708.198L1157.3 704.843z"/>
<path class="l5" d="M1036.49 704.843L1039.85 704.843L1039.85 708.198L1036.49 708.198L1036.49 704.843z"/>
<path class="l5" d="M1036.49 718.265L1039.85 718.265L1039.85 721.621L1036.49 721.621L1036.49 718.265z"/>
<path class="l5" d="M1157.3 718.265L1160.65 718.265L1160.65 721.621L1157.3 721.621L1157.3 718.265z"/>
<path class="l5" d="M1157.3 731.688L1160.65 731.688L1160.65 735.044L1157.3 735.044L1157.3 731.688z"/>
<path class="l5" d="M1157.3 745.111L1160.65 745.111L1160.65 748.466L1157.3 748.466L1157.3 745.111z"/>
<path class="l5" d="M1037.33 705.682L1039.01 705.682L1039.01 707.359L1037.33 707.359L1037.33 705.682z"/>
<path class="l5" d="M1037.33 719.104L1039.01 719.104L1039.01 720.782L1037.33 720.782L1037.33 719.104z"/>
<path class="l5" d="M1158.13 705.682L1159.81 705.682L1159.81 707.359L1158.13 707.359L1158.13 705.682z"/>
<path class="l5" d="M1158.13 719.104L1159.81 719.104L1159.81 720.782L1158.13 720.782L1158.13 719.104z"/>
<path class="l5" d="M1158.13 745.949L1159.81 745.949L1159.81 747.627L1158.13 747.627L1158.13 745.949z"/>
<path class="l5" d="M1158.13 732.527L1159.81 732.527L1159.81 734.205L1158.13 734.205L1158.13 732.527z"/>
<path class="l5" d="M1425.75 704.843L1429.1 704.843L1429.1 708.198L1425.75 708.198L1425.75 704.843z"/>
<path class="l5" d="M1304.94 704.843L1308.3 704.843L1308.3 708.198L1304.94 708.198L1304.94 704.843z"/>
<path class="l5" d="M1304.94 718.265L1308.3 718.265L1308.3 721.621L1304.94 721.621L1304.94 718.265z"/>
<path class="l5" d="M1425.75 718.265L1429.1 718.265L1429.1 721.621L1425.75 721.621L1425.75 718.265z"/>
<path class="l5" d="M1425.75 731.688L1429.1 731.688L1429.1 735.044L1425.75 735.044L1425.75 731.688z"/>
<path class="l5" d="M1425.75 745.111L1429.1 745.111L1429.1 748.466L1425.75 748.466L1425.75 745.111z"/>
<path class="l5" d="M1426.59 705.682L1428.26 705.682L1428.26 707.359L1426.59 707.359L1426.59 705.682z"/>
<path class="l5" d="M1426.59 719.104L1428.26 719.104L1428.26 720.782L1426.59 720.782L1426.59 719.104z"/>
<path class="l5" d="M1426.59 745.949L1428.26 745.949L1428.26 747.627L1426.59 747.627L1426.59 745.949z"/>
<path class="l5" d="M1426.59 732.527L1428.26 732.527L1428.26 734.205L1426.59 734.205L1426.59 732.527z"/>
<path class="l5" d="M620.392 771.956L623.748 771.956L623.748 775.311L620.392 775.311L620.392 771.956z"/>
<path class="l5" d="M499.589 771.956L502.944 771.956L502.944 775.311L499.589 775.311L499.589 771.956z"/>
<path class="l5" d="M499.589 785.378L502.944 785.378L502.944 788.734L499.589 788.734L499.589 785.378z"/>
<path class="l5" d="M620.392 785.378L623.748 785.378L623.748 788.734L620.392 788.734L620.392 785.378z"/>
<path class="l5" d="M620.392 798.801L623.748 798.801L623.748 802.157L620.392 802.157L620.392 798.801z"/>
<path class="l5" d="M620.392 812.224L623.748 812.224L623.748 815.579L620.392 815.579L620.392 812.224z"/>
<path class="l5" d="M500.428 772.795L502.105 772.795L502.105 774.472L500.428 774.472L500.428 772.795z"/>
<path class="l5" d="M500.428 786.217L502.105 786.217L502.105 787.895L500.428 787.895L500.428 786.217z"/>
<path class="l5" d="M621.231 772.795L622.909 772.795L622.909 774.472L621.231 774.472L621.231 772.795z"/>
<path class="l5" d="M621.231 786.217L622.909 786.217L622.909 787.895L621.231 787.895L621.231 786.217z"/>
<path class="l5" d="M621.231 813.062L622.909 813.062L622.909 814.74L621.231 814.74L621.231 813.062z"/>
<path class="l5" d="M621.231 799.64L622.909 799.64L622.909 801.318L621.231 801.318L621.231 799.64z"/>
<path class="l5" d="M620.392 839.069L623.748 839.069L623.748 842.424L620.392 842.424L620.392 839.069z"/>
<path class="l5" d="M499.589 839.069L502.944 839.069L502.944 842.424L499.589 842.424L499.589 839.069z"/>
<path class="l5" d="M499.589 852.491L502.944 852.491L502.944 855.847L499.589 855.847L499.589 852.491z"/>
<path class="l5" d="M620.392 852.491L623.748 852.491L623.748 855.847L620.392 855.847L620.392 852.491z"/>
<path class="l5" d="M620.392 865.914L623.748 865.914L623.748 869.27L620.392 869.27L620.392 865.914z"/>
<path class="l5" d="M620.392 879.336L623.748 879.336L623.748 882.692L620.392 882.692L620.392 879.336z"/>
<path class="l5" d="M500.428 839.908L502.105 839.908L502.105 841.585L500.428 841.585L500.428 839.908z"/>
<path class="l5" d="M500.428 853.33L502.105 853.33L502.105 855.008L500.428 855.008L500.428 853.33z"/>
<path class="l5" d="M621.231 839.908L622.909 839.908L622.909 841.585L621.231 841.585L621.231 839.908z"/>
<path class="l5" d="M621.231 853.33L622.909 853.33L622.909 855.008L621.231 855.008L621.231 853.33z"/>
<path class="l5" d="M621.231 880.175L622.909 880.175L622.909 881.853L621.231 881.853L621.231 880.175z"/>
<path class="l5" d="M621.231 866.753L622.909 866.753L622.909 868.431L621.231 868.431L621.231 866.753z"/>
<path class="l5" d="M1157.3 771.956L1160.65 771.956L1160.65 775.311L1157.3 775.311L1157.3 771.956z"/>
<path class="l5" d="M1036.49 771.956L1039.85 771.956L1039.85 775.311L1036.49 775.311L1036.49 771.956z"/>
<path class="l5" d="M1036.49 785.378L1039.85 785.378L1039.85 788.734L1036.49 788.734L1036.49 785.378z"/>
<path class="l5" d="M1157.3 785.378L1160.65 785.378L1160.65 788.734L1157.3 788.734L1157.3 785.378z"/>
<path class="l5" d="M1157.3 798.801L1160.65 798.801L1160.65 802.157L1157.3 802.157L1157.3 798.801z"/>
<path class="l5" d="M1157.3 812.224L1160.65 812.224L1160.65 815.579L1157.3 815.579L1157.3 812.224z"/>
<path class="l5" d="M1037.33 772.795L1039.01 772.795L1039.01 774.472L1037.33 774.472L1037.33 772.795z"/>
<path class="l5" d="M1037.33 786.217L1039.01 786.217L1039.01 787.895L1037.33 787.895L1037.33 786.217z"/>
<path class="l5" d="M1158.13 772.795L1159.81 772.795L1159.81 774.472L1158.13 774.472L1158.13 772.795z"/>
<path class="l5" d="M1158.13 786.217L1159.81 786.217L1159.81 787.895L1158.13 787.895L1158.13 786.217z"/>
<path class="l5" d="M1158.13 813.062L1159.81 813.062L1159.81 814.74L1158.13 814.74L1158.13 813.062z"/>
<path class="l5" d="M1158.13 799.64L1159.81 799.64L1159.81 801.318L1158.13 801.318L1158.13 799.64z"/>
<path class="l5" d="M1157.3 839.069L1160.65 839.069L1160.65 842.424L1157.3 842.424L1157.3 839.069z"/>
<path class="l5" d="M1036.49 839.069L1039.85 839.069L1039.85 842.424L1036.49 842.424L1036.49 839.069z"/>
<path class="l5" d="M1036.49 852.491L1039.85 852.491L1039.85 855.847L1036.49 855.847L1036.49 852.491z"/>
<path class="l5" d="M1157.3 852.491L1160.65 852.491L1160.65 855.847L1157.3 855.847L1157.3 852.491z"/>
<path class="l5" d="M1157.3 865.914L1160.65 865.914L1160.65 869.27L1157.3 869.27L1157.3 865.914z"/>
<path class="l5" d="M1157.3 879.336L1160.65 879.336L1160.65 882.692L1157.3 882.692L1157.3 879.336z"/>
<path class="l5" d="M1037.33 839.908L1039.01 839.908L1039.01 841.585L1037.33 841.585L1037.33 839.908z"/>
<path class="l5" d="M1037.33 853.33L1039.01 853.33L1039.01 855.008L1037.33 855.008L1037.33 853.33z"/>
<path class="l5" d="M1158.13 839.908L1159.81 839.908L1159.81 841.585L1158.13 841.585L1158.13 839.908z"/>
<path class="l5" d="M1158.13 853.33L1159.81 853.33L1159.81 855.008L1158.13 855.008L1158.13 853.33z"/>
<path class="l5" d="M1158.13 880.175L1159.81 880.175L1159.81 881.853L1158.13 881.853L1158.13 880.175z"/>
<path class="l5" d="M1158.13 866.753L1159.81 866.753L1159.81 868.431L1158.13 868.431L1158.13 866.753z"/>
<path class="l5" d="M1305.78 705.682L1307.46 705.682L1307.46 707.359L1305.78 707.359L1305.78 705.682z"/>
<path class="l5" d="M1305.78 719.104L1307.46 719.104L1307.46 720.782L1305.78 720.782L1305.78 719.104z"/>
<path class="l5" d="M1425.75 771.956L1429.1 771.956L1429.1 775.311L1425.75 775.311L1425.75 771.956z"/>
<path class="l5" d="M1304.94 771.956L1308.3 771.956L1308.3 775.311L1304.94 775.311L1304.94 771.956z"/>
<path class="l5" d="M1304.94 785.378L1308.3 785.378L1308.3 788.734L1304.94 788.734L1304.94 785.378z"/>
<path class="l5" d="M1425.75 785.378L1429.1 785.378L1429.1 788.734L1425.75 788.734L1425.75 785.378z"/>
<path class="l5" d="M1425.75 798.801L1429.1 798.801L1429.1 802.157L1425.75 802.157L1425.75 798.801z"/>
<path class="l5" d="M1425.75 812.224L1429.1 812.224L1429.1 815.579L1425.75 815.579L1425.75 812.224z"/>
<path class="l5" d="M1426.59 772.795L1428.26 772.795L1428.26 774.472L1426.59 774.472L1426.59 772.795z"/>
<path class="l5" d="M1426.59 786.217L1428.26 786.217L1428.26 787.895L1426.59 787.895L1426.59 786.217z"/>
<path class="l5" d="M1426.59 813.062L1428.26 813.062L1428.26 814.74L1426.59 814.74L1426.59 813.062z"/>
<path class="l5" d="M1426.59 799.64L1428.26 799.64L1428.26 801.318L1426.59 801.318L1426.59 799.64z"/>
<path class="l5" d="M1305.78 772.795L1307.46 772.795L1307.46 774.472L1305.78 774.472L1305.78 772.795z"/>
<path class="l5" d="M1305.78 786.217L1307.46 786.217L1307.46 787.895L1305.78 787.895L1305.78 786.217z"/>
<path class="l5" d="M861.999 476.659L865.354 476.659L865.354 480.014L861.999 480.014L861.999 476.659z"/>
<path class="l5" d="M861.999 490.081L865.354 490.081L865.354 493.437L861.999 493.437L861.999 490.081z"/>
<path class="l5" d="M922.4 436.391L925.756 436.391L925.756 439.746L922.4 439.746L922.4 436.391z"/>
<path class="l5" d="M922.4 530.349L925.756 530.349L925.756 533.705L922.4 533.705L922.4 530.349z"/>
<path class="l5" d="M982.802 483.37L986.158 483.37L986.158 486.726L982.802 486.726L982.802 483.37z"/>
<path class="l5" d="M982.802 496.793L986.158 496.793L986.158 500.148L982.802 500.148L982.802 496.793z"/>
<path class="l5" d="M982.802 510.215L986.158 510.215L986.158 513.571L982.802 513.571L982.802 510.215z"/>
<path class="l5" d="M923.239 437.23L924.917 437.23L924.917 438.908L923.239 438.908L923.239 437.23z"/>
<path class="l5" d="M923.239 531.188L924.917 531.188L924.917 532.866L923.239 532.866L923.239 531.188z"/>
<path class="l5" d="M983.641 484.209L985.319 484.209L985.319 485.887L983.641 485.887L983.641 484.209z"/>
<path class="l5" d="M983.641 497.631L985.319 497.631L985.319 499.309L983.641 499.309L983.641 497.631z"/>
<path class="l5" d="M983.641 511.054L985.319 511.054L985.319 512.732L983.641 512.732L983.641 511.054z"/>
<path class="l5" d="M1425.75 839.069L1429.1 839.069L1429.1 842.424L1425.75 842.424L1425.75 839.069z"/>
<path class="l5" d="M1304.94 839.069L1308.3 839.069L1308.3 842.424L1304.94 842.424L1304.94 839.069z"/>
<path class="l5" d="M1304.94 852.491L1308.3 852.491L1308.3 855.847L1304.94 855.847L1304.94 852.491z"/>
<path class="l5" d="M1425.75 852.491L1429.1 852.491L1429.1 855.847L1425.75 855.847L1425.75 852.491z"/>
<path class="l5" d="M1425.75 865.914L1429.1 865.914L1429.1 869.27L1425.75 869.27L1425.75 865.914z"/>
<path class="l5" d="M1425.75 879.336L1429.1 879.336L1429.1 882.692L1425.75 882.692L1425.75 879.336z"/>
<path class="l5" d="M1426.59 839.908L1428.26 839.908L1428.26 841.585L1426.59 841.585L1426.59 839.908z"/>
<path class="l5" d="M1426.59 853.33L1428.26 853.33L1428.26 855.008L1426.59 855.008L1426.59 853.33z"/>
<path class="l5" d="M1426.59 880.175L1428.26 880.175L1428.26 881.853L1426.59 881.853L1426.59 880.175z"/>
<path class="l5" d="M1426.59 866.753L1428.26 866.753L1428.26 868.431L1426.59 868.431L1426.59 866.753z"/>
<path class="l5" d="M1305.78 839.908L1307.46 839.908L1307.46 841.585L1305.78 841.585L1305.78 839.908z"/>
<path class="l5" d="M1305.78 853.33L1307.46 853.33L1307.46 855.008L1305.78 855.008L1305.78 853.33z"/>
<path class="l5" d="M231.137 402.834L234.492 402.834L234.492 406.19L231.137 406.19L231.137 402.834z"/>
<path class="l5" d="M244.559 402.834L247.915 402.834L247.915 406.19L244.559 406.19L244.559 402.834z"/>
<path class="l5" d="M251.271 282.031L254.626 282.031L254.626 285.387L251.271 285.387L251.271 282.031z"/>
<path class="l5" d="M264.693 282.031L268.049 282.031L268.049 285.387L264.693 285.387L264.693 282.031z"/>
<path class="l5" d="M190.869 342.433L194.225 342.433L194.225 345.788L190.869 345.788L190.869 342.433z"/>
<path class="l5" d="M284.827 342.433L288.183 342.433L288.183 345.788L284.827 345.788L284.827 342.433z"/>
<path class="l5" d="M191.708 343.272L193.386 343.272L193.386 344.949L191.708 344.949L191.708 343.272z"/>
<path class="l5" d="M285.666 343.272L287.344 343.272L287.344 344.949L285.666 344.949L285.666 343.272z"/>
<path class="l5" d="M252.11 282.87L253.787 282.87L253.787 284.548L252.11 284.548L252.11 282.87z"/>
<path class="l5" d="M265.532 282.87L267.21 282.87L267.21 284.548L265.532 284.548L265.532 282.87z"/>
<path class="l5" d="M231.976 403.673L233.654 403.673L233.654 405.351L231.976 405.351L231.976 403.673z"/>
<path class="l5" d="M245.398 403.673L247.076 403.673L247.076 405.351L245.398 405.351L245.398 403.673z"/>
<path class="l5" d="M1338.5 335.721L1341.86 335.721L1341.86 339.077L1338.5 339.077L1338.5 335.721z"/>
<path class="l5" d="M1338.5 241.763L1341.86 241.763L1341.86 245.119L1338.5 245.119L1338.5 241.763z"/>
<path class="l5" d="M1339.34 336.56L1341.02 336.56L1341.02 338.238L1339.34 338.238L1339.34 336.56z"/>
<path class="l8" d="M862.838 477.498L864.516 477.498L864.516 479.175L862.838 479.175L862.838 477.498z"/>
<path class="l10" d="M862.838 490.92L864.516 490.92L864.516 492.598L862.838 492.598L862.838 490.92z"/>
<path class="l8" d="M889.683 168.778L891.361 168.778L891.361 170.456L889.683 170.456L889.683 168.778z"/>
<path class="l10" d="M903.105 168.778L904.783 168.778L904.783 170.456L903.105 170.456L903.105 168.778z"/>
<path class="l7" d="M1239.51 404.512L1239.51 417.935"/>
<path class="l7" d="M1239.51 297.131L1239.51 310.554"/>
<path class="l7" d="M340.195 706.521L353.618 706.521"/>
<path class="l7" d="M340.195 719.943L353.618 719.943"/>
<path class="l7" d="M340.195 733.366L353.618 733.366"/>
<path class="l7" d="M340.195 746.788L353.618 746.788"/>
<path class="l7" d="M608.647 706.521L622.07 706.521"/>
<path class="l7" d="M608.647 719.943L622.07 719.943"/>
<path class="l7" d="M608.647 733.366L622.07 733.366"/>
<path class="l7" d="M608.647 746.788L622.07 746.788"/>
<path class="l7" d="M877.099 706.521L890.522 706.521"/>
<path class="l7" d="M877.099 719.943L890.522 719.943"/>
<path class="l7" d="M877.099 733.366L890.522 733.366"/>
<path class="l7" d="M877.099 746.788L890.522 746.788"/>
<path class="l7" d="M1145.55 706.521L1158.97 706.521"/>
<path class="l7" d="M1145.55 719.943L1158.97 719.943"/>
<path class="l7" d="M1145.55 733.366L1158.97 733.366"/>
<path class="l7" d="M1145.55 746.788L1158.97 746.788"/>
<path class="l7" d="M1414 706.521L1427.43 706.521"/>
<path class="l7" d="M1414 719.943L1427.43 719.943"/>
<path class="l7" d="M1414 733.366L1427.43 733.366"/>
<path class="l7" d="M1414 746.788L1427.43 746.788"/>
<path class="l7" d="M608.647 773.634L622.07 773.634"/>
<path class="l7" d="M608.647 787.056L622.07 787.056"/>
<path class="l7" d="M608.647 800.479L622.07 800.479"/>
<path class="l7" d="M608.647 813.901L622.07 813.901"/>
<path class="l7" d="M608.647 840.747L622.07 840.747"/>
<path class="l7" d="M608.647 854.169L622.07 854.169"/>
<path class="l7" d="M608.647 867.592L622.07 867.592"/>
<path class="l7" d="M608.647 881.014L622.07 881.014"/>
<path class="l7" d="M1145.55 773.634L1158.97 773.634"/>
<path class="l7" d="M1145.55 787.056L1158.97 787.056"/>
<path class="l7" d="M1145.55 800.479L1158.97 800.479"/>
<path class="l7" d="M1145.55 813.901L1158.97 813.901"/>
<path class="l7" d="M1145.55 840.747L1158.97 840.747"/>
<path class="l7" d="M1145.55 854.169L1158.97 854.169"/>
<path class="l7" d="M1145.55 867.592L1158.97 867.592"/>
<path class="l7" d="M1145.55 881.014L1158.97 881.014"/>
<path class="l7" d="M1414 773.634L1427.43 773.634"/>
<path class="l7" d="M1414 787.056L1427.43 787.056"/>
<path class="l7" d="M1414 800.479L1427.43 800.479"/>
<path class="l7" d="M1414 813.901L1427.43 813.901"/>
<path class="l7" d="M1414 840.747L1427.43 840.747"/>
<path class="l7" d="M1414 854.169L1427.43 854.169"/>
<path class="l7" d="M1414 867.592L1427.43 867.592"/>
<path class="l7" d="M1414 881.014L1427.43 881.014"/>
<text fill="#cccccc"  xml:space="preserve" font-size="10.4696" transform="translate(1246.22, 416.703)" >single_ended_ota</text>
<text fill="#cccccc"  xml:space="preserve" font-size="6.97975" transform="translate(1189.17, 302.127)" >xa1</text>
<text fill="#cccccc"  xml:space="preserve" font-size="6.97975" transform="translate(1195.89, 341.052)" >IP</text>
<text fill="#cccccc"  xml:space="preserve" font-size="6.97975" transform="translate(1195.89, 367.897)" >IN</text>
<text fill="#cccccc"  xml:space="preserve" font-size="6.97975" transform="translate(1253.71, 361.186)" >OUT</text>
<text fill="#cccccc"  xml:space="preserve" font-size="6.97975" transform="translate(1227.86, 320.918)" >VDD</text>
<text fill="#cccccc"  xml:space="preserve" font-size="6.97975" transform="translate(1229.44, 398.817)" >VSS</text>
<text fill="#cccccc"  xml:space="preserve" font-size="6.97975" transform="translate(1254.42, 320.918)" >VBIAS</text>
<text fill="#cccccc"  xml:space="preserve" font-size="10.4696" transform="translate(247.244, 745.557)" >tgate_sim</text>
<text fill="#cccccc"  xml:space="preserve" font-size="6.97975" transform="translate(343.551, 698.093)" >x6</text>
<text fill="#cccccc"  xml:space="preserve" font-size="6.97975" transform="translate(327.84, 710.174)" >T2</text>
<text fill="#cccccc"  xml:space="preserve" font-size="6.97975" transform="translate(249.593, 710.174)" >GATE_CON</text>
<text fill="#cccccc"  xml:space="preserve" font-size="6.97975" transform="translate(249.593, 723.596)" >GATE_CONb</text>
<text fill="#cccccc"  xml:space="preserve" font-size="6.97975" transform="translate(327.84, 723.596)" >T1</text>
<text fill="#cccccc"  xml:space="preserve" font-size="6.97975" transform="translate(319.84, 737.019)" >VSSd</text>
<text fill="#cccccc"  xml:space="preserve" font-size="6.97975" transform="translate(317.84, 750.441)" >VDDd</text>
<text fill="#00ccee"  xml:space="preserve" font-size="11.5166" transform="translate(1304.92, 352.5) rotate(270)" >P1</text>
<text fill="#00ccee"  xml:space="preserve" font-size="11.5166" transform="translate(1184.11, 389.989) rotate(270)" >P2</text>
<text fill="#00ccee"  xml:space="preserve" font-size="11.5166" transform="translate(1212.48, 422.939)" >VSS</text>
<text fill="#00ccee"  xml:space="preserve" font-size="11.5166" transform="translate(1208.48, 302.136)" >VDD</text>
<text fill="#00ccee"  xml:space="preserve" font-size="11.5166" transform="translate(194.781, 711.525)" >VDDd</text>
<text fill="#00ccee"  xml:space="preserve" font-size="11.5166" transform="translate(198.781, 724.947)" >VSSd</text>
<text fill="#00ccee"  xml:space="preserve" font-size="11.5166" transform="translate(358.651, 711.525)" >P22</text>
<text fill="#ff0000"  xml:space="preserve" font-size="11.5166" transform="translate(358.651, 724.947)" >GPIO_A0</text>
<text fill="#00ccee"  xml:space="preserve" font-size="11.5166" transform="translate(358.651, 751.792)" >VDDd</text>
<text fill="#00ccee"  xml:space="preserve" font-size="11.5166" transform="translate(358.651, 738.37)" >VSSd</text>
<text fill="#cccccc"  xml:space="preserve" font-size="6.97975" transform="translate(1279.78, 276.624)" >I0</text>
<text fill="#cccccc"  xml:space="preserve" font-size="6.97975" transform="translate(1279.78, 284.63)" >83u</text>
<text fill="#00ccee"  xml:space="preserve" font-size="11.5166" transform="translate(1235.32, 261.868)" >VDD</text>
<text fill="#00ccee"  xml:space="preserve" font-size="11.5166" transform="translate(1181.81, 339.077) rotate(270)" >P3</text>
<text fill="#cccccc"  xml:space="preserve" font-size="3.48987" transform="translate(891.006, 152.838) rotate(270)" >GATE_CON[1:10]</text>
<text fill="#cccccc"  xml:space="preserve" font-size="3.48987" transform="translate(904.429, 152.838) rotate(270)" >GATE_CONb[1:10]</text>
<text fill="#cccccc"  xml:space="preserve" font-size="6.97975" transform="translate(874.041, 122.571) rotate(270)" >RA</text>
<text fill="#cccccc"  xml:space="preserve" font-size="6.97975" transform="translate(924.376, 122.571) rotate(270)" >RB</text>
<text fill="#cccccc"  xml:space="preserve" font-size="6.97975" transform="translate(900.886, 79.5916) rotate(270)" >VSS</text>
<text fill="#cccccc"  xml:space="preserve" font-size="10.4696" transform="translate(942.981, 106.195) rotate(270)" >sim_res_10x10k</text>
<text fill="#cccccc"  xml:space="preserve" font-size="6.97975" transform="translate(861.961, 58.8803) rotate(270)" >xr1</text>
<text fill="#cccccc"  xml:space="preserve" font-size="6.97975" transform="translate(914.309, 84.5916) rotate(270)" >VDDd</text>
<text fill="#cccccc"  xml:space="preserve" font-size="6.97975" transform="translate(927.731, 82.5916) rotate(270)" >VSSd</text>
<text fill="#00ccee"  xml:space="preserve" font-size="11.5166" transform="translate(855.258, 135.249) rotate(270)" >P46</text>
<text fill="#00ccee"  xml:space="preserve" font-size="11.5166" transform="translate(949.216, 135.249) rotate(270)" >P47</text>
<text fill="#00ccee"  xml:space="preserve" font-size="11.5166" transform="translate(902.237, 43.7799) rotate(270)" >VSS</text>
<text fill="#00ccee"  xml:space="preserve" font-size="11.5166" transform="translate(915.66, 43.7799) rotate(270)" >VDDd</text>
<text fill="#00ccee"  xml:space="preserve" font-size="11.5166" transform="translate(929.082, 43.7799) rotate(270)" >VSSd</text>
<text fill="#cccccc"  xml:space="preserve" font-size="3.48987" transform="translate(588.998, 387.734) rotate(270)" >GATE_CON[1:10]</text>
<text fill="#cccccc"  xml:space="preserve" font-size="3.48987" transform="translate(602.42, 387.734) rotate(270)" >GATE_CONb[1:10]</text>
<text fill="#cccccc"  xml:space="preserve" font-size="10.4696" transform="translate(640.972, 341.09) rotate(270)" >sim_cap_10x1p</text>
<text fill="#cccccc"  xml:space="preserve" font-size="6.97975" transform="translate(559.952, 293.776) rotate(270)" >xc2</text>
<text fill="#cccccc"  xml:space="preserve" font-size="6.97975" transform="translate(612.3, 319.487) rotate(270)" >VDDd</text>
<text fill="#cccccc"  xml:space="preserve" font-size="6.97975" transform="translate(625.723, 317.487) rotate(270)" >VSSd</text>
<text fill="#cccccc"  xml:space="preserve" font-size="6.97975" transform="translate(572.033, 340.755) rotate(270)" >CA</text>
<text fill="#cccccc"  xml:space="preserve" font-size="6.97975" transform="translate(622.367, 340.755) rotate(270)" >CB</text>
<text fill="#00ccee"  xml:space="preserve" font-size="11.5166" transform="translate(553.25, 370.144) rotate(270)" >P24</text>
<text fill="#00ccee"  xml:space="preserve" font-size="11.5166" transform="translate(647.208, 370.144) rotate(270)" >P25</text>
<text fill="#00ccee"  xml:space="preserve" font-size="11.5166" transform="translate(613.651, 278.675) rotate(270)" >VDDd</text>
<text fill="#00ccee"  xml:space="preserve" font-size="11.5166" transform="translate(627.074, 278.675) rotate(270)" >VSSd</text>
<text fill="#00ccee"  xml:space="preserve" font-size="11.5166" transform="translate(593.518, 462.546) rotate(270)" >10*VDDd</text>
<text fill="#00ccee"  xml:space="preserve" font-size="11.5166" transform="translate(606.94, 458.546) rotate(270)" >10*VSSd</text>
<text fill="#cccccc"  xml:space="preserve" font-size="10.4696" transform="translate(515.696, 745.557)" >tgate_sim</text>
<text fill="#cccccc"  xml:space="preserve" font-size="6.97975" transform="translate(612.003, 698.093)" >x1</text>
<text fill="#cccccc"  xml:space="preserve" font-size="6.97975" transform="translate(596.292, 710.174)" >T2</text>
<text fill="#cccccc"  xml:space="preserve" font-size="6.97975" transform="translate(518.045, 710.174)" >GATE_CON</text>
<text fill="#cccccc"  xml:space="preserve" font-size="6.97975" transform="translate(518.045, 723.596)" >GATE_CONb</text>
<text fill="#cccccc"  xml:space="preserve" font-size="6.97975" transform="translate(596.292, 723.596)" >T1</text>
<text fill="#cccccc"  xml:space="preserve" font-size="6.97975" transform="translate(588.292, 737.019)" >VSSd</text>
<text fill="#cccccc"  xml:space="preserve" font-size="6.97975" transform="translate(586.292, 750.441)" >VDDd</text>
<text fill="#00ccee"  xml:space="preserve" font-size="11.5166" transform="translate(463.233, 711.525)" >VDDd</text>
<text fill="#00ccee"  xml:space="preserve" font-size="11.5166" transform="translate(467.233, 724.947)" >VSSd</text>
<text fill="#00ccee"  xml:space="preserve" font-size="11.5166" transform="translate(627.103, 711.525)" >P1</text>
<text fill="#00ccee"  xml:space="preserve" font-size="11.5166" transform="translate(627.103, 724.947)" >GPIO_A1</text>
<text fill="#00ccee"  xml:space="preserve" font-size="11.5166" transform="translate(627.103, 751.792)" >VDDd</text>
<text fill="#00ccee"  xml:space="preserve" font-size="11.5166" transform="translate(627.103, 738.37)" >VSSd</text>
<text fill="#cccccc"  xml:space="preserve" font-size="10.4696" transform="translate(784.148, 745.557)" >tgate_sim</text>
<text fill="#cccccc"  xml:space="preserve" font-size="6.97975" transform="translate(880.455, 698.093)" >x2</text>
<text fill="#cccccc"  xml:space="preserve" font-size="6.97975" transform="translate(864.744, 710.174)" >T2</text>
<text fill="#cccccc"  xml:space="preserve" font-size="6.97975" transform="translate(786.497, 710.174)" >GATE_CON</text>
<text fill="#cccccc"  xml:space="preserve" font-size="6.97975" transform="translate(786.497, 723.596)" >GATE_CONb</text>
<text fill="#cccccc"  xml:space="preserve" font-size="6.97975" transform="translate(864.744, 723.596)" >T1</text>
<text fill="#cccccc"  xml:space="preserve" font-size="6.97975" transform="translate(856.744, 737.019)" >VSSd</text>
<text fill="#cccccc"  xml:space="preserve" font-size="6.97975" transform="translate(854.744, 750.441)" >VDDd</text>
<text fill="#00ccee"  xml:space="preserve" font-size="11.5166" transform="translate(731.685, 711.525)" >VDDd</text>
<text fill="#00ccee"  xml:space="preserve" font-size="11.5166" transform="translate(735.685, 724.947)" >VSSd</text>
<text fill="#00ccee"  xml:space="preserve" font-size="11.5166" transform="translate(895.555, 711.525)" >P49</text>
<text fill="#ffff00"  xml:space="preserve" font-size="11.5166" transform="translate(895.555, 724.947)" >GPIO_A2</text>
<text fill="#00ccee"  xml:space="preserve" font-size="11.5166" transform="translate(895.555, 751.792)" >VDDd</text>
<text fill="#00ccee"  xml:space="preserve" font-size="11.5166" transform="translate(895.555, 738.37)" >VSSd</text>
<text fill="#cccccc"  xml:space="preserve" font-size="10.4696" transform="translate(1052.6, 745.557)" >tgate_sim</text>
<text fill="#cccccc"  xml:space="preserve" font-size="6.97975" transform="translate(1148.91, 698.093)" >x3</text>
<text fill="#cccccc"  xml:space="preserve" font-size="6.97975" transform="translate(1133.2, 710.174)" >T2</text>
<text fill="#cccccc"  xml:space="preserve" font-size="6.97975" transform="translate(1054.95, 710.174)" >GATE_CON</text>
<text fill="#cccccc"  xml:space="preserve" font-size="6.97975" transform="translate(1054.95, 723.596)" >GATE_CONb</text>
<text fill="#cccccc"  xml:space="preserve" font-size="6.97975" transform="translate(1133.2, 723.596)" >T1</text>
<text fill="#cccccc"  xml:space="preserve" font-size="6.97975" transform="translate(1125.2, 737.019)" >VSSd</text>
<text fill="#cccccc"  xml:space="preserve" font-size="6.97975" transform="translate(1123.2, 750.441)" >VDDd</text>
<text fill="#00ccee"  xml:space="preserve" font-size="11.5166" transform="translate(1000.14, 711.525)" >VDDd</text>
<text fill="#00ccee"  xml:space="preserve" font-size="11.5166" transform="translate(1004.14, 724.947)" >VSSd</text>
<text fill="#00ccee"  xml:space="preserve" font-size="11.5166" transform="translate(1164.01, 711.525)" >P3</text>
<text fill="#00ccee"  xml:space="preserve" font-size="11.5166" transform="translate(1164.01, 724.947)" >GPIO_A3</text>
<text fill="#00ccee"  xml:space="preserve" font-size="11.5166" transform="translate(1164.01, 751.792)" >VDDd</text>
<text fill="#00ccee"  xml:space="preserve" font-size="11.5166" transform="translate(1164.01, 738.37)" >VSSd</text>
<text fill="#cccccc"  xml:space="preserve" font-size="10.4696" transform="translate(1321.05, 745.557)" >tgate_sim</text>
<text fill="#cccccc"  xml:space="preserve" font-size="6.97975" transform="translate(1417.36, 698.093)" >x4</text>
<text fill="#cccccc"  xml:space="preserve" font-size="6.97975" transform="translate(1401.65, 710.174)" >T2</text>
<text fill="#cccccc"  xml:space="preserve" font-size="6.97975" transform="translate(1323.4, 710.174)" >GATE_CON</text>
<text fill="#cccccc"  xml:space="preserve" font-size="6.97975" transform="translate(1323.4, 723.596)" >GATE_CONb</text>
<text fill="#cccccc"  xml:space="preserve" font-size="6.97975" transform="translate(1401.65, 723.596)" >T1</text>
<text fill="#cccccc"  xml:space="preserve" font-size="6.97975" transform="translate(1393.65, 737.019)" >VSSd</text>
<text fill="#cccccc"  xml:space="preserve" font-size="6.97975" transform="translate(1391.65, 750.441)" >VDDd</text>
<text fill="#00ccee"  xml:space="preserve" font-size="11.5166" transform="translate(1432.46, 711.525)" >P23</text>
<text fill="#00ccee"  xml:space="preserve" font-size="11.5166" transform="translate(1432.46, 724.947)" >GPIO_A4</text>
<text fill="#00ccee"  xml:space="preserve" font-size="11.5166" transform="translate(1432.46, 751.792)" >VDDd</text>
<text fill="#00ccee"  xml:space="preserve" font-size="11.5166" transform="translate(1432.46, 738.37)" >VSSd</text>
<text fill="#cccccc"  xml:space="preserve" font-size="10.4696" transform="translate(515.696, 812.67)" >tgate_sim</text>
<text fill="#cccccc"  xml:space="preserve" font-size="6.97975" transform="translate(612.003, 765.206)" >x11</text>
<text fill="#cccccc"  xml:space="preserve" font-size="6.97975" transform="translate(596.292, 777.287)" >T2</text>
<text fill="#cccccc"  xml:space="preserve" font-size="6.97975" transform="translate(518.045, 777.287)" >GATE_CON</text>
<text fill="#cccccc"  xml:space="preserve" font-size="6.97975" transform="translate(518.045, 790.709)" >GATE_CONb</text>
<text fill="#cccccc"  xml:space="preserve" font-size="6.97975" transform="translate(596.292, 790.709)" >T1</text>
<text fill="#cccccc"  xml:space="preserve" font-size="6.97975" transform="translate(588.292, 804.132)" >VSSd</text>
<text fill="#cccccc"  xml:space="preserve" font-size="6.97975" transform="translate(586.292, 817.554)" >VDDd</text>
<text fill="#00ccee"  xml:space="preserve" font-size="11.5166" transform="translate(463.233, 778.638)" >VDDd</text>
<text fill="#00ccee"  xml:space="preserve" font-size="11.5166" transform="translate(467.233, 792.06)" >VSSd</text>
<text fill="#00ccee"  xml:space="preserve" font-size="11.5166" transform="translate(627.103, 778.638)" >P2</text>
<text fill="#00ccee"  xml:space="preserve" font-size="11.5166" transform="translate(627.103, 792.06)" >GPIO_A1</text>
<text fill="#00ccee"  xml:space="preserve" font-size="11.5166" transform="translate(627.103, 818.905)" >VDDd</text>
<text fill="#00ccee"  xml:space="preserve" font-size="11.5166" transform="translate(627.103, 805.483)" >VSSd</text>
<text fill="#cccccc"  xml:space="preserve" font-size="10.4696" transform="translate(515.696, 879.783)" >tgate_sim</text>
<text fill="#cccccc"  xml:space="preserve" font-size="6.97975" transform="translate(612.003, 832.319)" >x12</text>
<text fill="#cccccc"  xml:space="preserve" font-size="6.97975" transform="translate(596.292, 844.4)" >T2</text>
<text fill="#cccccc"  xml:space="preserve" font-size="6.97975" transform="translate(518.045, 844.4)" >GATE_CON</text>
<text fill="#cccccc"  xml:space="preserve" font-size="6.97975" transform="translate(518.045, 857.822)" >GATE_CONb</text>
<text fill="#cccccc"  xml:space="preserve" font-size="6.97975" transform="translate(596.292, 857.822)" >T1</text>
<text fill="#cccccc"  xml:space="preserve" font-size="6.97975" transform="translate(588.292, 871.245)" >VSSd</text>
<text fill="#cccccc"  xml:space="preserve" font-size="6.97975" transform="translate(586.292, 884.667)" >VDDd</text>
<text fill="#00ccee"  xml:space="preserve" font-size="11.5166" transform="translate(463.233, 845.751)" >VDDd</text>
<text fill="#00ccee"  xml:space="preserve" font-size="11.5166" transform="translate(467.233, 859.173)" >VSSd</text>
<text fill="#00ccee"  xml:space="preserve" font-size="11.5166" transform="translate(627.103, 845.751)" >P47</text>
<text fill="#00ccee"  xml:space="preserve" font-size="11.5166" transform="translate(627.103, 859.173)" >GPIO_A1</text>
<text fill="#00ccee"  xml:space="preserve" font-size="11.5166" transform="translate(627.103, 886.018)" >VDDd</text>
<text fill="#00ccee"  xml:space="preserve" font-size="11.5166" transform="translate(627.103, 872.596)" >VSSd</text>
<text fill="#cccccc"  xml:space="preserve" font-size="10.4696" transform="translate(1052.6, 812.67)" >tgate_sim</text>
<text fill="#cccccc"  xml:space="preserve" font-size="6.97975" transform="translate(1148.91, 765.206)" >x13</text>
<text fill="#cccccc"  xml:space="preserve" font-size="6.97975" transform="translate(1133.2, 777.287)" >T2</text>
<text fill="#cccccc"  xml:space="preserve" font-size="6.97975" transform="translate(1054.95, 777.287)" >GATE_CON</text>
<text fill="#cccccc"  xml:space="preserve" font-size="6.97975" transform="translate(1054.95, 790.709)" >GATE_CONb</text>
<text fill="#cccccc"  xml:space="preserve" font-size="6.97975" transform="translate(1133.2, 790.709)" >T1</text>
<text fill="#cccccc"  xml:space="preserve" font-size="6.97975" transform="translate(1125.2, 804.132)" >VSSd</text>
<text fill="#cccccc"  xml:space="preserve" font-size="6.97975" transform="translate(1123.2, 817.554)" >VDDd</text>
<text fill="#00ccee"  xml:space="preserve" font-size="11.5166" transform="translate(1000.14, 778.638)" >VDDd</text>
<text fill="#00ccee"  xml:space="preserve" font-size="11.5166" transform="translate(1004.14, 792.06)" >VSSd</text>
<text fill="#00ccee"  xml:space="preserve" font-size="11.5166" transform="translate(1164.01, 778.638)" >P25</text>
<text fill="#00ccee"  xml:space="preserve" font-size="11.5166" transform="translate(1164.01, 792.06)" >GPIO_A3</text>
<text fill="#00ccee"  xml:space="preserve" font-size="11.5166" transform="translate(1164.01, 818.905)" >VDDd</text>
<text fill="#00ccee"  xml:space="preserve" font-size="11.5166" transform="translate(1164.01, 805.483)" >VSSd</text>
<text fill="#cccccc"  xml:space="preserve" font-size="10.4696" transform="translate(1052.6, 879.783)" >tgate_sim</text>
<text fill="#cccccc"  xml:space="preserve" font-size="6.97975" transform="translate(1148.91, 832.319)" >x14</text>
<text fill="#cccccc"  xml:space="preserve" font-size="6.97975" transform="translate(1133.2, 844.4)" >T2</text>
<text fill="#cccccc"  xml:space="preserve" font-size="6.97975" transform="translate(1054.95, 844.4)" >GATE_CON</text>
<text fill="#cccccc"  xml:space="preserve" font-size="6.97975" transform="translate(1054.95, 857.822)" >GATE_CONb</text>
<text fill="#cccccc"  xml:space="preserve" font-size="6.97975" transform="translate(1133.2, 857.822)" >T1</text>
<text fill="#cccccc"  xml:space="preserve" font-size="6.97975" transform="translate(1125.2, 871.245)" >VSSd</text>
<text fill="#cccccc"  xml:space="preserve" font-size="6.97975" transform="translate(1123.2, 884.667)" >VDDd</text>
<text fill="#00ccee"  xml:space="preserve" font-size="11.5166" transform="translate(1000.14, 845.751)" >VDDd</text>
<text fill="#00ccee"  xml:space="preserve" font-size="11.5166" transform="translate(1004.14, 859.173)" >VSSd</text>
<text fill="#00ccee"  xml:space="preserve" font-size="11.5166" transform="translate(1164.01, 845.751)" >P48</text>
<text fill="#00ccee"  xml:space="preserve" font-size="11.5166" transform="translate(1164.01, 859.173)" >GPIO_A3</text>
<text fill="#00ccee"  xml:space="preserve" font-size="11.5166" transform="translate(1164.01, 886.018)" >VDDd</text>
<text fill="#00ccee"  xml:space="preserve" font-size="11.5166" transform="translate(1164.01, 872.596)" >VSSd</text>
<text fill="#00ccee"  xml:space="preserve" font-size="11.5166" transform="translate(1268.59, 711.525)" >VDDd</text>
<text fill="#00ccee"  xml:space="preserve" font-size="11.5166" transform="translate(1272.59, 724.947)" >VSSd</text>
<text fill="#cccccc"  xml:space="preserve" font-size="10.4696" transform="translate(1321.05, 812.67)" >tgate_sim</text>
<text fill="#cccccc"  xml:space="preserve" font-size="6.97975" transform="translate(1417.36, 765.206)" >x15</text>
<text fill="#cccccc"  xml:space="preserve" font-size="6.97975" transform="translate(1401.65, 777.287)" >T2</text>
<text fill="#cccccc"  xml:space="preserve" font-size="6.97975" transform="translate(1323.4, 777.287)" >GATE_CON</text>
<text fill="#cccccc"  xml:space="preserve" font-size="6.97975" transform="translate(1323.4, 790.709)" >GATE_CONb</text>
<text fill="#cccccc"  xml:space="preserve" font-size="6.97975" transform="translate(1401.65, 790.709)" >T1</text>
<text fill="#cccccc"  xml:space="preserve" font-size="6.97975" transform="translate(1393.65, 804.132)" >VSSd</text>
<text fill="#cccccc"  xml:space="preserve" font-size="6.97975" transform="translate(1391.65, 817.554)" >VDDd</text>
<text fill="#00ccee"  xml:space="preserve" font-size="11.5166" transform="translate(1432.46, 778.638)" >P24</text>
<text fill="#00ccee"  xml:space="preserve" font-size="11.5166" transform="translate(1432.46, 792.06)" >GPIO_A4</text>
<text fill="#00ccee"  xml:space="preserve" font-size="11.5166" transform="translate(1432.46, 818.905)" >VDDd</text>
<text fill="#00ccee"  xml:space="preserve" font-size="11.5166" transform="translate(1432.46, 805.483)" >VSSd</text>
<text fill="#00ccee"  xml:space="preserve" font-size="11.5166" transform="translate(1268.59, 778.638)" >VDDd</text>
<text fill="#00ccee"  xml:space="preserve" font-size="11.5166" transform="translate(1272.59, 792.06)" >VSSd</text>
<text fill="#cccccc"  xml:space="preserve" font-size="3.48987" transform="translate(880.455, 478.821)" >GATE_CON[1:10]</text>
<text fill="#cccccc"  xml:space="preserve" font-size="3.48987" transform="translate(880.455, 492.243)" >GATE_CONb[1:10]</text>
<text fill="#cccccc"  xml:space="preserve" font-size="6.97975" transform="translate(910.723, 461.856)" >RA</text>
<text fill="#cccccc"  xml:space="preserve" font-size="6.97975" transform="translate(910.723, 512.19)" >RB</text>
<text fill="#cccccc"  xml:space="preserve" font-size="6.97975" transform="translate(953.702, 488.701)" >VSS</text>
<text fill="#cccccc"  xml:space="preserve" font-size="10.4696" transform="translate(927.098, 530.795)" >sim_res_10x10k</text>
<text fill="#cccccc"  xml:space="preserve" font-size="6.97975" transform="translate(974.413, 449.775)" >xr2</text>
<text fill="#cccccc"  xml:space="preserve" font-size="6.97975" transform="translate(948.702, 502.123)" >VDDd</text>
<text fill="#cccccc"  xml:space="preserve" font-size="6.97975" transform="translate(950.702, 515.546)" >VSSd</text>
<text fill="#00ccee"  xml:space="preserve" font-size="11.5166" transform="translate(898.045, 443.073)" >P48</text>
<text fill="#00ccee"  xml:space="preserve" font-size="11.5166" transform="translate(898.045, 537.031)" >P49</text>
<text fill="#00ccee"  xml:space="preserve" font-size="11.5166" transform="translate(989.513, 490.052)" >VSS</text>
<text fill="#00ccee"  xml:space="preserve" font-size="11.5166" transform="translate(989.513, 503.474)" >VDDd</text>
<text fill="#00ccee"  xml:space="preserve" font-size="11.5166" transform="translate(989.513, 516.897)" >VSSd</text>
<text fill="#cccccc"  xml:space="preserve" font-size="10.4696" transform="translate(1321.05, 879.783)" >tgate_sim</text>
<text fill="#cccccc"  xml:space="preserve" font-size="6.97975" transform="translate(1417.36, 832.319)" >x5</text>
<text fill="#cccccc"  xml:space="preserve" font-size="6.97975" transform="translate(1401.65, 844.4)" >T2</text>
<text fill="#cccccc"  xml:space="preserve" font-size="6.97975" transform="translate(1323.4, 844.4)" >GATE_CON</text>
<text fill="#cccccc"  xml:space="preserve" font-size="6.97975" transform="translate(1323.4, 857.822)" >GATE_CONb</text>
<text fill="#cccccc"  xml:space="preserve" font-size="6.97975" transform="translate(1401.65, 857.822)" >T1</text>
<text fill="#cccccc"  xml:space="preserve" font-size="6.97975" transform="translate(1393.65, 871.245)" >VSSd</text>
<text fill="#cccccc"  xml:space="preserve" font-size="6.97975" transform="translate(1391.65, 884.667)" >VDDd</text>
<text fill="#00ccee"  xml:space="preserve" font-size="11.5166" transform="translate(1432.46, 845.751)" >P46</text>
<text fill="#00ccee"  xml:space="preserve" font-size="11.5166" transform="translate(1432.46, 859.173)" >GPIO_A4</text>
<text fill="#00ccee"  xml:space="preserve" font-size="11.5166" transform="translate(1432.46, 886.018)" >VDDd</text>
<text fill="#00ccee"  xml:space="preserve" font-size="11.5166" transform="translate(1432.46, 872.596)" >VSSd</text>
<text fill="#00ccee"  xml:space="preserve" font-size="11.5166" transform="translate(1268.59, 845.751)" >VDDd</text>
<text fill="#00ccee"  xml:space="preserve" font-size="11.5166" transform="translate(1272.59, 859.173)" >VSSd</text>
<text fill="#cccccc"  xml:space="preserve" font-size="3.48987" transform="translate(233.299, 387.734) rotate(270)" >GATE_CON[1:10]</text>
<text fill="#cccccc"  xml:space="preserve" font-size="3.48987" transform="translate(246.721, 387.734) rotate(270)" >GATE_CONb[1:10]</text>
<text fill="#cccccc"  xml:space="preserve" font-size="10.4696" transform="translate(285.273, 341.09) rotate(270)" >sim_cap_10x1p</text>
<text fill="#cccccc"  xml:space="preserve" font-size="6.97975" transform="translate(204.253, 293.776) rotate(270)" >xc1</text>
<text fill="#cccccc"  xml:space="preserve" font-size="6.97975" transform="translate(256.602, 319.487) rotate(270)" >VDDd</text>
<text fill="#cccccc"  xml:space="preserve" font-size="6.97975" transform="translate(270.024, 317.487) rotate(270)" >VSSd</text>
<text fill="#cccccc"  xml:space="preserve" font-size="6.97975" transform="translate(216.334, 340.755) rotate(270)" >CA</text>
<text fill="#cccccc"  xml:space="preserve" font-size="6.97975" transform="translate(266.669, 340.755) rotate(270)" >CB</text>
<text fill="#00ccee"  xml:space="preserve" font-size="11.5166" transform="translate(197.551, 370.144) rotate(270)" >P22</text>
<text fill="#00ccee"  xml:space="preserve" font-size="11.5166" transform="translate(291.509, 370.144) rotate(270)" >P23</text>
<text fill="#00ccee"  xml:space="preserve" font-size="11.5166" transform="translate(257.953, 278.675) rotate(270)" >VDDd</text>
<text fill="#00ccee"  xml:space="preserve" font-size="11.5166" transform="translate(271.375, 278.675) rotate(270)" >VSSd</text>
<text fill="#00ccee"  xml:space="preserve" font-size="11.5166" transform="translate(237.819, 462.546) rotate(270)" >10*VDDd</text>
<text fill="#00ccee"  xml:space="preserve" font-size="11.5166" transform="translate(251.241, 458.546) rotate(270)" >10*VSSd</text>
<text fill="#cccccc"  xml:space="preserve" font-size="10.4696" transform="translate(1352.93, 252.276)" >bias</text>
<text fill="#cccccc"  xml:space="preserve" font-size="6.97975" transform="translate(1367.02, 332.328)" >x8</text>
<text fill="#cccccc"  xml:space="preserve" font-size="6.97975" transform="translate(1342.74, 267.228)" >BIAS(I/V)</text>
<text fill="#cccccc"  xml:space="preserve" font-size="6.97975" transform="translate(1343.53, 321.637)" >VSS</text>
<text fill="#00ccee"  xml:space="preserve" font-size="11.5166" transform="translate(1345.21, 342.403)" >VSS</text>
<text fill="#ffff00"  xml:space="preserve" font-size="11.5166" transform="translate(806.643, 483.341)" >DR[1:10]</text>
<text fill="#ff00ff"  xml:space="preserve" font-size="11.5166" transform="translate(799.643, 496.763)" >DRb[1:10]</text>
<text fill="#ffff00"  xml:space="preserve" font-size="11.5166" transform="translate(895.526, 226.65) rotate(270)" >DR[1:10]</text>
<text fill="#ff00ff"  xml:space="preserve" font-size="11.5166" transform="translate(908.949, 233.65) rotate(270)" >DRb[1:10]</text>
<path class="l1" d="M1266.35 297.131L1306.62 297.131"/>
<path class="l1" d="M1306.62 243.441L1306.62 297.131"/>
<path class="l1" d="M1306.62 243.441L1340.18 243.441"/>
<text fill="#cccccc"  xml:space="preserve" font-size="13.9595" transform="translate(1487.83, 376.92)" >GPIO_A1</text>
<text fill="#cccccc"  xml:space="preserve" font-size="13.9595" transform="translate(856.965, 363.497)" >GPIO_A3</text>
<text fill="#cccccc"  xml:space="preserve" font-size="13.9595" transform="translate(420.731, 128.602)" >GPIO_A4</text>
<text fill="#88dd00"  xml:space="preserve" font-size="10.4696" transform="translate(145.568, 360.328)" >1</text>
<text fill="#cccccc"  xml:space="preserve" font-size="13.9595" transform="translate(937.501, 618.526)" >GPIO_A2</text>
<text fill="#cccccc"  xml:space="preserve" font-size="13.9595" transform="translate(51.6095, 336.652)" >GPIO_A0</text>
<text fill="#88dd00"  xml:space="preserve" font-size="10.4696" transform="translate(1427.43, 373.751)" >2</text>
<text fill="#88dd00"  xml:space="preserve" font-size="10.4696" transform="translate(1132.13, 454.286)" >3</text>
<text fill="#88dd00"  xml:space="preserve" font-size="10.4696" transform="translate(984.48, 125.433)" >4</text>
<text fill="#88dd00"  xml:space="preserve" font-size="10.4696" transform="translate(930.79, 581.801)" >5</text>
<text fill="#88dd00"  xml:space="preserve" font-size="10.4696" transform="translate(1065.02, 360.328)" >6</text>
<text fill="#88dd00"  xml:space="preserve" font-size="10.4696" transform="translate(930.79, 393.885)" >7</text>
<text fill="#88dd00"  xml:space="preserve" font-size="10.4696" transform="translate(326.773, 360.328)" >10</text>
<text fill="#88dd00"  xml:space="preserve" font-size="10.4696" transform="translate(796.564, 125.433)" >11</text>
<text fill="#cccccc"  xml:space="preserve" font-size="13.9595" transform="translate(823.409, 316.518)" >R1</text>
<text fill="#cccccc"  xml:space="preserve" font-size="13.9595" transform="translate(521.4, 517.857)" >C2</text>
<text fill="#cccccc"  xml:space="preserve" font-size="13.9595" transform="translate(179.124, 652.083)" >TGATE BUS: GPIO_A0</text>
<text fill="#cccccc"  xml:space="preserve" font-size="13.9595" transform="translate(447.576, 652.083)" >TGATE BUS: GPIO_A1</text>
<text fill="#cccccc"  xml:space="preserve" font-size="13.9595" transform="translate(716.028, 652.083)" >TGATE BUS: GPIO_A2</text>
<text fill="#cccccc"  xml:space="preserve" font-size="13.9595" transform="translate(984.48, 652.083)" >TGATE BUS: GPIO_A3</text>
<text fill="#cccccc"  xml:space="preserve" font-size="13.9595" transform="translate(1252.93, 652.083)" >TGATE BUS: GPIO_A4</text>
<text fill="#cccccc"  xml:space="preserve" font-size="13.9595" transform="translate(709.317, 551.413)" >R2</text>
<text fill="#88dd00"  xml:space="preserve" font-size="10.4696" transform="translate(682.472, 360.328)" >8</text>
<text fill="#88dd00"  xml:space="preserve" font-size="10.4696" transform="translate(501.267, 360.328)" >9</text>
<text fill="#cccccc"  xml:space="preserve" font-size="13.9595" transform="translate(165.702, 517.857)" >C1</text>
</svg>
