<svg xmlns="http://www.w3.org/2000/svg" xmlns:xlink="http://www.w3.org/1999/xlink" width="1680" height="897" version="1.1">
<style type="text/css">
.l0{
  fill: #000000;
  stroke: #000000;
  stroke-linecap:round;
  stroke-linejoin:round;
  stroke-width: 0.906025;
}
.l1{
  fill: #00ccee;
  stroke: #00ccee;
  stroke-linecap:round;
  stroke-linejoin:round;
  stroke-width: 0.906025;
}
.l2{
  fill: #4f4f4f; fill-opacity: 0.2;
  stroke: #4f4f4f;
  stroke-linecap:round;
  stroke-linejoin:round;
  stroke-width: 0.906025;
}
.l3{
  fill: #cccccc; fill-opacity: 0.5;
  stroke: #cccccc;
  stroke-linecap:round;
  stroke-linejoin:round;
  stroke-width: 0.906025;
}
.l4{
  fill: #88dd00;
  stroke: #88dd00;
  stroke-linecap:round;
  stroke-linejoin:round;
  stroke-width: 0.906025;
}
.l5{
  fill: #bb2200;
  stroke: #bb2200;
  stroke-linecap:round;
  stroke-linejoin:round;
  stroke-width: 0.906025;
}
.l6{
  fill: #00ccee; fill-opacity: 0.5;
  stroke: #00ccee;
  stroke-linecap:round;
  stroke-linejoin:round;
  stroke-width: 0.906025;
}
.l7{
  fill: #ff0000; fill-opacity: 0.5;
  stroke: #ff0000;
  stroke-linecap:round;
  stroke-linejoin:round;
  stroke-width: 0.906025;
}
.l8{
  fill: #ffff00; fill-opacity: 0.5;
  stroke: #ffff00;
  stroke-linecap:round;
  stroke-linejoin:round;
  stroke-width: 0.906025;
}
.l9{
  fill: #ffffff; fill-opacity: 0.5;
  stroke: #ffffff;
  stroke-linecap:round;
  stroke-linejoin:round;
  stroke-width: 0.906025;
}
.l10{
  fill: #ff00ff;
  stroke: #ff00ff;
  stroke-linecap:round;
  stroke-linejoin:round;
  stroke-width: 0.906025;
}
.l11{
  fill: #00ff00; fill-opacity: 0.5;
  stroke: #00ff00;
  stroke-linecap:round;
  stroke-linejoin:round;
  stroke-width: 0.906025;
}
.l12{
  fill: #0044ff; fill-opacity: 0.5;
  stroke: #0044ff;
  stroke-linecap:round;
  stroke-linejoin:round;
  stroke-width: 0.906025;
}
.l13{
  fill: #aaaa00; fill-opacity: 0.5;
  stroke: #aaaa00;
  stroke-linecap:round;
  stroke-linejoin:round;
  stroke-width: 0.906025;
}
.l14{
  fill: #aaccaa; fill-opacity: 0.2;
  stroke: #aaccaa;
  stroke-linecap:round;
  stroke-linejoin:round;
  stroke-width: 0.906025;
}
.l15{
  fill: #ff7777; fill-opacity: 0.5;
  stroke: #ff7777;
  stroke-linecap:round;
  stroke-linejoin:round;
  stroke-width: 0.906025;
}
.l16{
  fill: #bfff81; fill-opacity: 0.5;
  stroke: #bfff81;
  stroke-linecap:round;
  stroke-linejoin:round;
  stroke-width: 0.906025;
}
.l17{
  fill: #00ffcc; fill-opacity: 0.2;
  stroke: #00ffcc;
  stroke-linecap:round;
  stroke-linejoin:round;
  stroke-width: 0.906025;
}
.l18{
  fill: #ce0097; fill-opacity: 0.5;
  stroke: #ce0097;
  stroke-linecap:round;
  stroke-linejoin:round;
  stroke-width: 0.906025;
}
.l19{
  fill: #d2d46b; fill-opacity: 0.2;
  stroke: #d2d46b;
  stroke-linecap:round;
  stroke-linejoin:round;
  stroke-width: 0.906025;
}
.l20{
  fill: #ef6158; fill-opacity: 0.2;
  stroke: #ef6158;
  stroke-linecap:round;
  stroke-linejoin:round;
  stroke-width: 0.906025;
}
.l21{
  fill: #fdb200; fill-opacity: 0.2;
  stroke: #fdb200;
  stroke-linecap:round;
  stroke-linejoin:round;
  stroke-width: 0.906025;
}
text {font-family: Sans-Serif;}
</style>
<rect class="l0" x="0" y="0" width="1680" height="897"/>
<path class="l4" stroke-dasharray="9.39582,9.39582" d="M1104.12 353.885L1104.12 420.998"/>
<path class="l4" stroke-dasharray="9.39582,9.39582" d="M1278.62 340.462L1399.42 340.462"/>
<path class="l4" stroke-dasharray="9.39582,9.39582" d="M1104.12 353.885L1157.81 353.885"/>
<path class="l4" stroke-dasharray="9.39582,9.39582" d="M1057.14 327.04L1157.81 327.04"/>
<path class="l4" stroke-dasharray="9.39582,9.39582" d="M298.768 327.04L332.325 327.04"/>
<path class="l4" stroke-dasharray="9.39582,9.39582" d="M171.254 327.04L204.81 327.04"/>
<path class="l4" stroke-dasharray="9.39582,9.39582" d="M1399.42 340.462L1520.22 340.462"/>
<path class="l4" stroke-dasharray="9.39582,9.39582" d="M1459.82 340.462L1459.82 467.977"/>
<path class="l4" stroke-dasharray="9.39582,9.39582" d="M1104.12 420.998L1104.12 467.977"/>
<path class="l4" stroke-dasharray="9.39582,9.39582" d="M1104.12 467.977L1459.82 467.977"/>
<path class="l4" stroke-dasharray="9.39582,9.39582" d="M688.024 327.04L1057.14 327.04"/>
<path class="l4" stroke-dasharray="9.39582,9.39582" d="M332.325 327.04L526.952 327.04"/>
<path class="l4" stroke-dasharray="9.39582,9.39582" d="M902.785 387.441L902.785 420.998"/>
<path class="l4" stroke-dasharray="9.39582,9.39582" d="M902.785 514.956L902.785 548.512"/>
<path class="l4" stroke-dasharray="9.39582,9.39582" d="M902.785 327.04L902.785 387.441"/>
<path class="l4" stroke-dasharray="9.39582,9.39582" d="M902.785 548.512L902.785 608.914"/>
<path class="l4" stroke-dasharray="9.39582,9.39582" d="M795.404 105.567L828.961 105.567"/>
<path class="l4" stroke-dasharray="9.39582,9.39582" d="M922.919 105.567L956.475 105.567"/>
<path class="l4" stroke-dasharray="9.39582,9.39582" d="M426.283 105.567L795.404 105.567"/>
<path class="l4" stroke-dasharray="9.39582,9.39582" d="M956.475 105.567L1459.82 105.567"/>
<path class="l4" stroke-dasharray="9.39582,9.39582" d="M426.283 105.567L426.283 327.04"/>
<path class="l4" stroke-dasharray="9.39582,9.39582" d="M1459.82 105.567L1459.82 340.462"/>
<path class="l4" stroke-dasharray="9.39582,9.39582" d="M50.4503 327.04L171.254 327.04"/>
<path class="l4" stroke-dasharray="9.39582,9.39582" d="M654.467 327.04L688.024 327.04"/>
<path class="l4" stroke-dasharray="9.39582,9.39582" d="M526.952 327.04L560.509 327.04"/>
<path class="l4" d="M1100.77 417.642L1107.48 417.642L1107.48 424.353L1100.77 424.353L1100.77 417.642z"/>
<path class="l4" d="M1396.07 337.106L1402.78 337.106L1402.78 343.818L1396.07 343.818L1396.07 337.106z"/>
<path class="l4" d="M1053.79 323.684L1060.5 323.684L1060.5 330.395L1053.79 330.395L1053.79 323.684z"/>
<path class="l4" d="M684.668 323.684L691.379 323.684L691.379 330.395L684.668 330.395L684.668 323.684z"/>
<path class="l4" d="M523.597 323.684L530.308 323.684L530.308 330.395L523.597 330.395L523.597 323.684z"/>
<path class="l4" d="M328.969 323.684L335.68 323.684L335.68 330.395L328.969 330.395L328.969 323.684z"/>
<path class="l4" d="M899.429 384.086L906.141 384.086L906.141 390.797L899.429 390.797L899.429 384.086z"/>
<path class="l4" d="M899.429 545.157L906.141 545.157L906.141 551.868L899.429 551.868L899.429 545.157z"/>
<path class="l4" d="M792.049 102.211L798.76 102.211L798.76 108.922L792.049 108.922L792.049 102.211z"/>
<path class="l4" d="M953.12 102.211L959.831 102.211L959.831 108.922L953.12 108.922L953.12 102.211z"/>
<path class="l4" d="M167.898 323.684L174.609 323.684L174.609 330.395L167.898 330.395L167.898 323.684z"/>
<path class="l4" style="fill:none;" d="M1057.14 212.947L1057.14 420.998L1399.42 420.998L1399.42 212.947L1057.14 212.947"/>
<path class="l4" style="fill:none;" d="M526.952 212.947L526.952 548.512L688.024 548.512L688.024 212.947L526.952 212.947"/>
<path class="l4" style="fill:none;" d="M171.254 212.947L171.254 548.512L332.325 548.512L332.325 212.947L171.254 212.947"/>
<path class="l4" style="fill:none;" d="M721.58 387.441L721.58 548.512L1030.3 548.512L1030.3 387.441L721.58 387.441"/>
<path class="l4" style="fill:none;" d="M795.404 286.772L956.475 286.772L956.475 -21.948L795.404 -21.948L795.404 286.772"/>
<path class="l4" style="fill:none;" d="M144.408 649.182L144.408 1112.26L399.438 1112.26L399.438 649.182L144.408 649.182"/>
<path class="l4" style="fill:none;" d="M412.86 649.182L412.86 1112.26L667.89 1112.26L667.89 649.182L412.86 649.182"/>
<path class="l4" style="fill:none;" d="M681.312 649.182L681.312 1112.26L936.342 1112.26L936.342 649.182L681.312 649.182"/>
<path class="l4" style="fill:none;" d="M949.764 649.182L949.764 1112.26L1204.79 1112.26L1204.79 649.182L949.764 649.182"/>
<path class="l4" style="fill:none;" d="M1218.22 649.182L1218.22 1112.26L1473.25 1112.26L1473.25 649.182L1218.22 649.182"/>
<path class="l4" d="M1157.81 327.04L1171.24 327.04"/>
<path class="l4" d="M1157.81 353.885L1171.24 353.885"/>
<path class="l4" d="M1245.06 280.06L1245.06 293.483"/>
<path class="l4" d="M1265.2 340.462L1278.62 340.462"/>
<path class="l4" d="M1191.37 353.885L1204.79 353.885"/>
<path class="l4" d="M1198.08 320.328L1198.08 333.751"/>
<path class="l4" d="M1191.37 327.04L1204.79 327.04"/>
<path class="l4" d="M1258.48 340.462L1265.2 340.462"/>
<path class="l4" d="M1171.24 327.04L1184.66 327.04"/>
<path class="l4" d="M1171.24 353.885L1184.66 353.885"/>
<path class="l4" style="fill:none;" d="M1184.66 300.194L1184.66 380.73L1258.48 340.462L1184.66 300.194"/>
<path class="l4" style="fill:none;" d="M1171.24 293.483L1265.2 293.483L1265.2 387.441L1171.24 387.441L1171.24 293.483"/>
<path class="l4" d="M198.099 696.161L211.521 696.161"/>
<path class="l4" d="M198.099 709.584L211.521 709.584"/>
<path class="l4" style="fill:none;" d="M305.48 689.45L211.521 689.45L211.521 743.14L305.48 743.14L305.48 689.45"/>
<path class="l4" d="M842.383 461.265L855.806 461.265"/>
<path class="l4" d="M842.383 474.688L855.806 474.688"/>
<path class="l4" d="M892.718 464.621L912.852 464.621"/>
<path class="l4" d="M892.718 471.332L912.852 471.332"/>
<path class="l4" d="M892.718 478.044L912.852 457.91"/>
<path class="l4" d="M909.496 457.91L912.852 457.91"/>
<path class="l4" d="M912.852 457.91L912.852 461.265"/>
<path class="l4" d="M902.785 434.42L902.785 464.621"/>
<path class="l4" d="M902.785 471.332L902.785 501.533"/>
<path class="l4" d="M902.785 420.998L902.785 434.42"/>
<path class="l4" d="M902.785 501.533L902.785 514.956"/>
<path class="l4" d="M949.764 481.399L963.187 481.399"/>
<path class="l4" d="M949.764 494.822L963.187 494.822"/>
<path class="l4" style="fill:none;" d="M949.764 434.42L855.806 434.42L855.806 501.533L949.764 501.533L949.764 434.42"/>
<path class="l4" d="M1245.06 239.793L1245.06 249.86"/>
<path class="l4" d="M1245.06 269.993L1245.06 280.06"/>
<path class="l4" d="M1246.74 244.826L1250.09 244.826"/>
<path class="l4" d="M1248.42 243.148L1248.42 246.504"/>
<path class="l4" d="M1245.06 254.893L1245.06 261.604L1246.74 261.604L1245.06 266.638L1243.38 261.604L1245.06 261.604L1245.06 254.893"/>
<circle class="l4" cx="1245.06" cy="259.927" r="10.0669" style="fill:none;" />
<path class="l4" d="M245.078 374.019L245.078 387.441"/>
<path class="l4" d="M258.5 374.019L258.5 387.441"/>
<path class="l4" d="M263.534 322.006L265.212 327.04"/>
<path class="l4" d="M260.178 332.073L263.534 322.006"/>
<path class="l4" d="M256.823 322.006L260.178 332.073"/>
<path class="l4" d="M253.467 332.073L256.823 322.006"/>
<path class="l4" d="M250.111 322.006L253.467 332.073"/>
<path class="l4" d="M246.756 332.073L250.111 322.006"/>
<path class="l4" d="M243.4 322.006L246.756 332.073"/>
<path class="l4" d="M240.044 332.073L243.4 322.006"/>
<path class="l4" d="M238.367 327.04L240.044 332.073"/>
<path class="l4" d="M204.81 327.04L218.233 327.04"/>
<path class="l4" d="M285.346 327.04L298.768 327.04"/>
<path class="l4" d="M265.212 266.638L265.212 280.06"/>
<path class="l4" d="M278.634 266.638L278.634 280.06"/>
<path class="l4" d="M218.233 327.04L238.367 327.04"/>
<path class="l4" d="M251.789 266.638L251.789 280.06"/>
<path class="l4" d="M248.434 316.973L251.789 320.328"/>
<path class="l4" d="M251.789 320.328L255.145 316.973"/>
<path class="l4" d="M265.212 327.04L271.923 327.04"/>
<path class="l4" d="M278.634 327.04L285.346 327.04"/>
<path class="l4" d="M251.789 310.261L278.634 310.261"/>
<path class="l4" d="M278.634 310.261L278.634 327.04"/>
<path class="l4" d="M251.789 310.261L251.789 320.328"/>
<path class="l4" style="fill:none;" d="M218.233 280.06L218.233 374.019L285.346 374.019L285.346 280.06L218.233 280.06"/>
<path class="l4" d="M869.229 152.546L869.229 165.968"/>
<path class="l4" d="M882.651 152.546L882.651 165.968"/>
<path class="l4" d="M872.584 95.4997L872.584 115.634"/>
<path class="l4" d="M879.296 95.4997L879.296 115.634"/>
<path class="l4" d="M865.873 95.4997L886.007 115.634"/>
<path class="l4" d="M865.873 95.4997L865.873 98.8554"/>
<path class="l4" d="M865.873 95.4997L869.229 95.4997"/>
<path class="l4" d="M842.383 105.567L872.584 105.567"/>
<path class="l4" d="M879.296 105.567L909.496 105.567"/>
<path class="l4" d="M828.961 105.567L842.383 105.567"/>
<path class="l4" d="M909.496 105.567L922.919 105.567"/>
<path class="l4" d="M889.363 45.165L889.363 58.5876"/>
<path class="l4" d="M902.785 45.165L902.785 58.5876"/>
<path class="l4" style="fill:none;" d="M842.383 58.5876L842.383 152.546L909.496 152.546L909.496 58.5876L842.383 58.5876"/>
<path class="l4" d="M466.551 696.161L479.973 696.161"/>
<path class="l4" d="M466.551 709.584L479.973 709.584"/>
<path class="l4" style="fill:none;" d="M573.932 689.45L479.973 689.45L479.973 743.14L573.932 743.14L573.932 689.45"/>
<path class="l4" d="M735.003 696.161L748.425 696.161"/>
<path class="l4" d="M735.003 709.584L748.425 709.584"/>
<path class="l4" style="fill:none;" d="M842.383 689.45L748.425 689.45L748.425 743.14L842.383 743.14L842.383 689.45"/>
<path class="l4" d="M1003.45 696.161L1016.88 696.161"/>
<path class="l4" d="M1003.45 709.584L1016.88 709.584"/>
<path class="l4" style="fill:none;" d="M1110.84 689.45L1016.88 689.45L1016.88 743.14L1110.84 743.14L1110.84 689.45"/>
<path class="l4" d="M1271.91 696.161L1285.33 696.161"/>
<path class="l4" d="M1271.91 709.584L1285.33 709.584"/>
<path class="l4" style="fill:none;" d="M1379.29 689.45L1285.33 689.45L1285.33 743.14L1379.29 743.14L1379.29 689.45"/>
<path class="l4" d="M466.551 763.274L479.973 763.274"/>
<path class="l4" d="M466.551 776.696L479.973 776.696"/>
<path class="l4" style="fill:none;" d="M573.932 756.563L479.973 756.563L479.973 810.253L573.932 810.253L573.932 756.563"/>
<path class="l4" d="M466.551 830.387L479.973 830.387"/>
<path class="l4" d="M466.551 843.809L479.973 843.809"/>
<path class="l4" style="fill:none;" d="M573.932 823.676L479.973 823.676L479.973 877.366L573.932 877.366L573.932 823.676"/>
<path class="l4" d="M1003.45 763.274L1016.88 763.274"/>
<path class="l4" d="M1003.45 776.696L1016.88 776.696"/>
<path class="l4" style="fill:none;" d="M1110.84 756.563L1016.88 756.563L1016.88 810.253L1110.84 810.253L1110.84 756.563"/>
<path class="l4" d="M1003.45 830.387L1016.88 830.387"/>
<path class="l4" d="M1003.45 843.809L1016.88 843.809"/>
<path class="l4" style="fill:none;" d="M1110.84 823.676L1016.88 823.676L1016.88 877.366L1110.84 877.366L1110.84 823.676"/>
<path class="l4" d="M1271.91 763.274L1285.33 763.274"/>
<path class="l4" d="M1271.91 776.696L1285.33 776.696"/>
<path class="l4" style="fill:none;" d="M1379.29 756.563L1285.33 756.563L1285.33 810.253L1379.29 810.253L1379.29 756.563"/>
<path class="l4" d="M600.777 374.019L600.777 387.441"/>
<path class="l4" d="M614.199 374.019L614.199 387.441"/>
<path class="l4" d="M619.233 322.006L620.911 327.04"/>
<path class="l4" d="M615.877 332.073L619.233 322.006"/>
<path class="l4" d="M612.521 322.006L615.877 332.073"/>
<path class="l4" d="M609.166 332.073L612.521 322.006"/>
<path class="l4" d="M605.81 322.006L609.166 332.073"/>
<path class="l4" d="M602.455 332.073L605.81 322.006"/>
<path class="l4" d="M599.099 322.006L602.455 332.073"/>
<path class="l4" d="M595.743 332.073L599.099 322.006"/>
<path class="l4" d="M594.065 327.04L595.743 332.073"/>
<path class="l4" d="M560.509 327.04L573.932 327.04"/>
<path class="l4" d="M641.044 327.04L654.467 327.04"/>
<path class="l4" d="M620.911 266.638L620.911 280.06"/>
<path class="l4" d="M634.333 266.638L634.333 280.06"/>
<path class="l4" d="M573.932 327.04L594.065 327.04"/>
<path class="l4" d="M607.488 266.638L607.488 280.06"/>
<path class="l4" d="M604.132 316.973L607.488 320.328"/>
<path class="l4" d="M607.488 320.328L610.844 316.973"/>
<path class="l4" d="M620.911 327.04L627.622 327.04"/>
<path class="l4" d="M634.333 327.04L641.044 327.04"/>
<path class="l4" d="M607.488 310.261L634.333 310.261"/>
<path class="l4" d="M634.333 310.261L634.333 327.04"/>
<path class="l4" d="M607.488 310.261L607.488 320.328"/>
<path class="l4" style="fill:none;" d="M573.932 280.06L573.932 374.019L641.044 374.019L641.044 280.06L573.932 280.06"/>
<path class="l4" d="M1271.91 830.387L1285.33 830.387"/>
<path class="l4" d="M1271.91 843.809L1285.33 843.809"/>
<path class="l4" style="fill:none;" d="M1379.29 823.676L1285.33 823.676L1285.33 877.366L1379.29 877.366L1379.29 823.676"/>
<path class="l4" d="M1327.27 264.96L1327.27 295.161"/>
<path class="l4" d="M1318.89 259.927L1318.89 268.316"/>
<path class="l4" d="M1318.89 291.805L1318.89 306.906"/>
<path class="l4" d="M1330.63 269.993L1330.63 290.127"/>
<path class="l4" d="M1318.89 268.316L1327.27 268.316"/>
<path class="l4" d="M1322.24 291.805L1327.27 291.805"/>
<path class="l4" d="M1330.63 280.06L1344.05 280.06"/>
<path class="l4" d="M1318.89 306.906L1318.89 320.328"/>
<path class="l4" d="M1318.89 226.37L1318.89 246.504"/>
<path class="l4" style="fill:none;" d="M1355.8 239.793L1305.46 239.793L1305.46 306.906L1355.8 306.906L1355.8 239.793"/>
<path class="l4" d="M1322.24 290.127L1318.89 291.805L1322.24 293.483L1322.24 290.127"/>
<path class="l4" style="fill:none;" d="M1345.73 280.06"/>
<path class="l4" style="fill:none;" d="M1344.05 280.06L1344.05 253.215L1318.89 253.215L1318.89 259.927"/>
<path class="l4" style="fill:none;" d="M1318.89 246.504L1318.89 253.215"/>
<path class="l5" d="M1156.14 325.362L1159.49 325.362L1159.49 328.717L1156.14 328.717L1156.14 325.362z"/>
<path class="l5" d="M1156.14 352.207L1159.49 352.207L1159.49 355.563L1156.14 355.563L1156.14 352.207z"/>
<path class="l5" d="M1243.38 278.383L1246.74 278.383L1246.74 281.738L1243.38 281.738L1243.38 278.383z"/>
<path class="l5" d="M1276.94 338.784L1280.3 338.784L1280.3 342.14L1276.94 342.14L1276.94 338.784z"/>
<path class="l5" d="M1216.54 278.383L1219.89 278.383L1219.89 281.738L1216.54 281.738L1216.54 278.383z"/>
<path class="l5" d="M1216.54 399.186L1219.89 399.186L1219.89 402.542L1216.54 402.542L1216.54 399.186z"/>
<path class="l5" d="M317.224 694.483L320.58 694.483L320.58 697.839L317.224 697.839L317.224 694.483z"/>
<path class="l5" d="M196.421 694.483L199.777 694.483L199.777 697.839L196.421 697.839L196.421 694.483z"/>
<path class="l5" d="M196.421 707.906L199.777 707.906L199.777 711.261L196.421 711.261L196.421 707.906z"/>
<path class="l5" d="M317.224 707.906L320.58 707.906L320.58 711.261L317.224 711.261L317.224 707.906z"/>
<path class="l5" d="M317.224 721.328L320.58 721.328L320.58 724.684L317.224 724.684L317.224 721.328z"/>
<path class="l5" d="M317.224 734.751L320.58 734.751L320.58 738.107L317.224 738.107L317.224 734.751z"/>
<path class="l5" d="M1277.78 339.623L1279.46 339.623L1279.46 341.301L1277.78 341.301L1277.78 339.623z"/>
<path class="l5" d="M1156.98 353.046L1158.65 353.046L1158.65 354.724L1156.98 354.724L1156.98 353.046z"/>
<path class="l5" d="M1217.38 400.025L1219.06 400.025L1219.06 401.703L1217.38 401.703L1217.38 400.025z"/>
<path class="l5" d="M1217.38 279.222L1219.06 279.222L1219.06 280.899L1217.38 280.899L1217.38 279.222z"/>
<path class="l5" d="M840.706 459.588L844.061 459.588L844.061 462.943L840.706 462.943L840.706 459.588z"/>
<path class="l5" d="M840.706 473.01L844.061 473.01L844.061 476.366L840.706 476.366L840.706 473.01z"/>
<path class="l5" d="M961.509 479.722L964.865 479.722L964.865 483.077L961.509 483.077L961.509 479.722z"/>
<path class="l5" d="M961.509 493.144L964.865 493.144L964.865 496.5L961.509 496.5L961.509 493.144z"/>
<path class="l5" d="M901.107 419.32L904.463 419.32L904.463 422.676L901.107 422.676L901.107 419.32z"/>
<path class="l5" d="M901.107 513.278L904.463 513.278L904.463 516.634L901.107 516.634L901.107 513.278z"/>
<path class="l5" d="M901.946 420.159L903.624 420.159L903.624 421.837L901.946 421.837L901.946 420.159z"/>
<path class="l5" d="M901.946 514.117L903.624 514.117L903.624 515.795L901.946 515.795L901.946 514.117z"/>
<path class="l5" d="M962.348 480.56L964.026 480.56L964.026 482.238L962.348 482.238L962.348 480.56z"/>
<path class="l5" d="M962.348 493.983L964.026 493.983L964.026 495.661L962.348 495.661L962.348 493.983z"/>
<path class="l5" d="M197.26 695.322L198.938 695.322L198.938 697L197.26 697L197.26 695.322z"/>
<path class="l5" d="M197.26 708.745L198.938 708.745L198.938 710.422L197.26 710.422L197.26 708.745z"/>
<path class="l5" d="M318.063 695.322L319.741 695.322L319.741 697L318.063 697L318.063 695.322z"/>
<path class="l19" d="M318.063 708.745L319.741 708.745L319.741 710.422L318.063 710.422L318.063 708.745z"/>
<path class="l5" d="M318.063 735.59L319.741 735.59L319.741 737.268L318.063 737.268L318.063 735.59z"/>
<path class="l5" d="M318.063 722.167L319.741 722.167L319.741 723.845L318.063 723.845L318.063 722.167z"/>
<path class="l5" d="M1243.38 238.115L1246.74 238.115L1246.74 241.47L1243.38 241.47L1243.38 238.115z"/>
<path class="l5" d="M1243.38 278.383L1246.74 278.383L1246.74 281.738L1243.38 281.738L1243.38 278.383z"/>
<path class="l5" d="M1244.22 238.954L1245.9 238.954L1245.9 240.632L1244.22 240.632L1244.22 238.954z"/>
<path class="l5" d="M1156.98 326.201L1158.65 326.201L1158.65 327.878L1156.98 327.878L1156.98 326.201z"/>
<path class="l5" d="M243.4 385.763L246.756 385.763L246.756 389.119L243.4 389.119L243.4 385.763z"/>
<path class="l5" d="M256.823 385.763L260.178 385.763L260.178 389.119L256.823 389.119L256.823 385.763z"/>
<path class="l5" d="M203.132 325.362L206.488 325.362L206.488 328.717L203.132 328.717L203.132 325.362z"/>
<path class="l5" d="M297.09 325.362L300.446 325.362L300.446 328.717L297.09 328.717L297.09 325.362z"/>
<path class="l5" d="M250.111 264.96L253.467 264.96L253.467 268.316L250.111 268.316L250.111 264.96z"/>
<path class="l5" d="M263.534 264.96L266.89 264.96L266.89 268.316L263.534 268.316L263.534 264.96z"/>
<path class="l5" d="M276.957 264.96L280.312 264.96L280.312 268.316L276.957 268.316L276.957 264.96z"/>
<path class="l5" d="M203.971 326.201L205.649 326.201L205.649 327.878L203.971 327.878L203.971 326.201z"/>
<path class="l5" d="M297.929 326.201L299.607 326.201L299.607 327.878L297.929 327.878L297.929 326.201z"/>
<path class="l5" d="M250.95 265.799L252.628 265.799L252.628 267.477L250.95 267.477L250.95 265.799z"/>
<path class="l5" d="M264.373 265.799L266.051 265.799L266.051 267.477L264.373 267.477L264.373 265.799z"/>
<path class="l5" d="M277.795 265.799L279.473 265.799L279.473 267.477L277.795 267.477L277.795 265.799z"/>
<path class="l10" d="M244.239 386.602L245.917 386.602L245.917 388.28L244.239 388.28L244.239 386.602z"/>
<path class="l7" d="M257.662 386.602L259.339 386.602L259.339 388.28L257.662 388.28L257.662 386.602z"/>
<path class="l5" d="M867.551 164.291L870.906 164.291L870.906 167.646L867.551 167.646L867.551 164.291z"/>
<path class="l5" d="M880.973 164.291L884.329 164.291L884.329 167.646L880.973 167.646L880.973 164.291z"/>
<path class="l5" d="M887.685 43.4872L891.04 43.4872L891.04 46.8428L887.685 46.8428L887.685 43.4872z"/>
<path class="l5" d="M901.107 43.4872L904.463 43.4872L904.463 46.8428L901.107 46.8428L901.107 43.4872z"/>
<path class="l5" d="M827.283 103.889L830.639 103.889L830.639 107.245L827.283 107.245L827.283 103.889z"/>
<path class="l5" d="M921.241 103.889L924.597 103.889L924.597 107.245L921.241 107.245L921.241 103.889z"/>
<path class="l5" d="M828.122 104.728L829.8 104.728L829.8 106.406L828.122 106.406L828.122 104.728z"/>
<path class="l5" d="M922.08 104.728L923.758 104.728L923.758 106.406L922.08 106.406L922.08 104.728z"/>
<path class="l5" d="M888.524 44.3261L890.201 44.3261L890.201 46.0039L888.524 46.0039L888.524 44.3261z"/>
<path class="l5" d="M901.946 44.3261L903.624 44.3261L903.624 46.0039L901.946 46.0039L901.946 44.3261z"/>
<path class="l5" d="M585.676 694.483L589.032 694.483L589.032 697.839L585.676 697.839L585.676 694.483z"/>
<path class="l5" d="M464.873 694.483L468.229 694.483L468.229 697.839L464.873 697.839L464.873 694.483z"/>
<path class="l5" d="M464.873 707.906L468.229 707.906L468.229 711.261L464.873 711.261L464.873 707.906z"/>
<path class="l5" d="M585.676 707.906L589.032 707.906L589.032 711.261L585.676 711.261L585.676 707.906z"/>
<path class="l5" d="M585.676 721.328L589.032 721.328L589.032 724.684L585.676 724.684L585.676 721.328z"/>
<path class="l5" d="M585.676 734.751L589.032 734.751L589.032 738.107L585.676 738.107L585.676 734.751z"/>
<path class="l5" d="M465.712 695.322L467.39 695.322L467.39 697L465.712 697L465.712 695.322z"/>
<path class="l5" d="M465.712 708.745L467.39 708.745L467.39 710.422L465.712 710.422L465.712 708.745z"/>
<path class="l5" d="M586.515 695.322L588.193 695.322L588.193 697L586.515 697L586.515 695.322z"/>
<path class="l5" d="M586.515 708.745L588.193 708.745L588.193 710.422L586.515 710.422L586.515 708.745z"/>
<path class="l5" d="M586.515 735.59L588.193 735.59L588.193 737.268L586.515 737.268L586.515 735.59z"/>
<path class="l5" d="M586.515 722.167L588.193 722.167L588.193 723.845L586.515 723.845L586.515 722.167z"/>
<path class="l5" d="M854.128 694.483L857.484 694.483L857.484 697.839L854.128 697.839L854.128 694.483z"/>
<path class="l5" d="M733.325 694.483L736.68 694.483L736.68 697.839L733.325 697.839L733.325 694.483z"/>
<path class="l5" d="M733.325 707.906L736.68 707.906L736.68 711.261L733.325 711.261L733.325 707.906z"/>
<path class="l5" d="M854.128 707.906L857.484 707.906L857.484 711.261L854.128 711.261L854.128 707.906z"/>
<path class="l5" d="M854.128 721.328L857.484 721.328L857.484 724.684L854.128 724.684L854.128 721.328z"/>
<path class="l5" d="M854.128 734.751L857.484 734.751L857.484 738.107L854.128 738.107L854.128 734.751z"/>
<path class="l5" d="M734.164 695.322L735.842 695.322L735.842 697L734.164 697L734.164 695.322z"/>
<path class="l5" d="M734.164 708.745L735.842 708.745L735.842 710.422L734.164 710.422L734.164 708.745z"/>
<path class="l5" d="M854.967 695.322L856.645 695.322L856.645 697L854.967 697L854.967 695.322z"/>
<path class="l20" d="M854.967 708.745L856.645 708.745L856.645 710.422L854.967 710.422L854.967 708.745z"/>
<path class="l5" d="M854.967 735.59L856.645 735.59L856.645 737.268L854.967 737.268L854.967 735.59z"/>
<path class="l5" d="M854.967 722.167L856.645 722.167L856.645 723.845L854.967 723.845L854.967 722.167z"/>
<path class="l5" d="M1122.58 694.483L1125.94 694.483L1125.94 697.839L1122.58 697.839L1122.58 694.483z"/>
<path class="l5" d="M1001.78 694.483L1005.13 694.483L1005.13 697.839L1001.78 697.839L1001.78 694.483z"/>
<path class="l5" d="M1001.78 707.906L1005.13 707.906L1005.13 711.261L1001.78 711.261L1001.78 707.906z"/>
<path class="l5" d="M1122.58 707.906L1125.94 707.906L1125.94 711.261L1122.58 711.261L1122.58 707.906z"/>
<path class="l5" d="M1122.58 721.328L1125.94 721.328L1125.94 724.684L1122.58 724.684L1122.58 721.328z"/>
<path class="l5" d="M1122.58 734.751L1125.94 734.751L1125.94 738.107L1122.58 738.107L1122.58 734.751z"/>
<path class="l5" d="M1002.62 695.322L1004.29 695.322L1004.29 697L1002.62 697L1002.62 695.322z"/>
<path class="l5" d="M1002.62 708.745L1004.29 708.745L1004.29 710.422L1002.62 710.422L1002.62 708.745z"/>
<path class="l5" d="M1123.42 695.322L1125.1 695.322L1125.1 697L1123.42 697L1123.42 695.322z"/>
<path class="l5" d="M1123.42 708.745L1125.1 708.745L1125.1 710.422L1123.42 710.422L1123.42 708.745z"/>
<path class="l5" d="M1123.42 735.59L1125.1 735.59L1125.1 737.268L1123.42 737.268L1123.42 735.59z"/>
<path class="l5" d="M1123.42 722.167L1125.1 722.167L1125.1 723.845L1123.42 723.845L1123.42 722.167z"/>
<path class="l5" d="M1391.03 694.483L1394.39 694.483L1394.39 697.839L1391.03 697.839L1391.03 694.483z"/>
<path class="l5" d="M1270.23 694.483L1273.58 694.483L1273.58 697.839L1270.23 697.839L1270.23 694.483z"/>
<path class="l5" d="M1270.23 707.906L1273.58 707.906L1273.58 711.261L1270.23 711.261L1270.23 707.906z"/>
<path class="l5" d="M1391.03 707.906L1394.39 707.906L1394.39 711.261L1391.03 711.261L1391.03 707.906z"/>
<path class="l5" d="M1391.03 721.328L1394.39 721.328L1394.39 724.684L1391.03 724.684L1391.03 721.328z"/>
<path class="l5" d="M1391.03 734.751L1394.39 734.751L1394.39 738.107L1391.03 738.107L1391.03 734.751z"/>
<path class="l5" d="M1391.87 695.322L1393.55 695.322L1393.55 697L1391.87 697L1391.87 695.322z"/>
<path class="l5" d="M1391.87 708.745L1393.55 708.745L1393.55 710.422L1391.87 710.422L1391.87 708.745z"/>
<path class="l5" d="M1391.87 735.59L1393.55 735.59L1393.55 737.268L1391.87 737.268L1391.87 735.59z"/>
<path class="l5" d="M1391.87 722.167L1393.55 722.167L1393.55 723.845L1391.87 723.845L1391.87 722.167z"/>
<path class="l5" d="M585.676 761.596L589.032 761.596L589.032 764.952L585.676 764.952L585.676 761.596z"/>
<path class="l5" d="M464.873 761.596L468.229 761.596L468.229 764.952L464.873 764.952L464.873 761.596z"/>
<path class="l5" d="M464.873 775.019L468.229 775.019L468.229 778.374L464.873 778.374L464.873 775.019z"/>
<path class="l5" d="M585.676 775.019L589.032 775.019L589.032 778.374L585.676 778.374L585.676 775.019z"/>
<path class="l5" d="M585.676 788.441L589.032 788.441L589.032 791.797L585.676 791.797L585.676 788.441z"/>
<path class="l5" d="M585.676 801.864L589.032 801.864L589.032 805.22L585.676 805.22L585.676 801.864z"/>
<path class="l5" d="M465.712 762.435L467.39 762.435L467.39 764.113L465.712 764.113L465.712 762.435z"/>
<path class="l5" d="M465.712 775.858L467.39 775.858L467.39 777.535L465.712 777.535L465.712 775.858z"/>
<path class="l5" d="M586.515 762.435L588.193 762.435L588.193 764.113L586.515 764.113L586.515 762.435z"/>
<path class="l5" d="M586.515 775.858L588.193 775.858L588.193 777.535L586.515 777.535L586.515 775.858z"/>
<path class="l5" d="M586.515 802.703L588.193 802.703L588.193 804.381L586.515 804.381L586.515 802.703z"/>
<path class="l5" d="M586.515 789.28L588.193 789.28L588.193 790.958L586.515 790.958L586.515 789.28z"/>
<path class="l5" d="M585.676 828.709L589.032 828.709L589.032 832.065L585.676 832.065L585.676 828.709z"/>
<path class="l5" d="M464.873 828.709L468.229 828.709L468.229 832.065L464.873 832.065L464.873 828.709z"/>
<path class="l5" d="M464.873 842.132L468.229 842.132L468.229 845.487L464.873 845.487L464.873 842.132z"/>
<path class="l5" d="M585.676 842.132L589.032 842.132L589.032 845.487L585.676 845.487L585.676 842.132z"/>
<path class="l5" d="M585.676 855.554L589.032 855.554L589.032 858.91L585.676 858.91L585.676 855.554z"/>
<path class="l5" d="M585.676 868.977L589.032 868.977L589.032 872.332L585.676 872.332L585.676 868.977z"/>
<path class="l5" d="M465.712 829.548L467.39 829.548L467.39 831.226L465.712 831.226L465.712 829.548z"/>
<path class="l5" d="M465.712 842.971L467.39 842.971L467.39 844.648L465.712 844.648L465.712 842.971z"/>
<path class="l5" d="M586.515 829.548L588.193 829.548L588.193 831.226L586.515 831.226L586.515 829.548z"/>
<path class="l5" d="M586.515 842.971L588.193 842.971L588.193 844.648L586.515 844.648L586.515 842.971z"/>
<path class="l5" d="M586.515 869.816L588.193 869.816L588.193 871.494L586.515 871.494L586.515 869.816z"/>
<path class="l5" d="M586.515 856.393L588.193 856.393L588.193 858.071L586.515 858.071L586.515 856.393z"/>
<path class="l5" d="M1122.58 761.596L1125.94 761.596L1125.94 764.952L1122.58 764.952L1122.58 761.596z"/>
<path class="l5" d="M1001.78 761.596L1005.13 761.596L1005.13 764.952L1001.78 764.952L1001.78 761.596z"/>
<path class="l5" d="M1001.78 775.019L1005.13 775.019L1005.13 778.374L1001.78 778.374L1001.78 775.019z"/>
<path class="l5" d="M1122.58 775.019L1125.94 775.019L1125.94 778.374L1122.58 778.374L1122.58 775.019z"/>
<path class="l5" d="M1122.58 788.441L1125.94 788.441L1125.94 791.797L1122.58 791.797L1122.58 788.441z"/>
<path class="l5" d="M1122.58 801.864L1125.94 801.864L1125.94 805.22L1122.58 805.22L1122.58 801.864z"/>
<path class="l5" d="M1002.62 762.435L1004.29 762.435L1004.29 764.113L1002.62 764.113L1002.62 762.435z"/>
<path class="l5" d="M1002.62 775.858L1004.29 775.858L1004.29 777.535L1002.62 777.535L1002.62 775.858z"/>
<path class="l5" d="M1123.42 762.435L1125.1 762.435L1125.1 764.113L1123.42 764.113L1123.42 762.435z"/>
<path class="l5" d="M1123.42 775.858L1125.1 775.858L1125.1 777.535L1123.42 777.535L1123.42 775.858z"/>
<path class="l5" d="M1123.42 802.703L1125.1 802.703L1125.1 804.381L1123.42 804.381L1123.42 802.703z"/>
<path class="l5" d="M1123.42 789.28L1125.1 789.28L1125.1 790.958L1123.42 790.958L1123.42 789.28z"/>
<path class="l5" d="M1122.58 828.709L1125.94 828.709L1125.94 832.065L1122.58 832.065L1122.58 828.709z"/>
<path class="l5" d="M1001.78 828.709L1005.13 828.709L1005.13 832.065L1001.78 832.065L1001.78 828.709z"/>
<path class="l5" d="M1001.78 842.132L1005.13 842.132L1005.13 845.487L1001.78 845.487L1001.78 842.132z"/>
<path class="l5" d="M1122.58 842.132L1125.94 842.132L1125.94 845.487L1122.58 845.487L1122.58 842.132z"/>
<path class="l5" d="M1122.58 855.554L1125.94 855.554L1125.94 858.91L1122.58 858.91L1122.58 855.554z"/>
<path class="l5" d="M1122.58 868.977L1125.94 868.977L1125.94 872.332L1122.58 872.332L1122.58 868.977z"/>
<path class="l5" d="M1002.62 829.548L1004.29 829.548L1004.29 831.226L1002.62 831.226L1002.62 829.548z"/>
<path class="l5" d="M1002.62 842.971L1004.29 842.971L1004.29 844.648L1002.62 844.648L1002.62 842.971z"/>
<path class="l5" d="M1123.42 829.548L1125.1 829.548L1125.1 831.226L1123.42 831.226L1123.42 829.548z"/>
<path class="l5" d="M1123.42 842.971L1125.1 842.971L1125.1 844.648L1123.42 844.648L1123.42 842.971z"/>
<path class="l5" d="M1123.42 869.816L1125.1 869.816L1125.1 871.494L1123.42 871.494L1123.42 869.816z"/>
<path class="l5" d="M1123.42 856.393L1125.1 856.393L1125.1 858.071L1123.42 858.071L1123.42 856.393z"/>
<path class="l5" d="M1271.07 695.322L1272.75 695.322L1272.75 697L1271.07 697L1271.07 695.322z"/>
<path class="l5" d="M1271.07 708.745L1272.75 708.745L1272.75 710.422L1271.07 710.422L1271.07 708.745z"/>
<path class="l5" d="M1391.03 761.596L1394.39 761.596L1394.39 764.952L1391.03 764.952L1391.03 761.596z"/>
<path class="l5" d="M1270.23 761.596L1273.58 761.596L1273.58 764.952L1270.23 764.952L1270.23 761.596z"/>
<path class="l5" d="M1270.23 775.019L1273.58 775.019L1273.58 778.374L1270.23 778.374L1270.23 775.019z"/>
<path class="l5" d="M1391.03 775.019L1394.39 775.019L1394.39 778.374L1391.03 778.374L1391.03 775.019z"/>
<path class="l5" d="M1391.03 788.441L1394.39 788.441L1394.39 791.797L1391.03 791.797L1391.03 788.441z"/>
<path class="l5" d="M1391.03 801.864L1394.39 801.864L1394.39 805.22L1391.03 805.22L1391.03 801.864z"/>
<path class="l5" d="M1391.87 762.435L1393.55 762.435L1393.55 764.113L1391.87 764.113L1391.87 762.435z"/>
<path class="l5" d="M1391.87 775.858L1393.55 775.858L1393.55 777.535L1391.87 777.535L1391.87 775.858z"/>
<path class="l5" d="M1391.87 802.703L1393.55 802.703L1393.55 804.381L1391.87 804.381L1391.87 802.703z"/>
<path class="l5" d="M1391.87 789.28L1393.55 789.28L1393.55 790.958L1391.87 790.958L1391.87 789.28z"/>
<path class="l5" d="M1271.07 762.435L1272.75 762.435L1272.75 764.113L1271.07 764.113L1271.07 762.435z"/>
<path class="l5" d="M1271.07 775.858L1272.75 775.858L1272.75 777.535L1271.07 777.535L1271.07 775.858z"/>
<path class="l5" d="M599.099 385.763L602.455 385.763L602.455 389.119L599.099 389.119L599.099 385.763z"/>
<path class="l5" d="M612.521 385.763L615.877 385.763L615.877 389.119L612.521 389.119L612.521 385.763z"/>
<path class="l5" d="M558.831 325.362L562.187 325.362L562.187 328.717L558.831 328.717L558.831 325.362z"/>
<path class="l5" d="M652.789 325.362L656.145 325.362L656.145 328.717L652.789 328.717L652.789 325.362z"/>
<path class="l5" d="M605.81 264.96L609.166 264.96L609.166 268.316L605.81 268.316L605.81 264.96z"/>
<path class="l5" d="M619.233 264.96L622.588 264.96L622.588 268.316L619.233 268.316L619.233 264.96z"/>
<path class="l5" d="M632.655 264.96L636.011 264.96L636.011 268.316L632.655 268.316L632.655 264.96z"/>
<path class="l5" d="M559.67 326.201L561.348 326.201L561.348 327.878L559.67 327.878L559.67 326.201z"/>
<path class="l5" d="M653.628 326.201L655.306 326.201L655.306 327.878L653.628 327.878L653.628 326.201z"/>
<path class="l5" d="M606.649 265.799L608.327 265.799L608.327 267.477L606.649 267.477L606.649 265.799z"/>
<path class="l5" d="M620.072 265.799L621.75 265.799L621.75 267.477L620.072 267.477L620.072 265.799z"/>
<path class="l5" d="M633.494 265.799L635.172 265.799L635.172 267.477L633.494 267.477L633.494 265.799z"/>
<path class="l5" d="M1391.03 828.709L1394.39 828.709L1394.39 832.065L1391.03 832.065L1391.03 828.709z"/>
<path class="l5" d="M1270.23 828.709L1273.58 828.709L1273.58 832.065L1270.23 832.065L1270.23 828.709z"/>
<path class="l5" d="M1270.23 842.132L1273.58 842.132L1273.58 845.487L1270.23 845.487L1270.23 842.132z"/>
<path class="l5" d="M1391.03 842.132L1394.39 842.132L1394.39 845.487L1391.03 845.487L1391.03 842.132z"/>
<path class="l5" d="M1391.03 855.554L1394.39 855.554L1394.39 858.91L1391.03 858.91L1391.03 855.554z"/>
<path class="l5" d="M1391.03 868.977L1394.39 868.977L1394.39 872.332L1391.03 872.332L1391.03 868.977z"/>
<path class="l5" d="M1391.87 829.548L1393.55 829.548L1393.55 831.226L1391.87 831.226L1391.87 829.548z"/>
<path class="l5" d="M1391.87 842.971L1393.55 842.971L1393.55 844.648L1391.87 844.648L1391.87 842.971z"/>
<path class="l5" d="M1391.87 869.816L1393.55 869.816L1393.55 871.494L1391.87 871.494L1391.87 869.816z"/>
<path class="l5" d="M1391.87 856.393L1393.55 856.393L1393.55 858.071L1391.87 858.071L1391.87 856.393z"/>
<path class="l5" d="M1271.07 829.548L1272.75 829.548L1272.75 831.226L1271.07 831.226L1271.07 829.548z"/>
<path class="l5" d="M1271.07 842.971L1272.75 842.971L1272.75 844.648L1271.07 844.648L1271.07 842.971z"/>
<path class="l10" d="M599.938 386.602L601.616 386.602L601.616 388.28L599.938 388.28L599.938 386.602z"/>
<path class="l7" d="M613.36 386.602L615.038 386.602L615.038 388.28L613.36 388.28L613.36 386.602z"/>
<path class="l5" d="M868.39 165.129L870.068 165.129L870.068 166.807L868.39 166.807L868.39 165.129z"/>
<path class="l5" d="M881.812 165.129L883.49 165.129L883.49 166.807L881.812 166.807L881.812 165.129z"/>
<path class="l5" d="M841.545 460.427L843.222 460.427L843.222 462.104L841.545 462.104L841.545 460.427z"/>
<path class="l5" d="M841.545 473.849L843.222 473.849L843.222 475.527L841.545 475.527L841.545 473.849z"/>
<path class="l5" d="M1317.21 318.65L1320.56 318.65L1320.56 322.006L1317.21 322.006L1317.21 318.65z"/>
<path class="l5" d="M1317.21 224.692L1320.56 224.692L1320.56 228.048L1317.21 228.048L1317.21 224.692z"/>
<path class="l5" d="M1318.05 319.489L1319.72 319.489L1319.72 321.167L1318.05 321.167L1318.05 319.489z"/>
<path class="l7" d="M1218.22 387.441L1218.22 400.864"/>
<path class="l7" d="M1218.22 280.06L1218.22 293.483"/>
<path class="l7" d="M305.48 696.161L318.902 696.161"/>
<path class="l7" d="M305.48 709.584L318.902 709.584"/>
<path class="l7" d="M305.48 723.006L318.902 723.006"/>
<path class="l7" d="M305.48 736.429L318.902 736.429"/>
<path class="l7" d="M573.932 696.161L587.354 696.161"/>
<path class="l7" d="M573.932 709.584L587.354 709.584"/>
<path class="l7" d="M573.932 723.006L587.354 723.006"/>
<path class="l7" d="M573.932 736.429L587.354 736.429"/>
<path class="l7" d="M842.383 696.161L855.806 696.161"/>
<path class="l7" d="M842.383 709.584L855.806 709.584"/>
<path class="l7" d="M842.383 723.006L855.806 723.006"/>
<path class="l7" d="M842.383 736.429L855.806 736.429"/>
<path class="l7" d="M1110.84 696.161L1124.26 696.161"/>
<path class="l7" d="M1110.84 709.584L1124.26 709.584"/>
<path class="l7" d="M1110.84 723.006L1124.26 723.006"/>
<path class="l7" d="M1110.84 736.429L1124.26 736.429"/>
<path class="l7" d="M1379.29 696.161L1392.71 696.161"/>
<path class="l7" d="M1379.29 709.584L1392.71 709.584"/>
<path class="l7" d="M1379.29 723.006L1392.71 723.006"/>
<path class="l7" d="M1379.29 736.429L1392.71 736.429"/>
<path class="l7" d="M573.932 763.274L587.354 763.274"/>
<path class="l7" d="M573.932 776.696L587.354 776.696"/>
<path class="l7" d="M573.932 790.119L587.354 790.119"/>
<path class="l7" d="M573.932 803.542L587.354 803.542"/>
<path class="l7" d="M573.932 830.387L587.354 830.387"/>
<path class="l7" d="M573.932 843.809L587.354 843.809"/>
<path class="l7" d="M573.932 857.232L587.354 857.232"/>
<path class="l7" d="M573.932 870.655L587.354 870.655"/>
<path class="l7" d="M1110.84 763.274L1124.26 763.274"/>
<path class="l7" d="M1110.84 776.696L1124.26 776.696"/>
<path class="l7" d="M1110.84 790.119L1124.26 790.119"/>
<path class="l7" d="M1110.84 803.542L1124.26 803.542"/>
<path class="l7" d="M1110.84 830.387L1124.26 830.387"/>
<path class="l7" d="M1110.84 843.809L1124.26 843.809"/>
<path class="l7" d="M1110.84 857.232L1124.26 857.232"/>
<path class="l7" d="M1110.84 870.655L1124.26 870.655"/>
<path class="l7" d="M1379.29 763.274L1392.71 763.274"/>
<path class="l7" d="M1379.29 776.696L1392.71 776.696"/>
<path class="l7" d="M1379.29 790.119L1392.71 790.119"/>
<path class="l7" d="M1379.29 803.542L1392.71 803.542"/>
<path class="l7" d="M1379.29 830.387L1392.71 830.387"/>
<path class="l7" d="M1379.29 843.809L1392.71 843.809"/>
<path class="l7" d="M1379.29 857.232L1392.71 857.232"/>
<path class="l7" d="M1379.29 870.655L1392.71 870.655"/>
<text fill="#cccccc"  xml:space="preserve" font-size="10.4696" transform="translate(1224.93, 399.632)" >single_ended_ota</text>
<text fill="#cccccc"  xml:space="preserve" font-size="6.97975" transform="translate(1167.88, 285.056)" >xa1</text>
<text fill="#cccccc"  xml:space="preserve" font-size="6.97975" transform="translate(1174.59, 323.981)" >IP</text>
<text fill="#cccccc"  xml:space="preserve" font-size="6.97975" transform="translate(1174.59, 350.827)" >IN</text>
<text fill="#cccccc"  xml:space="preserve" font-size="6.97975" transform="translate(1232.42, 344.115)" >OUT</text>
<text fill="#cccccc"  xml:space="preserve" font-size="6.97975" transform="translate(1206.57, 303.847)" >VDD</text>
<text fill="#cccccc"  xml:space="preserve" font-size="6.97975" transform="translate(1208.15, 381.746)" >VSS</text>
<text fill="#cccccc"  xml:space="preserve" font-size="6.97975" transform="translate(1233.13, 303.847)" >VBIAS</text>
<text fill="#cccccc"  xml:space="preserve" font-size="10.4696" transform="translate(212.528, 735.197)" >tgate_sim</text>
<text fill="#cccccc"  xml:space="preserve" font-size="6.97975" transform="translate(308.835, 687.734)" >x6</text>
<text fill="#cccccc"  xml:space="preserve" font-size="6.97975" transform="translate(293.124, 699.814)" >T2</text>
<text fill="#cccccc"  xml:space="preserve" font-size="6.97975" transform="translate(214.877, 699.814)" >GATE_CON</text>
<text fill="#cccccc"  xml:space="preserve" font-size="6.97975" transform="translate(214.877, 713.237)" >GATE_CONb</text>
<text fill="#cccccc"  xml:space="preserve" font-size="6.97975" transform="translate(293.124, 713.237)" >T1</text>
<text fill="#cccccc"  xml:space="preserve" font-size="6.97975" transform="translate(285.124, 726.659)" >VSSd</text>
<text fill="#cccccc"  xml:space="preserve" font-size="6.97975" transform="translate(283.124, 740.082)" >VDDd</text>
<text fill="#00ccee"  xml:space="preserve" font-size="11.5166" transform="translate(1283.62, 335.429) rotate(270)" >P1</text>
<text fill="#00ccee"  xml:space="preserve" font-size="11.5166" transform="translate(1162.82, 372.918) rotate(270)" >P2</text>
<text fill="#00ccee"  xml:space="preserve" font-size="11.5166" transform="translate(1191.18, 405.868)" >VSS</text>
<text fill="#00ccee"  xml:space="preserve" font-size="11.5166" transform="translate(1187.18, 285.065)" >VDD</text>
<text fill="#cccccc"  xml:space="preserve" font-size="3.48987" transform="translate(859.162, 461.75)" >GATE_CON[1:10]</text>
<text fill="#cccccc"  xml:space="preserve" font-size="3.48987" transform="translate(859.162, 475.172)" >GATE_CONb[1:10]</text>
<text fill="#cccccc"  xml:space="preserve" font-size="10.4696" transform="translate(905.805, 513.724)" >sim_cap_10x1p</text>
<text fill="#cccccc"  xml:space="preserve" font-size="6.97975" transform="translate(953.12, 432.704)" >xc1</text>
<text fill="#cccccc"  xml:space="preserve" font-size="6.97975" transform="translate(927.409, 485.052)" >VDDd</text>
<text fill="#cccccc"  xml:space="preserve" font-size="6.97975" transform="translate(929.409, 498.475)" >VSSd</text>
<text fill="#cccccc"  xml:space="preserve" font-size="6.97975" transform="translate(906.141, 444.785)" >CA</text>
<text fill="#cccccc"  xml:space="preserve" font-size="6.97975" transform="translate(906.141, 495.119)" >CB</text>
<text fill="#00ccee"  xml:space="preserve" font-size="11.5166" transform="translate(876.752, 426.002)" >P22</text>
<text fill="#00ccee"  xml:space="preserve" font-size="11.5166" transform="translate(876.752, 519.96)" >P23</text>
<text fill="#00ccee"  xml:space="preserve" font-size="11.5166" transform="translate(968.22, 486.404)" >VDDd</text>
<text fill="#00ccee"  xml:space="preserve" font-size="11.5166" transform="translate(968.22, 499.826)" >VSSd</text>
<text fill="#00ccee"  xml:space="preserve" font-size="11.5166" transform="translate(160.065, 701.165)" >VDDd</text>
<text fill="#00ccee"  xml:space="preserve" font-size="11.5166" transform="translate(164.065, 714.588)" >VSSd</text>
<text fill="#00ccee"  xml:space="preserve" font-size="11.5166" transform="translate(323.936, 701.165)" >P46</text>
<text fill="#d2d46b"  xml:space="preserve" font-size="11.5166" transform="translate(323.936, 714.588)" >GPIO_A0</text>
<text fill="#00ccee"  xml:space="preserve" font-size="11.5166" transform="translate(323.936, 741.433)" >VDDd</text>
<text fill="#00ccee"  xml:space="preserve" font-size="11.5166" transform="translate(323.936, 728.01)" >VSSd</text>
<text fill="#cccccc"  xml:space="preserve" font-size="6.97975" transform="translate(1258.48, 259.553)" >I0</text>
<text fill="#cccccc"  xml:space="preserve" font-size="6.97975" transform="translate(1258.48, 267.559)" >83u</text>
<text fill="#00ccee"  xml:space="preserve" font-size="11.5166" transform="translate(1214.03, 244.797)" >VDD</text>
<text fill="#00ccee"  xml:space="preserve" font-size="11.5166" transform="translate(1160.51, 322.006) rotate(270)" >P3</text>
<text fill="#cccccc"  xml:space="preserve" font-size="3.48987" transform="translate(245.562, 370.663) rotate(270)" >GATE_CON[1:10]</text>
<text fill="#cccccc"  xml:space="preserve" font-size="3.48987" transform="translate(258.985, 370.663) rotate(270)" >GATE_CONb[1:10]</text>
<text fill="#cccccc"  xml:space="preserve" font-size="6.97975" transform="translate(228.597, 340.395) rotate(270)" >RA</text>
<text fill="#cccccc"  xml:space="preserve" font-size="6.97975" transform="translate(278.932, 340.395) rotate(270)" >RB</text>
<text fill="#cccccc"  xml:space="preserve" font-size="6.97975" transform="translate(255.442, 297.416) rotate(270)" >VSS</text>
<text fill="#cccccc"  xml:space="preserve" font-size="10.4696" transform="translate(297.537, 324.019) rotate(270)" >sim_res_10x10k</text>
<text fill="#cccccc"  xml:space="preserve" font-size="6.97975" transform="translate(216.517, 276.705) rotate(270)" >xr1</text>
<text fill="#cccccc"  xml:space="preserve" font-size="6.97975" transform="translate(268.865, 302.416) rotate(270)" >VDDd</text>
<text fill="#cccccc"  xml:space="preserve" font-size="6.97975" transform="translate(282.287, 300.416) rotate(270)" >VSSd</text>
<text fill="#00ccee"  xml:space="preserve" font-size="11.5166" transform="translate(209.814, 353.073) rotate(270)" >P46</text>
<text fill="#00ccee"  xml:space="preserve" font-size="11.5166" transform="translate(303.772, 353.073) rotate(270)" >P47</text>
<text fill="#00ccee"  xml:space="preserve" font-size="11.5166" transform="translate(256.793, 261.604) rotate(270)" >VSS</text>
<text fill="#00ccee"  xml:space="preserve" font-size="11.5166" transform="translate(270.216, 261.604) rotate(270)" >VDDd</text>
<text fill="#00ccee"  xml:space="preserve" font-size="11.5166" transform="translate(283.639, 261.604) rotate(270)" >VSSd</text>
<text fill="#ff00ff"  xml:space="preserve" font-size="11.5166" transform="translate(250.082, 444.475) rotate(270)" >DR[1:10]</text>
<text fill="#ff0000"  xml:space="preserve" font-size="11.5166" transform="translate(263.505, 451.475) rotate(270)" >DRb[1:10]</text>
<text fill="#cccccc"  xml:space="preserve" font-size="3.48987" transform="translate(869.713, 149.19) rotate(270)" >GATE_CON[1:10]</text>
<text fill="#cccccc"  xml:space="preserve" font-size="3.48987" transform="translate(883.135, 149.19) rotate(270)" >GATE_CONb[1:10]</text>
<text fill="#cccccc"  xml:space="preserve" font-size="10.4696" transform="translate(921.687, 102.547) rotate(270)" >sim_cap_10x1p</text>
<text fill="#cccccc"  xml:space="preserve" font-size="6.97975" transform="translate(840.667, 55.2319) rotate(270)" >xc2</text>
<text fill="#cccccc"  xml:space="preserve" font-size="6.97975" transform="translate(893.016, 80.9432) rotate(270)" >VDDd</text>
<text fill="#cccccc"  xml:space="preserve" font-size="6.97975" transform="translate(906.438, 78.9432) rotate(270)" >VSSd</text>
<text fill="#cccccc"  xml:space="preserve" font-size="6.97975" transform="translate(852.748, 102.211) rotate(270)" >CA</text>
<text fill="#cccccc"  xml:space="preserve" font-size="6.97975" transform="translate(903.083, 102.211) rotate(270)" >CB</text>
<text fill="#00ccee"  xml:space="preserve" font-size="11.5166" transform="translate(833.965, 131.6) rotate(270)" >P24</text>
<text fill="#00ccee"  xml:space="preserve" font-size="11.5166" transform="translate(927.923, 131.6) rotate(270)" >P25</text>
<text fill="#00ccee"  xml:space="preserve" font-size="11.5166" transform="translate(894.367, 40.1315) rotate(270)" >VDDd</text>
<text fill="#00ccee"  xml:space="preserve" font-size="11.5166" transform="translate(907.789, 40.1315) rotate(270)" >VSSd</text>
<text fill="#cccccc"  xml:space="preserve" font-size="10.4696" transform="translate(480.98, 735.197)" >tgate_sim</text>
<text fill="#cccccc"  xml:space="preserve" font-size="6.97975" transform="translate(577.287, 687.734)" >x1</text>
<text fill="#cccccc"  xml:space="preserve" font-size="6.97975" transform="translate(561.576, 699.814)" >T2</text>
<text fill="#cccccc"  xml:space="preserve" font-size="6.97975" transform="translate(483.329, 699.814)" >GATE_CON</text>
<text fill="#cccccc"  xml:space="preserve" font-size="6.97975" transform="translate(483.329, 713.237)" >GATE_CONb</text>
<text fill="#cccccc"  xml:space="preserve" font-size="6.97975" transform="translate(561.576, 713.237)" >T1</text>
<text fill="#cccccc"  xml:space="preserve" font-size="6.97975" transform="translate(553.576, 726.659)" >VSSd</text>
<text fill="#cccccc"  xml:space="preserve" font-size="6.97975" transform="translate(551.576, 740.082)" >VDDd</text>
<text fill="#00ccee"  xml:space="preserve" font-size="11.5166" transform="translate(428.517, 701.165)" >VDDd</text>
<text fill="#00ccee"  xml:space="preserve" font-size="11.5166" transform="translate(432.517, 714.588)" >VSSd</text>
<text fill="#00ccee"  xml:space="preserve" font-size="11.5166" transform="translate(592.388, 701.165)" >P1</text>
<text fill="#00ccee"  xml:space="preserve" font-size="11.5166" transform="translate(592.388, 714.588)" >GPIO_A1</text>
<text fill="#00ccee"  xml:space="preserve" font-size="11.5166" transform="translate(592.388, 741.433)" >VDDd</text>
<text fill="#00ccee"  xml:space="preserve" font-size="11.5166" transform="translate(592.388, 728.01)" >VSSd</text>
<text fill="#cccccc"  xml:space="preserve" font-size="10.4696" transform="translate(749.432, 735.197)" >tgate_sim</text>
<text fill="#cccccc"  xml:space="preserve" font-size="6.97975" transform="translate(845.739, 687.734)" >x2</text>
<text fill="#cccccc"  xml:space="preserve" font-size="6.97975" transform="translate(830.028, 699.814)" >T2</text>
<text fill="#cccccc"  xml:space="preserve" font-size="6.97975" transform="translate(751.781, 699.814)" >GATE_CON</text>
<text fill="#cccccc"  xml:space="preserve" font-size="6.97975" transform="translate(751.781, 713.237)" >GATE_CONb</text>
<text fill="#cccccc"  xml:space="preserve" font-size="6.97975" transform="translate(830.028, 713.237)" >T1</text>
<text fill="#cccccc"  xml:space="preserve" font-size="6.97975" transform="translate(822.028, 726.659)" >VSSd</text>
<text fill="#cccccc"  xml:space="preserve" font-size="6.97975" transform="translate(820.028, 740.082)" >VDDd</text>
<text fill="#00ccee"  xml:space="preserve" font-size="11.5166" transform="translate(696.969, 701.165)" >VDDd</text>
<text fill="#00ccee"  xml:space="preserve" font-size="11.5166" transform="translate(700.969, 714.588)" >VSSd</text>
<text fill="#00ccee"  xml:space="preserve" font-size="11.5166" transform="translate(860.839, 701.165)" >P23</text>
<text fill="#ef6158"  xml:space="preserve" font-size="11.5166" transform="translate(860.839, 714.588)" >GPIO_A2</text>
<text fill="#00ccee"  xml:space="preserve" font-size="11.5166" transform="translate(860.839, 741.433)" >VDDd</text>
<text fill="#00ccee"  xml:space="preserve" font-size="11.5166" transform="translate(860.839, 728.01)" >VSSd</text>
<text fill="#cccccc"  xml:space="preserve" font-size="10.4696" transform="translate(1017.88, 735.197)" >tgate_sim</text>
<text fill="#cccccc"  xml:space="preserve" font-size="6.97975" transform="translate(1114.19, 687.734)" >x3</text>
<text fill="#cccccc"  xml:space="preserve" font-size="6.97975" transform="translate(1098.48, 699.814)" >T2</text>
<text fill="#cccccc"  xml:space="preserve" font-size="6.97975" transform="translate(1020.23, 699.814)" >GATE_CON</text>
<text fill="#cccccc"  xml:space="preserve" font-size="6.97975" transform="translate(1020.23, 713.237)" >GATE_CONb</text>
<text fill="#cccccc"  xml:space="preserve" font-size="6.97975" transform="translate(1098.48, 713.237)" >T1</text>
<text fill="#cccccc"  xml:space="preserve" font-size="6.97975" transform="translate(1090.48, 726.659)" >VSSd</text>
<text fill="#cccccc"  xml:space="preserve" font-size="6.97975" transform="translate(1088.48, 740.082)" >VDDd</text>
<text fill="#00ccee"  xml:space="preserve" font-size="11.5166" transform="translate(965.421, 701.165)" >VDDd</text>
<text fill="#00ccee"  xml:space="preserve" font-size="11.5166" transform="translate(969.421, 714.588)" >VSSd</text>
<text fill="#00ccee"  xml:space="preserve" font-size="11.5166" transform="translate(1129.29, 701.165)" >P3</text>
<text fill="#00ccee"  xml:space="preserve" font-size="11.5166" transform="translate(1129.29, 714.588)" >GPIO_A3</text>
<text fill="#00ccee"  xml:space="preserve" font-size="11.5166" transform="translate(1129.29, 741.433)" >VDDd</text>
<text fill="#00ccee"  xml:space="preserve" font-size="11.5166" transform="translate(1129.29, 728.01)" >VSSd</text>
<text fill="#cccccc"  xml:space="preserve" font-size="10.4696" transform="translate(1286.34, 735.197)" >tgate_sim</text>
<text fill="#cccccc"  xml:space="preserve" font-size="6.97975" transform="translate(1382.64, 687.734)" >x4</text>
<text fill="#cccccc"  xml:space="preserve" font-size="6.97975" transform="translate(1366.93, 699.814)" >T2</text>
<text fill="#cccccc"  xml:space="preserve" font-size="6.97975" transform="translate(1288.68, 699.814)" >GATE_CON</text>
<text fill="#cccccc"  xml:space="preserve" font-size="6.97975" transform="translate(1288.68, 713.237)" >GATE_CONb</text>
<text fill="#cccccc"  xml:space="preserve" font-size="6.97975" transform="translate(1366.93, 713.237)" >T1</text>
<text fill="#cccccc"  xml:space="preserve" font-size="6.97975" transform="translate(1358.93, 726.659)" >VSSd</text>
<text fill="#cccccc"  xml:space="preserve" font-size="6.97975" transform="translate(1356.93, 740.082)" >VDDd</text>
<text fill="#00ccee"  xml:space="preserve" font-size="11.5166" transform="translate(1397.74, 701.165)" >P24</text>
<text fill="#00ccee"  xml:space="preserve" font-size="11.5166" transform="translate(1397.74, 714.588)" >GPIO_A4</text>
<text fill="#00ccee"  xml:space="preserve" font-size="11.5166" transform="translate(1397.74, 741.433)" >VDDd</text>
<text fill="#00ccee"  xml:space="preserve" font-size="11.5166" transform="translate(1397.74, 728.01)" >VSSd</text>
<text fill="#cccccc"  xml:space="preserve" font-size="10.4696" transform="translate(480.98, 802.31)" >tgate_sim</text>
<text fill="#cccccc"  xml:space="preserve" font-size="6.97975" transform="translate(577.287, 754.847)" >x11</text>
<text fill="#cccccc"  xml:space="preserve" font-size="6.97975" transform="translate(561.576, 766.927)" >T2</text>
<text fill="#cccccc"  xml:space="preserve" font-size="6.97975" transform="translate(483.329, 766.927)" >GATE_CON</text>
<text fill="#cccccc"  xml:space="preserve" font-size="6.97975" transform="translate(483.329, 780.35)" >GATE_CONb</text>
<text fill="#cccccc"  xml:space="preserve" font-size="6.97975" transform="translate(561.576, 780.35)" >T1</text>
<text fill="#cccccc"  xml:space="preserve" font-size="6.97975" transform="translate(553.576, 793.772)" >VSSd</text>
<text fill="#cccccc"  xml:space="preserve" font-size="6.97975" transform="translate(551.576, 807.195)" >VDDd</text>
<text fill="#00ccee"  xml:space="preserve" font-size="11.5166" transform="translate(428.517, 768.278)" >VDDd</text>
<text fill="#00ccee"  xml:space="preserve" font-size="11.5166" transform="translate(432.517, 781.701)" >VSSd</text>
<text fill="#00ccee"  xml:space="preserve" font-size="11.5166" transform="translate(592.388, 768.278)" >P2</text>
<text fill="#00ccee"  xml:space="preserve" font-size="11.5166" transform="translate(592.388, 781.701)" >GPIO_A1</text>
<text fill="#00ccee"  xml:space="preserve" font-size="11.5166" transform="translate(592.388, 808.546)" >VDDd</text>
<text fill="#00ccee"  xml:space="preserve" font-size="11.5166" transform="translate(592.388, 795.123)" >VSSd</text>
<text fill="#cccccc"  xml:space="preserve" font-size="10.4696" transform="translate(480.98, 869.423)" >tgate_sim</text>
<text fill="#cccccc"  xml:space="preserve" font-size="6.97975" transform="translate(577.287, 821.96)" >x12</text>
<text fill="#cccccc"  xml:space="preserve" font-size="6.97975" transform="translate(561.576, 834.04)" >T2</text>
<text fill="#cccccc"  xml:space="preserve" font-size="6.97975" transform="translate(483.329, 834.04)" >GATE_CON</text>
<text fill="#cccccc"  xml:space="preserve" font-size="6.97975" transform="translate(483.329, 847.463)" >GATE_CONb</text>
<text fill="#cccccc"  xml:space="preserve" font-size="6.97975" transform="translate(561.576, 847.463)" >T1</text>
<text fill="#cccccc"  xml:space="preserve" font-size="6.97975" transform="translate(553.576, 860.885)" >VSSd</text>
<text fill="#cccccc"  xml:space="preserve" font-size="6.97975" transform="translate(551.576, 874.308)" >VDDd</text>
<text fill="#00ccee"  xml:space="preserve" font-size="11.5166" transform="translate(428.517, 835.391)" >VDDd</text>
<text fill="#00ccee"  xml:space="preserve" font-size="11.5166" transform="translate(432.517, 848.814)" >VSSd</text>
<text fill="#00ccee"  xml:space="preserve" font-size="11.5166" transform="translate(592.388, 835.391)" >P25</text>
<text fill="#00ccee"  xml:space="preserve" font-size="11.5166" transform="translate(592.388, 848.814)" >GPIO_A1</text>
<text fill="#00ccee"  xml:space="preserve" font-size="11.5166" transform="translate(592.388, 875.659)" >VDDd</text>
<text fill="#00ccee"  xml:space="preserve" font-size="11.5166" transform="translate(592.388, 862.236)" >VSSd</text>
<text fill="#cccccc"  xml:space="preserve" font-size="10.4696" transform="translate(1017.88, 802.31)" >tgate_sim</text>
<text fill="#cccccc"  xml:space="preserve" font-size="6.97975" transform="translate(1114.19, 754.847)" >x13</text>
<text fill="#cccccc"  xml:space="preserve" font-size="6.97975" transform="translate(1098.48, 766.927)" >T2</text>
<text fill="#cccccc"  xml:space="preserve" font-size="6.97975" transform="translate(1020.23, 766.927)" >GATE_CON</text>
<text fill="#cccccc"  xml:space="preserve" font-size="6.97975" transform="translate(1020.23, 780.35)" >GATE_CONb</text>
<text fill="#cccccc"  xml:space="preserve" font-size="6.97975" transform="translate(1098.48, 780.35)" >T1</text>
<text fill="#cccccc"  xml:space="preserve" font-size="6.97975" transform="translate(1090.48, 793.772)" >VSSd</text>
<text fill="#cccccc"  xml:space="preserve" font-size="6.97975" transform="translate(1088.48, 807.195)" >VDDd</text>
<text fill="#00ccee"  xml:space="preserve" font-size="11.5166" transform="translate(965.421, 768.278)" >VDDd</text>
<text fill="#00ccee"  xml:space="preserve" font-size="11.5166" transform="translate(969.421, 781.701)" >VSSd</text>
<text fill="#00ccee"  xml:space="preserve" font-size="11.5166" transform="translate(1129.29, 768.278)" >P22</text>
<text fill="#00ccee"  xml:space="preserve" font-size="11.5166" transform="translate(1129.29, 781.701)" >GPIO_A3</text>
<text fill="#00ccee"  xml:space="preserve" font-size="11.5166" transform="translate(1129.29, 808.546)" >VDDd</text>
<text fill="#00ccee"  xml:space="preserve" font-size="11.5166" transform="translate(1129.29, 795.123)" >VSSd</text>
<text fill="#cccccc"  xml:space="preserve" font-size="10.4696" transform="translate(1017.88, 869.423)" >tgate_sim</text>
<text fill="#cccccc"  xml:space="preserve" font-size="6.97975" transform="translate(1114.19, 821.96)" >x14</text>
<text fill="#cccccc"  xml:space="preserve" font-size="6.97975" transform="translate(1098.48, 834.04)" >T2</text>
<text fill="#cccccc"  xml:space="preserve" font-size="6.97975" transform="translate(1020.23, 834.04)" >GATE_CON</text>
<text fill="#cccccc"  xml:space="preserve" font-size="6.97975" transform="translate(1020.23, 847.463)" >GATE_CONb</text>
<text fill="#cccccc"  xml:space="preserve" font-size="6.97975" transform="translate(1098.48, 847.463)" >T1</text>
<text fill="#cccccc"  xml:space="preserve" font-size="6.97975" transform="translate(1090.48, 860.885)" >VSSd</text>
<text fill="#cccccc"  xml:space="preserve" font-size="6.97975" transform="translate(1088.48, 874.308)" >VDDd</text>
<text fill="#00ccee"  xml:space="preserve" font-size="11.5166" transform="translate(965.421, 835.391)" >VDDd</text>
<text fill="#00ccee"  xml:space="preserve" font-size="11.5166" transform="translate(969.421, 848.814)" >VSSd</text>
<text fill="#00ccee"  xml:space="preserve" font-size="11.5166" transform="translate(1129.29, 835.391)" >P49</text>
<text fill="#00ccee"  xml:space="preserve" font-size="11.5166" transform="translate(1129.29, 848.814)" >GPIO_A3</text>
<text fill="#00ccee"  xml:space="preserve" font-size="11.5166" transform="translate(1129.29, 875.659)" >VDDd</text>
<text fill="#00ccee"  xml:space="preserve" font-size="11.5166" transform="translate(1129.29, 862.236)" >VSSd</text>
<text fill="#00ccee"  xml:space="preserve" font-size="11.5166" transform="translate(1233.87, 701.165)" >VDDd</text>
<text fill="#00ccee"  xml:space="preserve" font-size="11.5166" transform="translate(1237.87, 714.588)" >VSSd</text>
<text fill="#cccccc"  xml:space="preserve" font-size="10.4696" transform="translate(1286.34, 802.31)" >tgate_sim</text>
<text fill="#cccccc"  xml:space="preserve" font-size="6.97975" transform="translate(1382.64, 754.847)" >x15</text>
<text fill="#cccccc"  xml:space="preserve" font-size="6.97975" transform="translate(1366.93, 766.927)" >T2</text>
<text fill="#cccccc"  xml:space="preserve" font-size="6.97975" transform="translate(1288.68, 766.927)" >GATE_CON</text>
<text fill="#cccccc"  xml:space="preserve" font-size="6.97975" transform="translate(1288.68, 780.35)" >GATE_CONb</text>
<text fill="#cccccc"  xml:space="preserve" font-size="6.97975" transform="translate(1366.93, 780.35)" >T1</text>
<text fill="#cccccc"  xml:space="preserve" font-size="6.97975" transform="translate(1358.93, 793.772)" >VSSd</text>
<text fill="#cccccc"  xml:space="preserve" font-size="6.97975" transform="translate(1356.93, 807.195)" >VDDd</text>
<text fill="#00ccee"  xml:space="preserve" font-size="11.5166" transform="translate(1397.74, 768.278)" >P47</text>
<text fill="#00ccee"  xml:space="preserve" font-size="11.5166" transform="translate(1397.74, 781.701)" >GPIO_A4</text>
<text fill="#00ccee"  xml:space="preserve" font-size="11.5166" transform="translate(1397.74, 808.546)" >VDDd</text>
<text fill="#00ccee"  xml:space="preserve" font-size="11.5166" transform="translate(1397.74, 795.123)" >VSSd</text>
<text fill="#00ccee"  xml:space="preserve" font-size="11.5166" transform="translate(1233.87, 768.278)" >VDDd</text>
<text fill="#00ccee"  xml:space="preserve" font-size="11.5166" transform="translate(1237.87, 781.701)" >VSSd</text>
<text fill="#cccccc"  xml:space="preserve" font-size="3.48987" transform="translate(601.261, 370.663) rotate(270)" >GATE_CON[1:10]</text>
<text fill="#cccccc"  xml:space="preserve" font-size="3.48987" transform="translate(614.684, 370.663) rotate(270)" >GATE_CONb[1:10]</text>
<text fill="#cccccc"  xml:space="preserve" font-size="6.97975" transform="translate(584.296, 340.395) rotate(270)" >RA</text>
<text fill="#cccccc"  xml:space="preserve" font-size="6.97975" transform="translate(634.631, 340.395) rotate(270)" >RB</text>
<text fill="#cccccc"  xml:space="preserve" font-size="6.97975" transform="translate(611.141, 297.416) rotate(270)" >VSS</text>
<text fill="#cccccc"  xml:space="preserve" font-size="10.4696" transform="translate(653.235, 324.019) rotate(270)" >sim_res_10x10k</text>
<text fill="#cccccc"  xml:space="preserve" font-size="6.97975" transform="translate(572.216, 276.705) rotate(270)" >xr2</text>
<text fill="#cccccc"  xml:space="preserve" font-size="6.97975" transform="translate(624.564, 302.416) rotate(270)" >VDDd</text>
<text fill="#cccccc"  xml:space="preserve" font-size="6.97975" transform="translate(637.986, 300.416) rotate(270)" >VSSd</text>
<text fill="#00ccee"  xml:space="preserve" font-size="11.5166" transform="translate(565.513, 353.073) rotate(270)" >P48</text>
<text fill="#00ccee"  xml:space="preserve" font-size="11.5166" transform="translate(659.471, 353.073) rotate(270)" >P49</text>
<text fill="#00ccee"  xml:space="preserve" font-size="11.5166" transform="translate(612.492, 261.604) rotate(270)" >VSS</text>
<text fill="#00ccee"  xml:space="preserve" font-size="11.5166" transform="translate(625.915, 261.604) rotate(270)" >VDDd</text>
<text fill="#00ccee"  xml:space="preserve" font-size="11.5166" transform="translate(639.337, 261.604) rotate(270)" >VSSd</text>
<text fill="#cccccc"  xml:space="preserve" font-size="10.4696" transform="translate(1286.34, 869.423)" >tgate_sim</text>
<text fill="#cccccc"  xml:space="preserve" font-size="6.97975" transform="translate(1382.64, 821.96)" >x5</text>
<text fill="#cccccc"  xml:space="preserve" font-size="6.97975" transform="translate(1366.93, 834.04)" >T2</text>
<text fill="#cccccc"  xml:space="preserve" font-size="6.97975" transform="translate(1288.68, 834.04)" >GATE_CON</text>
<text fill="#cccccc"  xml:space="preserve" font-size="6.97975" transform="translate(1288.68, 847.463)" >GATE_CONb</text>
<text fill="#cccccc"  xml:space="preserve" font-size="6.97975" transform="translate(1366.93, 847.463)" >T1</text>
<text fill="#cccccc"  xml:space="preserve" font-size="6.97975" transform="translate(1358.93, 860.885)" >VSSd</text>
<text fill="#cccccc"  xml:space="preserve" font-size="6.97975" transform="translate(1356.93, 874.308)" >VDDd</text>
<text fill="#00ccee"  xml:space="preserve" font-size="11.5166" transform="translate(1397.74, 835.391)" >P48</text>
<text fill="#00ccee"  xml:space="preserve" font-size="11.5166" transform="translate(1397.74, 848.814)" >GPIO_A4</text>
<text fill="#00ccee"  xml:space="preserve" font-size="11.5166" transform="translate(1397.74, 875.659)" >VDDd</text>
<text fill="#00ccee"  xml:space="preserve" font-size="11.5166" transform="translate(1397.74, 862.236)" >VSSd</text>
<text fill="#00ccee"  xml:space="preserve" font-size="11.5166" transform="translate(1233.87, 835.391)" >VDDd</text>
<text fill="#00ccee"  xml:space="preserve" font-size="11.5166" transform="translate(1237.87, 848.814)" >VSSd</text>
<text fill="#ff00ff"  xml:space="preserve" font-size="11.5166" transform="translate(605.781, 444.475) rotate(270)" >DR[1:10]</text>
<text fill="#ff0000"  xml:space="preserve" font-size="11.5166" transform="translate(619.203, 451.475) rotate(270)" >DRb[1:10]</text>
<text fill="#00ccee"  xml:space="preserve" font-size="11.5166" transform="translate(874.233, 204.002) rotate(270)" >VDDd</text>
<text fill="#00ccee"  xml:space="preserve" font-size="11.5166" transform="translate(887.655, 200.002) rotate(270)" >VSSd</text>
<text fill="#00ccee"  xml:space="preserve" font-size="11.5166" transform="translate(804.35, 466.27)" >VDDd</text>
<text fill="#00ccee"  xml:space="preserve" font-size="11.5166" transform="translate(808.35, 479.692)" >VSSd</text>
<text fill="#cccccc"  xml:space="preserve" font-size="10.4696" transform="translate(1331.64, 235.205)" >bias</text>
<text fill="#cccccc"  xml:space="preserve" font-size="6.97975" transform="translate(1345.73, 315.257)" >x8</text>
<text fill="#cccccc"  xml:space="preserve" font-size="6.97975" transform="translate(1321.44, 250.157)" >BIAS(I/V)</text>
<text fill="#cccccc"  xml:space="preserve" font-size="6.97975" transform="translate(1322.24, 304.566)" >VSS</text>
<text fill="#00ccee"  xml:space="preserve" font-size="11.5166" transform="translate(1323.92, 325.332)" >VSS</text>
<path class="l1" d="M1245.06 280.06L1285.33 280.06"/>
<path class="l1" d="M1285.33 226.37L1285.33 280.06"/>
<path class="l1" d="M1285.33 226.37L1318.89 226.37"/>
<text fill="#cccccc"  xml:space="preserve" font-size="13.9595" transform="translate(1466.53, 359.849)" >GPIO_A1</text>
<text fill="#cccccc"  xml:space="preserve" font-size="13.9595" transform="translate(835.672, 346.426)" >GPIO_A3</text>
<text fill="#cccccc"  xml:space="preserve" font-size="13.9595" transform="translate(439.706, 91.3967)" >GPIO_A4</text>
<text fill="#88dd00"  xml:space="preserve" font-size="10.4696" transform="translate(157.831, 343.257)" >1</text>
<text fill="#cccccc"  xml:space="preserve" font-size="13.9595" transform="translate(916.208, 601.455)" >GPIO_A2</text>
<text fill="#cccccc"  xml:space="preserve" font-size="13.9595" transform="translate(63.8729, 319.581)" >GPIO_A0</text>
<text fill="#88dd00"  xml:space="preserve" font-size="10.4696" transform="translate(1406.13, 356.68)" >2</text>
<text fill="#88dd00"  xml:space="preserve" font-size="10.4696" transform="translate(1110.84, 437.215)" >3</text>
<text fill="#88dd00"  xml:space="preserve" font-size="10.4696" transform="translate(963.187, 121.784)" >4</text>
<text fill="#88dd00"  xml:space="preserve" font-size="10.4696" transform="translate(909.496, 564.73)" >5</text>
<text fill="#88dd00"  xml:space="preserve" font-size="10.4696" transform="translate(1043.72, 343.257)" >6</text>
<text fill="#88dd00"  xml:space="preserve" font-size="10.4696" transform="translate(909.496, 376.814)" >7</text>
<text fill="#88dd00"  xml:space="preserve" font-size="10.4696" transform="translate(694.735, 343.257)" >8</text>
<text fill="#88dd00"  xml:space="preserve" font-size="10.4696" transform="translate(506.819, 343.257)" >9</text>
<text fill="#88dd00"  xml:space="preserve" font-size="10.4696" transform="translate(339.036, 343.257)" >10</text>
<text fill="#88dd00"  xml:space="preserve" font-size="10.4696" transform="translate(775.27, 121.784)" >11</text>
<text fill="#cccccc"  xml:space="preserve" font-size="13.9595" transform="translate(177.965, 534.342)" >R1</text>
<text fill="#cccccc"  xml:space="preserve" font-size="13.9595" transform="translate(728.291, 534.342)" >C1</text>
<text fill="#cccccc"  xml:space="preserve" font-size="13.9595" transform="translate(802.116, 272.602)" >C2</text>
<text fill="#cccccc"  xml:space="preserve" font-size="13.9595" transform="translate(144.408, 641.723)" >TGATE BUS: GPIO_A0</text>
<text fill="#cccccc"  xml:space="preserve" font-size="13.9595" transform="translate(412.86, 641.723)" >TGATE BUS: GPIO_A1</text>
<text fill="#cccccc"  xml:space="preserve" font-size="13.9595" transform="translate(681.312, 641.723)" >TGATE BUS: GPIO_A2</text>
<text fill="#cccccc"  xml:space="preserve" font-size="13.9595" transform="translate(949.764, 641.723)" >TGATE BUS: GPIO_A3</text>
<text fill="#cccccc"  xml:space="preserve" font-size="13.9595" transform="translate(1218.22, 641.723)" >TGATE BUS: GPIO_A4</text>
<text fill="#cccccc"  xml:space="preserve" font-size="13.9595" transform="translate(533.664, 534.342)" >R2</text>
</svg>
