<svg xmlns="http://www.w3.org/2000/svg" xmlns:xlink="http://www.w3.org/1999/xlink" width="1680" height="897" version="1.1">
<style type="text/css">
.l0{
  fill: #000000;
  stroke: #000000;
  stroke-linecap:round;
  stroke-linejoin:round;
  stroke-width: 1.60076;
}
.l1{
  fill: #00ccee;
  stroke: #00ccee;
  stroke-linecap:round;
  stroke-linejoin:round;
  stroke-width: 1.60076;
}
.l2{
  fill: #4f4f4f; fill-opacity: 0.2;
  stroke: #4f4f4f;
  stroke-linecap:round;
  stroke-linejoin:round;
  stroke-width: 1.60076;
}
.l3{
  fill: #cccccc; fill-opacity: 0.5;
  stroke: #cccccc;
  stroke-linecap:round;
  stroke-linejoin:round;
  stroke-width: 1.60076;
}
.l4{
  fill: #88dd00;
  stroke: #88dd00;
  stroke-linecap:round;
  stroke-linejoin:round;
  stroke-width: 1.60076;
}
.l5{
  fill: #bb2200;
  stroke: #bb2200;
  stroke-linecap:round;
  stroke-linejoin:round;
  stroke-width: 1.60076;
}
.l6{
  fill: #00ccee; fill-opacity: 0.5;
  stroke: #00ccee;
  stroke-linecap:round;
  stroke-linejoin:round;
  stroke-width: 1.60076;
}
.l7{
  fill: #ff0000; fill-opacity: 0.5;
  stroke: #ff0000;
  stroke-linecap:round;
  stroke-linejoin:round;
  stroke-width: 1.60076;
}
.l8{
  fill: #ffff00; fill-opacity: 0.5;
  stroke: #ffff00;
  stroke-linecap:round;
  stroke-linejoin:round;
  stroke-width: 1.60076;
}
.l9{
  fill: #ffffff; fill-opacity: 0.5;
  stroke: #ffffff;
  stroke-linecap:round;
  stroke-linejoin:round;
  stroke-width: 1.60076;
}
.l10{
  fill: #ff00ff;
  stroke: #ff00ff;
  stroke-linecap:round;
  stroke-linejoin:round;
  stroke-width: 1.60076;
}
.l11{
  fill: #00ff00; fill-opacity: 0.5;
  stroke: #00ff00;
  stroke-linecap:round;
  stroke-linejoin:round;
  stroke-width: 1.60076;
}
.l12{
  fill: #0044ff; fill-opacity: 0.5;
  stroke: #0044ff;
  stroke-linecap:round;
  stroke-linejoin:round;
  stroke-width: 1.60076;
}
.l13{
  fill: #aaaa00; fill-opacity: 0.5;
  stroke: #aaaa00;
  stroke-linecap:round;
  stroke-linejoin:round;
  stroke-width: 1.60076;
}
.l14{
  fill: #aaccaa; fill-opacity: 0.2;
  stroke: #aaccaa;
  stroke-linecap:round;
  stroke-linejoin:round;
  stroke-width: 1.60076;
}
.l15{
  fill: #ff7777; fill-opacity: 0.5;
  stroke: #ff7777;
  stroke-linecap:round;
  stroke-linejoin:round;
  stroke-width: 1.60076;
}
.l16{
  fill: #bfff81; fill-opacity: 0.5;
  stroke: #bfff81;
  stroke-linecap:round;
  stroke-linejoin:round;
  stroke-width: 1.60076;
}
.l17{
  fill: #00ffcc; fill-opacity: 0.2;
  stroke: #00ffcc;
  stroke-linecap:round;
  stroke-linejoin:round;
  stroke-width: 1.60076;
}
.l18{
  fill: #ce0097; fill-opacity: 0.5;
  stroke: #ce0097;
  stroke-linecap:round;
  stroke-linejoin:round;
  stroke-width: 1.60076;
}
.l19{
  fill: #d2d46b; fill-opacity: 0.2;
  stroke: #d2d46b;
  stroke-linecap:round;
  stroke-linejoin:round;
  stroke-width: 1.60076;
}
.l20{
  fill: #ef6158; fill-opacity: 0.2;
  stroke: #ef6158;
  stroke-linecap:round;
  stroke-linejoin:round;
  stroke-width: 1.60076;
}
.l21{
  fill: #fdb200; fill-opacity: 0.2;
  stroke: #fdb200;
  stroke-linecap:round;
  stroke-linejoin:round;
  stroke-width: 1.60076;
}
text {font-family: Sans-Serif;}
</style>
<rect class="l0" x="0" y="0" width="1680" height="897"/>
<path class="l4" d="M70.5703 282.498L153.573 282.498"/>
<path class="l4" d="M70.5703 282.498L70.5703 306.213"/>
<path class="l4" d="M962.845 208.389L968.773 208.389"/>
<path class="l4" d="M965.809 205.425L965.809 211.353"/>
<path class="l4" d="M971.738 199.496L971.738 270.641"/>
<path class="l4" d="M971.738 211.353L995.453 235.068"/>
<path class="l4" d="M971.738 258.783L995.453 235.068"/>
<path class="l4" d="M948.023 235.068L971.738 258.783"/>
<path class="l4" d="M948.023 235.068L971.738 211.353"/>
<path class="l4" d="M1013.24 211.353L1019.17 211.353"/>
<path class="l4" d="M1001.38 211.353L1007.31 211.353"/>
<path class="l4" d="M989.524 211.353L995.453 211.353"/>
<path class="l4" d="M1013.24 258.783L1019.17 258.783"/>
<path class="l4" d="M1001.38 258.783L1007.31 258.783"/>
<path class="l4" d="M989.524 258.783L995.453 258.783"/>
<path class="l4" d="M1164.42 208.389L1170.35 208.389"/>
<path class="l4" d="M1167.39 205.425L1167.39 211.353"/>
<path class="l4" d="M1161.46 199.496L1161.46 270.641"/>
<path class="l4" d="M1137.74 235.068L1161.46 211.353"/>
<path class="l4" d="M1137.74 235.068L1161.46 258.783"/>
<path class="l4" d="M1161.46 258.783L1185.17 235.068"/>
<path class="l4" d="M1161.46 211.353L1185.17 235.068"/>
<path class="l4" d="M1114.03 211.353L1119.96 211.353"/>
<path class="l4" d="M1125.88 211.353L1131.81 211.353"/>
<path class="l4" d="M1137.74 211.353L1143.67 211.353"/>
<path class="l4" d="M1114.03 258.783L1119.96 258.783"/>
<path class="l4" d="M1125.88 258.783L1131.81 258.783"/>
<path class="l4" d="M1137.74 258.783L1143.67 258.783"/>
<path class="l4" d="M856.128 350.679L862.056 350.679"/>
<path class="l4" d="M859.092 347.714L859.092 353.643"/>
<path class="l4" d="M853.163 341.786L853.163 412.93"/>
<circle class="l4" cx="853.163" cy="377.358" r="17.7862" style="fill:none;" />
<path class="l4" d="M1069.56 350.679L1075.49 350.679"/>
<path class="l4" d="M1072.53 347.714L1072.53 353.643"/>
<path class="l4" d="M1066.6 341.786L1066.6 412.93"/>
<circle class="l4" cx="1066.6" cy="377.358" r="17.7862" style="fill:none;" />
<path class="l4" d="M46.8554 57.2064L129.858 57.2064"/>
<path class="l4" d="M46.8554 57.2064L46.8554 80.9213"/>
<path class="l4" d="M974.702 623.4L980.631 623.4"/>
<path class="l4" d="M977.667 620.436L977.667 626.365"/>
<path class="l4" d="M971.738 614.507L971.738 685.652"/>
<circle class="l4" cx="971.738" cy="650.08" r="17.7862" style="fill:none;" />
<path class="l4" d="M971.738 602.65L971.738 614.507"/>
<path class="l4" d="M971.738 602.65L980.631 599.686"/>
<path class="l4" d="M962.845 593.757L980.631 599.686"/>
<path class="l4" d="M962.845 593.757L980.631 587.828"/>
<path class="l4" d="M962.845 581.899L980.631 587.828"/>
<path class="l4" d="M962.845 581.899L980.631 575.971"/>
<path class="l4" d="M962.845 570.042L980.631 575.971"/>
<path class="l4" d="M962.845 570.042L980.631 564.113"/>
<path class="l4" d="M962.845 558.184L980.631 564.113"/>
<path class="l4" d="M962.845 558.184L971.738 555.22"/>
<path class="l4" d="M971.738 543.363L971.738 555.22"/>
<path class="l4" d="M974.702 552.256L980.631 552.256"/>
<path class="l4" d="M977.667 549.291L977.667 555.22"/>
<path class="l4" d="M1090.31 614.507L1090.31 632.294"/>
<path class="l4" d="M1090.31 667.866L1090.31 685.652"/>
<path class="l4" d="M1093.28 623.4L1099.21 623.4"/>
<path class="l4" d="M1096.24 620.436L1096.24 626.365"/>
<path class="l4" d="M1090.31 641.187L1090.31 653.044L1093.28 653.044L1090.31 661.937L1087.35 653.044L1090.31 653.044L1090.31 641.187"/>
<circle class="l4" cx="1090.31" cy="650.08" r="17.7862" style="fill:none;" />
<path class="l4" d="M856.128 635.258L862.056 635.258"/>
<path class="l4" d="M859.092 632.294L859.092 638.222"/>
<path class="l4" d="M853.163 626.365L853.163 697.51"/>
<circle class="l4" cx="853.163" cy="661.937" r="17.7862" style="fill:none;" />
<path class="l4" d="M1377.86 184.674L1377.86 238.033"/>
<path class="l4" d="M1363.03 175.781L1363.03 190.603"/>
<path class="l4" d="M1363.03 232.104L1363.03 258.783"/>
<path class="l4" d="M1383.78 193.567L1383.78 229.14"/>
<path class="l4" d="M1363.03 190.603L1377.86 190.603"/>
<path class="l4" d="M1368.96 232.104L1377.86 232.104"/>
<path class="l4" d="M1383.78 211.353L1407.5 211.353"/>
<path class="l4" d="M1363.03 258.783L1363.03 282.498"/>
<path class="l4" d="M1363.03 116.494L1363.03 152.066"/>
<path class="l4" style="fill:none;" d="M1428.25 140.209L1339.32 140.209L1339.32 258.783L1428.25 258.783L1428.25 140.209"/>
<path class="l4" d="M1368.96 229.14L1363.03 232.104L1368.96 235.068L1368.96 229.14"/>
<path class="l4" style="fill:none;" d="M1410.46 211.353"/>
<path class="l4" style="fill:none;" d="M1407.5 211.353L1407.5 163.924L1363.03 163.924L1363.03 175.781"/>
<path class="l4" style="fill:none;" d="M1363.03 152.066L1363.03 163.924"/>
<path class="l4" d="M1422.32 656.008L1422.32 685.652"/>
<path class="l4" d="M1422.32 614.507L1422.32 644.151"/>
<path class="l4" d="M1410.46 644.151L1434.18 644.151"/>
<path class="l4" d="M1410.46 656.008L1434.18 656.008"/>
<path class="l4" d="M1425.29 623.4L1431.21 623.4"/>
<path class="l4" d="M1428.25 620.436L1428.25 626.365"/>
<path class="l4" d="M1327.46 424.788L1351.18 424.788"/>
<path class="l4" d="M1327.46 472.218L1351.18 472.218"/>
<path class="l4" d="M1481.61 341.786L1481.61 365.501"/>
<path class="l4" d="M1529.04 424.788L1552.75 424.788"/>
<path class="l4" d="M1386.75 472.218L1410.46 472.218"/>
<path class="l4" d="M1398.61 412.93L1398.61 436.645"/>
<path class="l4" d="M1386.75 424.788L1410.46 424.788"/>
<path class="l4" d="M1469.75 424.788L1529.04 424.788"/>
<path class="l4" d="M1351.18 424.788L1374.89 424.788"/>
<path class="l4" d="M1351.18 472.218L1374.89 472.218"/>
<path class="l4" d="M1529.04 472.218L1552.75 472.218"/>
<path class="l4" d="M1469.75 472.218L1529.04 472.218"/>
<path class="l4" d="M1434.18 460.36L1434.18 484.075"/>
<path class="l4" d="M1422.32 424.788L1446.04 424.788"/>
<path class="l4" d="M1422.32 472.218L1446.04 472.218"/>
<path class="l4" style="fill:none;" d="M1374.89 377.358L1374.89 519.648L1517.18 448.503L1374.89 377.358"/>
<path class="l4" style="fill:none;" d="M1351.18 365.501L1529.04 365.501L1529.04 531.505L1351.18 531.505L1351.18 365.501"/>
<path class="l5" d="M970.256 103.154L973.22 103.154L973.22 106.118L970.256 106.118L970.256 103.154z"/>
<path class="l5" d="M1159.98 103.154L1162.94 103.154L1162.94 106.118L1159.98 106.118L1159.98 103.154z"/>
<path class="l5" d="M968.773 196.532L974.702 196.532L974.702 202.46L968.773 202.46L968.773 196.532z"/>
<path class="l5" d="M968.773 267.676L974.702 267.676L974.702 273.605L968.773 273.605L968.773 267.676z"/>
<path class="l5" d="M1016.2 208.389L1022.13 208.389L1022.13 214.318L1016.2 214.318L1016.2 208.389z"/>
<path class="l5" d="M1016.2 255.819L1022.13 255.819L1022.13 261.748L1016.2 261.748L1016.2 255.819z"/>
<path class="l5" d="M1158.49 196.532L1164.42 196.532L1164.42 202.46L1158.49 202.46L1158.49 196.532z"/>
<path class="l5" d="M1158.49 267.676L1164.42 267.676L1164.42 273.605L1158.49 273.605L1158.49 267.676z"/>
<path class="l5" d="M1111.06 208.389L1116.99 208.389L1116.99 214.318L1111.06 214.318L1111.06 208.389z"/>
<path class="l5" d="M1111.06 255.819L1116.99 255.819L1116.99 261.748L1111.06 261.748L1111.06 255.819z"/>
<path class="l5" d="M850.199 338.821L856.128 338.821L856.128 344.75L850.199 344.75L850.199 338.821z"/>
<path class="l5" d="M850.199 409.966L856.128 409.966L856.128 415.895L850.199 415.895L850.199 409.966z"/>
<path class="l5" d="M1063.63 338.821L1069.56 338.821L1069.56 344.75L1063.63 344.75L1063.63 338.821z"/>
<path class="l5" d="M1063.63 409.966L1069.56 409.966L1069.56 415.895L1063.63 415.895L1063.63 409.966z"/>
<path class="l5" d="M851.681 411.448L854.645 411.448L854.645 414.413L851.681 414.413L851.681 411.448z"/>
<path class="l5" d="M1065.12 411.448L1068.08 411.448L1068.08 414.413L1065.12 414.413L1065.12 411.448z"/>
<path class="l5" d="M1065.12 281.016L1068.08 281.016L1068.08 283.98L1065.12 283.98L1065.12 281.016z"/>
<path class="l5" d="M968.773 611.543L974.702 611.543L974.702 617.472L968.773 617.472L968.773 611.543z"/>
<path class="l5" d="M968.773 682.688L974.702 682.688L974.702 688.617L968.773 688.617L968.773 682.688z"/>
<path class="l5" d="M970.256 731.6L973.22 731.6L973.22 734.564L970.256 734.564L970.256 731.6z"/>
<path class="l5" d="M968.773 540.398L974.702 540.398L974.702 546.327L968.773 546.327L968.773 540.398z"/>
<path class="l5" d="M968.773 611.543L974.702 611.543L974.702 617.472L968.773 617.472L968.773 611.543z"/>
<path class="l5" d="M970.256 494.45L973.22 494.45L973.22 497.415L970.256 497.415L970.256 494.45z"/>
<path class="l5" d="M1087.35 611.543L1093.28 611.543L1093.28 617.472L1087.35 617.472L1087.35 611.543z"/>
<path class="l5" d="M1087.35 682.688L1093.28 682.688L1093.28 688.617L1087.35 688.617L1087.35 682.688z"/>
<path class="l5" d="M1088.83 494.45L1091.79 494.45L1091.79 497.415L1088.83 497.415L1088.83 494.45z"/>
<path class="l5" d="M1088.83 731.6L1091.79 731.6L1091.79 734.564L1088.83 734.564L1088.83 731.6z"/>
<path class="l5" d="M850.199 623.4L856.128 623.4L856.128 629.329L850.199 629.329L850.199 623.4z"/>
<path class="l5" d="M850.199 694.545L856.128 694.545L856.128 700.474L850.199 700.474L850.199 694.545z"/>
<path class="l5" d="M851.681 731.6L854.645 731.6L854.645 734.564L851.681 734.564L851.681 731.6z"/>
<path class="l5" d="M851.681 494.45L854.645 494.45L854.645 497.415L851.681 497.415L851.681 494.45z"/>
<path class="l5" d="M1360.07 279.534L1366 279.534L1366 285.463L1360.07 285.463L1360.07 279.534z"/>
<path class="l5" d="M1360.07 113.529L1366 113.529L1366 119.458L1360.07 119.458L1360.07 113.529z"/>
<path class="l5" d="M1361.55 281.016L1364.52 281.016L1364.52 283.98L1361.55 283.98L1361.55 281.016z"/>
<path class="l5" d="M1361.55 115.012L1364.52 115.012L1364.52 117.976L1361.55 117.976L1361.55 115.012z"/>
<path class="l5" d="M1480.13 340.303L1483.09 340.303L1483.09 343.268L1480.13 343.268L1480.13 340.303z"/>
<path class="l5" d="M1432.7 340.303L1435.66 340.303L1435.66 343.268L1432.7 343.268L1432.7 340.303z"/>
<path class="l5" d="M1325.98 470.736L1328.94 470.736L1328.94 473.7L1325.98 473.7L1325.98 470.736z"/>
<path class="l5" d="M1325.98 423.306L1328.94 423.306L1328.94 426.27L1325.98 426.27L1325.98 423.306z"/>
<path class="l5" d="M1419.36 611.543L1425.29 611.543L1425.29 617.472L1419.36 617.472L1419.36 611.543z"/>
<path class="l5" d="M1419.36 682.688L1425.29 682.688L1425.29 688.617L1419.36 688.617L1419.36 682.688z"/>
<path class="l5" d="M1432.7 553.738L1435.66 553.738L1435.66 556.702L1432.7 556.702L1432.7 553.738z"/>
<path class="l5" d="M1551.27 423.306L1554.24 423.306L1554.24 426.27L1551.27 426.27L1551.27 423.306z"/>
<path class="l5" d="M1551.27 470.736L1554.24 470.736L1554.24 473.7L1551.27 473.7L1551.27 470.736z"/>
<path class="l5" d="M1420.84 684.17L1423.8 684.17L1423.8 687.134L1420.84 687.134L1420.84 684.17z"/>
<path class="l5" d="M1420.84 613.025L1423.8 613.025L1423.8 615.99L1420.84 615.99L1420.84 613.025z"/>
<path class="l5" d="M1324.5 421.823L1330.43 421.823L1330.43 427.752L1324.5 427.752L1324.5 421.823z"/>
<path class="l5" d="M1324.5 469.253L1330.43 469.253L1330.43 475.182L1324.5 475.182L1324.5 469.253z"/>
<path class="l5" d="M1478.64 338.821L1484.57 338.821L1484.57 344.75L1478.64 344.75L1478.64 338.821z"/>
<path class="l5" d="M1549.79 469.253L1555.72 469.253L1555.72 475.182L1549.79 475.182L1549.79 469.253z"/>
<path class="l5" d="M1431.21 338.821L1437.14 338.821L1437.14 344.75L1431.21 344.75L1431.21 338.821z"/>
<path class="l5" d="M1431.21 552.256L1437.14 552.256L1437.14 558.184L1431.21 558.184L1431.21 552.256z"/>
<path class="l5" d="M1549.79 421.823L1555.72 421.823L1555.72 427.752L1549.79 427.752L1549.79 421.823z"/>
<path class="l7" d="M1434.18 531.505L1434.18 555.22"/>
<path class="l7" d="M1434.18 341.786L1434.18 365.501"/>
<text fill="#cccccc"  xml:space="preserve" font-size="18.4976" transform="translate(76.499, 275.579)" >s1</text>
<text fill="#cccccc"  xml:space="preserve" font-size="18.4976" style="font-family:Monospace;" transform="translate(88.3565, 326.44)" >.option wnflag=1</text>
<text fill="#cccccc"  xml:space="preserve" font-size="18.4976" style="font-family:Monospace;" transform="translate(88.3565, 347.656)" >.option safecurrents</text>
<text fill="#cccccc"  xml:space="preserve" font-size="18.4976" style="font-family:Monospace;" transform="translate(88.3565, 368.873)" >.option solver=klu</text>
<text fill="#cccccc"  xml:space="preserve" font-size="18.4976" style="font-family:Monospace;" transform="translate(88.3565, 411.307)" >vin1 in1 gnd pulse(0 3.3 0 10n 10n 5u 10u)</text>
<text fill="#cccccc"  xml:space="preserve" font-size="18.4976" style="font-family:Monospace;" transform="translate(88.3565, 432.524)" >.control</text>
<text fill="#cccccc"  xml:space="preserve" font-size="18.4976" style="font-family:Monospace;" transform="translate(88.3565, 453.74)" >reset</text>
<text fill="#cccccc"  xml:space="preserve" font-size="18.4976" style="font-family:Monospace;" transform="translate(88.3565, 474.957)" >save all</text>
<text fill="#cccccc"  xml:space="preserve" font-size="18.4976" style="font-family:Monospace;" transform="translate(88.3565, 496.174)" >set num_threads=8</text>
<text fill="#cccccc"  xml:space="preserve" font-size="18.4976" style="font-family:Monospace;" transform="translate(88.3565, 517.391)" >op</text>
<text fill="#cccccc"  xml:space="preserve" font-size="18.4976" style="font-family:Monospace;" transform="translate(88.3565, 538.608)" >show</text>
<text fill="#cccccc"  xml:space="preserve" font-size="18.4976" style="font-family:Monospace;" transform="translate(88.3565, 559.824)" >write tb_differential_ota.raw</text>
<text fill="#cccccc"  xml:space="preserve" font-size="18.4976" style="font-family:Monospace;" transform="translate(88.3565, 581.041)" >*dc vin1 -1 4 0.1</text>
<text fill="#cccccc"  xml:space="preserve" font-size="18.4976" style="font-family:Monospace;" transform="translate(88.3565, 602.258)" >*tran 10n 30u</text>
<text fill="#cccccc"  xml:space="preserve" font-size="18.4976" style="font-family:Monospace;" transform="translate(88.3565, 623.475)" >ac dec 100 1 100e9</text>
<text fill="#cccccc"  xml:space="preserve" font-size="18.4976" style="font-family:Monospace;" transform="translate(88.3565, 665.909)" >let vout_mag =abs((V(OUTP)-V(OUTN)))</text>
<text fill="#cccccc"  xml:space="preserve" font-size="18.4976" style="font-family:Monospace;" transform="translate(88.3565, 687.125)" >let vout_phase_margin = phase((v(OUTP)-v(OUTN)))*180/pi + 180</text>
<text fill="#cccccc"  xml:space="preserve" font-size="18.4976" style="font-family:Monospace;" transform="translate(88.3565, 708.342)" >meas ac Aol find vout_mag at = 10</text>
<text fill="#cccccc"  xml:space="preserve" font-size="18.4976" style="font-family:Monospace;" transform="translate(88.3565, 729.559)" >meas ac UGF when vout_mag=1 fall=1</text>
<text fill="#cccccc"  xml:space="preserve" font-size="18.4976" style="font-family:Monospace;" transform="translate(88.3565, 750.776)" >meas ac PM find vout_phase_margin when vout_mag=1</text>
<text fill="#cccccc"  xml:space="preserve" font-size="18.4976" style="font-family:Monospace;" transform="translate(88.3565, 793.209)" >write tb_differential_ota.raw</text>
<text fill="#cccccc"  xml:space="preserve" font-size="18.4976" style="font-family:Monospace;" transform="translate(88.3565, 835.643)" >.endc</text>
<text fill="#00ccee"  xml:space="preserve" font-size="20.3474" transform="translate(871.845, 113.478)" >NON_INV</text>
<text fill="#00ccee"  xml:space="preserve" font-size="20.3474" transform="translate(1041.56, 113.478)" >INVERTING</text>
<text fill="#cccccc"  xml:space="preserve" font-size="12.3318" transform="translate(928.023, 252.194)" >0.5</text>
<text fill="#cccccc"  xml:space="preserve" font-size="12.3318" transform="translate(932.023, 225.515)" >E1</text>
<text fill="#cccccc"  xml:space="preserve" font-size="12.3318" transform="translate(1185.17, 252.194)" >-0.5</text>
<text fill="#cccccc"  xml:space="preserve" font-size="12.3318" transform="translate(1185.17, 225.515)" >E2</text>
<text fill="#cccccc"  xml:space="preserve" font-size="12.3318" transform="translate(876.878, 366.322)" >Vdm</text>
<text fill="#cccccc"  xml:space="preserve" font-size="12.3318" transform="translate(876.878, 395.966)" >ac 1</text>
<text fill="#cccccc"  xml:space="preserve" font-size="12.3318" transform="translate(1090.31, 366.322)" >Vcm</text>
<text fill="#cccccc"  xml:space="preserve" font-size="12.3318" transform="translate(1090.31, 395.966)" >1.65</text>
<text fill="#00ccee"  xml:space="preserve" font-size="20.3474" transform="translate(804.27, 421.772)" >VSS</text>
<text fill="#00ccee"  xml:space="preserve" font-size="20.3474" transform="translate(1017.7, 421.772)" >VSS</text>
<text fill="#00ccee"  xml:space="preserve" font-size="20.3474" transform="translate(1017.7, 291.34)" >VSS</text>
<text fill="#cccccc"  xml:space="preserve" font-size="18.4976" transform="translate(52.7841, 50.2873)" >MODELS1</text>
<text fill="#cccccc"  xml:space="preserve" font-size="18.4976" style="font-family:Monospace;" transform="translate(64.6416, 101.148)" >.include $::180MCU_MODELS/design.ngspice</text>
<text fill="#cccccc"  xml:space="preserve" font-size="18.4976" style="font-family:Monospace;" transform="translate(64.6416, 122.365)" >.lib $::180MCU_MODELS/sm141064.ngspice typical</text>
<text fill="#cccccc"  xml:space="preserve" font-size="18.4976" style="font-family:Monospace;" transform="translate(64.6416, 143.581)" >.lib $::180MCU_MODELS/sm141064.ngspice cap_mim</text>
<text fill="#cccccc"  xml:space="preserve" font-size="18.4976" style="font-family:Monospace;" transform="translate(64.6416, 164.798)" >.lib $::180MCU_MODELS/sm141064.ngspice res_typical</text>
<text fill="#cccccc"  xml:space="preserve" font-size="18.4976" style="font-family:Monospace;" transform="translate(64.6416, 186.015)" >.lib $::180MCU_MODELS/sm141064.ngspice moscap_typical</text>
<text fill="#cccccc"  xml:space="preserve" font-size="18.4976" style="font-family:Monospace;" transform="translate(64.6416, 207.232)" >.lib $::180MCU_MODELS/sm141064.ngspice mimcap_typical</text>
<text fill="#cccccc"  xml:space="preserve" font-size="18.4976" style="font-family:Monospace;" transform="translate(64.6416, 228.449)" >* .lib $::180MCU_MODELS/sm141064.ngspice res_statistical</text>
<text fill="#cccccc"  xml:space="preserve" font-size="12.3318" transform="translate(995.453, 639.044)" >VDD</text>
<text fill="#cccccc"  xml:space="preserve" font-size="12.3318" transform="translate(995.453, 668.688)" >3.3</text>
<text fill="#00ccee"  xml:space="preserve" font-size="20.3474" transform="translate(922.845, 741.923)" >VSS</text>
<text fill="#aaaa00"  xml:space="preserve" font-size="12.3318" transform="translate(951.88, 559.006)" >1</text>
<text fill="#aaaa00"  xml:space="preserve" font-size="12.3318" transform="translate(951.88, 609.401)" >2</text>
<text fill="#cccccc"  xml:space="preserve" font-size="12.3318" transform="translate(989.524, 567.899)" >R1</text>
<text fill="#cccccc"  xml:space="preserve" font-size="12.3318" transform="translate(989.524, 582.721)" >10</text>
<text fill="#cccccc"  xml:space="preserve" font-size="12.3318" transform="translate(989.524, 597.543)" >m=1</text>
<text fill="#00ccee"  xml:space="preserve" font-size="20.3474" transform="translate(916.845, 500.704)" >VDD</text>
<text fill="#cccccc"  xml:space="preserve" font-size="12.3318" transform="translate(1114.03, 649.42)" >IBIAS</text>
<text fill="#cccccc"  xml:space="preserve" font-size="12.3318" transform="translate(1114.03, 663.564)" >83u</text>
<text fill="#00ccee"  xml:space="preserve" font-size="20.3474" transform="translate(1035.42, 500.704)" >VDD</text>
<text fill="#00ccee"  xml:space="preserve" font-size="20.3474" transform="translate(1028.42, 737.853)" >IBIAS</text>
<text fill="#cccccc"  xml:space="preserve" font-size="12.3318" transform="translate(876.878, 650.902)" >VGND</text>
<text fill="#cccccc"  xml:space="preserve" font-size="12.3318" transform="translate(876.878, 680.545)" >0</text>
<text fill="#00ccee"  xml:space="preserve" font-size="20.3474" transform="translate(831.27, 737.853)" >0</text>
<text fill="#00ccee"  xml:space="preserve" font-size="20.3474" transform="translate(804.27, 500.704)" >VSS</text>
<text fill="#cccccc"  xml:space="preserve" font-size="18.4976" transform="translate(1385.56, 132.104)" >bias</text>
<text fill="#cccccc"  xml:space="preserve" font-size="12.3318" transform="translate(1410.46, 273.538)" >x2</text>
<text fill="#cccccc"  xml:space="preserve" font-size="12.3318" transform="translate(1368.32, 158.52)" >BIAS(I/V)</text>
<text fill="#cccccc"  xml:space="preserve" font-size="12.3318" transform="translate(1368.96, 254.65)" >VSS</text>
<text fill="#00ccee"  xml:space="preserve" font-size="20.3474" transform="translate(1314.14, 287.269)" >VSS</text>
<text fill="#00ccee"  xml:space="preserve" font-size="20.3474" transform="translate(1301.14, 121.265)" >IBIAS</text>
<text fill="#00ccee"  xml:space="preserve" font-size="20.3474" transform="translate(1490.5, 346.557)" >IBIAS</text>
<text fill="#00ccee"  xml:space="preserve" font-size="20.3474" transform="translate(1379.29, 346.557)" >VDD</text>
<text fill="#00ccee"  xml:space="preserve" font-size="20.3474" transform="translate(1207.57, 481.059)" >INVERTING</text>
<text fill="#00ccee"  xml:space="preserve" font-size="20.3474" transform="translate(1227.57, 433.629)" >NON_INV</text>
<text fill="#aaaa00"  xml:space="preserve" font-size="12.3318" transform="translate(1408.39, 630.151)" >1</text>
<text fill="#aaaa00"  xml:space="preserve" font-size="12.3318" transform="translate(1408.39, 680.545)" >2</text>
<text fill="#cccccc"  xml:space="preserve" font-size="12.3318" transform="translate(1440.11, 639.044)" >C1</text>
<text fill="#cccccc"  xml:space="preserve" font-size="12.3318" transform="translate(1440.11, 653.866)" >30p</text>
<text fill="#cccccc"  xml:space="preserve" font-size="12.3318" transform="translate(1440.11, 668.688)" >m=1</text>
<text fill="#00ccee"  xml:space="preserve" font-size="20.3474" transform="translate(1385.29, 559.991)" >VSS</text>
<text fill="#00ccee"  xml:space="preserve" font-size="20.3474" transform="translate(1561.65, 429.559)" >OUTN</text>
<text fill="#00ccee"  xml:space="preserve" font-size="20.3474" transform="translate(1561.65, 476.989)" >OUTP</text>
<text fill="#00ccee"  xml:space="preserve" font-size="20.3474" transform="translate(1358.43, 690.423)" >OUTP</text>
<text fill="#00ccee"  xml:space="preserve" font-size="20.3474" transform="translate(1355.43, 619.278)" >OUTN</text>
<text fill="#cccccc"  xml:space="preserve" font-size="18.4976" transform="translate(1446.04, 553.044)" >differential_ota</text>
<text fill="#cccccc"  xml:space="preserve" font-size="12.3318" transform="translate(1345.25, 350.611)" >x3</text>
<text fill="#cccccc"  xml:space="preserve" font-size="12.3318" transform="translate(1357.11, 419.385)" >IP</text>
<text fill="#cccccc"  xml:space="preserve" font-size="12.3318" transform="translate(1357.11, 466.815)" >IN</text>
<text fill="#cccccc"  xml:space="preserve" font-size="12.3318" transform="translate(1464.4, 484.601)" >OUTP</text>
<text fill="#cccccc"  xml:space="preserve" font-size="12.3318" transform="translate(1412.11, 383.812)" >VDD</text>
<text fill="#cccccc"  xml:space="preserve" font-size="12.3318" transform="translate(1416.39, 521.443)" >VSS</text>
<text fill="#cccccc"  xml:space="preserve" font-size="12.3318" transform="translate(1463.4, 383.812)" >VBIAS</text>
<text fill="#cccccc"  xml:space="preserve" font-size="12.3318" transform="translate(1463.4, 419.385)" >OUTN</text>
<path class="l1" d="M1066.6 211.353L1114.03 211.353"/>
<path class="l1" d="M853.163 152.066L853.163 341.786"/>
<path class="l1" d="M853.163 152.066L1066.6 152.066"/>
<path class="l1" d="M1066.6 318.071L1161.46 318.071"/>
<path class="l1" d="M1066.6 318.071L1066.6 341.786"/>
<path class="l1" d="M1066.6 258.783L1114.03 258.783"/>
<path class="l1" d="M1066.6 258.783L1066.6 282.498"/>
<path class="l1" d="M971.738 270.641L971.738 318.071"/>
<path class="l1" d="M1161.46 270.641L1161.46 318.071"/>
<path class="l1" d="M1066.6 152.066L1066.6 211.353"/>
<path class="l1" d="M1161.46 104.636L1161.46 199.496"/>
<path class="l1" d="M971.738 104.636L971.738 199.496"/>
<path class="l1" d="M971.738 318.071L1066.6 318.071"/>
<path class="l1" d="M1019.17 258.783L1066.6 258.783"/>
<path class="l1" d="M1019.17 211.353L1066.6 211.353"/>
<path class="l1" d="M971.738 685.652L971.738 733.082"/>
<path class="l1" d="M971.738 495.933L971.738 543.363"/>
<path class="l1" d="M1090.31 495.933L1090.31 543.363"/>
<path class="l1" d="M1090.31 543.363L1090.31 614.507"/>
<path class="l1" d="M1090.31 685.652L1090.31 733.082"/>
<path class="l1" d="M853.163 495.933L853.163 626.365"/>
<path class="l1" d="M853.163 697.51L853.163 733.082"/>
<circle class="l1" cx="1066.6" cy="211.353" r="4.38726"/>
<circle class="l1" cx="1066.6" cy="258.783" r="4.38726"/>
<circle class="l1" cx="1066.6" cy="318.071" r="4.38726"/>
<circle class="l1" cx="1066.6" cy="211.353" r="4.38726"/>
<circle class="l1" cx="1066.6" cy="211.353" r="4.38726"/>
<circle class="l1" cx="1066.6" cy="258.783" r="4.38726"/>
<circle class="l1" cx="1066.6" cy="258.783" r="4.38726"/>
<circle class="l1" cx="1066.6" cy="318.071" r="4.38726"/>
<circle class="l1" cx="1066.6" cy="318.071" r="4.38726"/>
</svg>
